<?xml version="1.0" encoding="UTF-8" standalone="no"?>
<svg width="140px" height="140px" viewBox="0 0 140 140" version="1.1" xmlns="http://www.w3.org/2000/svg" xmlns:xlink="http://www.w3.org/1999/xlink" xmlns:sketch="http://www.bohemiancoding.com/sketch/ns">
    <!-- Generator: Sketch 3.2.2 (9983) - http://www.bohemiancoding.com/sketch -->
    <title>Rectangle 75 + Imported Layers 2 + Imported Layers 2</title>
    <desc>Created with Sketch.</desc>
    <defs></defs>
    <g id="Page-1" stroke="none" stroke-width="1" fill="none" fill-rule="evenodd" sketch:type="MSPage">
        <g id="Rectangle-76-+-Rectangle-15-+-Oval-3-+-Oval-4" sketch:type="MSLayerGroup" transform="translate(10.000000, 0.000000)">
            <path d="M0,44.9995286 C0,42.2383652 1.86147451,38.759017 4.15957408,37.2269506 L55.8404259,2.77304939 C58.1376953,1.2415365 61.8614745,1.24098301 64.1595741,2.77304939 L115.840426,37.2269506 C118.137695,38.7584635 120,42.2425656 120,44.9995286 L120,95.0004714 C120,97.7616348 118.138525,101.240983 115.840426,102.773049 L64.1595741,137.226951 C61.8623047,138.758464 58.1385255,138.759017 55.8404259,137.226951 L4.15957408,102.773049 C1.86230475,101.241536 0,97.7574344 0,95.0004714 L0,44.9995286 Z" id="Rectangle-76" fill="#0F172C" sketch:type="MSShapeGroup"></path>
            <g id="Rectangle-15-+-Oval-3-+-Oval-4" transform="translate(17.837838, 48.275862)" stroke="#F5F5F5" sketch:type="MSShapeGroup">
                <path d="M83.2336596,22.8138531 C83.9257757,22.1882426 84.3243243,21.7241379 84.3243243,21.7241379 C84.3243243,21.7241379 63.6265363,-6.63766265e-16 42.5880426,0 C21.5495489,6.63766265e-16 0,21.7241379 0,21.7241379 C0,21.7241379 1.0334849e-05,21.7241471 3.09829569e-05,21.7241653 C0.0295932999,21.753961 21.5639947,43.4482759 42.5880426,43.4482759 C60.7741335,43.4482759 78.7056418,27.2155303 83.2336596,22.8138531 Z" id="Rectangle-15"></path>
                <ellipse id="Oval-3" cx="43.013923" cy="22.1586207" rx="14.9058149" ry="15.2068966"></ellipse>
                <ellipse id="Oval-4" cx="42.5880426" cy="21.7241379" rx="4.25880426" ry="4.34482759"></ellipse>
            </g>
        </g>
    </g>
</svg>