<?xml version="1.0" encoding="UTF-8" standalone="no"?>
<svg width="225px" height="225px" viewBox="0 0 225 225" version="1.1" xmlns="http://www.w3.org/2000/svg" xmlns:xlink="http://www.w3.org/1999/xlink" xmlns:sketch="http://www.bohemiancoding.com/sketch/ns">
    <!-- Generator: Sketch 3.2.2 (9983) - http://www.bohemiancoding.com/sketch -->
    <title>Slice 2</title>
    <desc>Created with Sketch.</desc>
    <defs></defs>
    <g id="Page-1" stroke="none" stroke-width="1" fill="none" fill-rule="evenodd" sketch:type="MSPage">
        <g id="Oval-12-+-code" sketch:type="MSLayerGroup">
            <ellipse id="Oval-12" opacity="0.643540112" fill="#535265" sketch:type="MSShapeGroup" cx="112.5" cy="112" rx="112.5" ry="112"></ellipse>
            <path d="M72.2214765,101.586614 C69.1722595,98.1437008 65.2147651,96 60.2192394,96 C50.7472036,96 44,103.275591 44,112.5 C44,121.724409 50.7472036,129 60.2841163,129 C65.8635347,129 69.7561521,126.661417 73,122.244094 L66.1879195,117.047244 C64.8255034,118.996063 62.8791946,120.425197 60.2841163,120.425197 C56.0671141,120.425197 53.082774,117.372047 53.082774,112.5 C53.082774,107.822835 56.0671141,104.444882 60.2841163,104.444882 C62.8791946,104.444882 64.3064877,105.679134 65.9284116,107.433071 L72.2214765,101.586614 Z M93.5,129 C102.752941,129 110,121.919291 110,112.5 C110,103.080709 102.752941,96 93.5,96 C84.2470588,96 77,103.080709 77,112.5 C77,121.919291 84.2470588,129 93.5,129 L93.5,129 Z M93.5316456,121 C89.1012658,121 86,117.389961 86,112.467181 C86,107.610039 88.9746835,104 93.5316456,104 C98.0253165,104 101,107.610039 101,112.467181 C101,117.389961 98.0253165,121 93.5316456,121 L93.5316456,121 Z M146,128.355263 L146,80 L136.931174,80 L136.931174,100.051316 C134.469636,97.4723684 131.230769,96.1828947 127.732794,96.1828947 C118.987854,96.1828947 114,104.113158 114,112.494737 C114,121.005263 118.793522,129 127.668016,129 C131.360324,129 134.728745,127.194737 137.255061,124.228947 L137.255061,128.355263 L146,128.355263 Z M130.032258,121 C125.387097,121 123,117.142308 123,112.5 C123,107.792308 125.322581,104 130.032258,104 C134.225806,104 137,107.530769 137,112.434615 C137,116.815385 134.16129,121 130.032258,121 L130.032258,121 Z M182,114.477407 L182,113.375246 C182,103.650295 177.886076,96 167.443038,96 C157.949367,96 152,103.455796 152,112.467583 C152,122.192534 158.64557,129 167.696203,129 C174.721519,129 178.075949,126.666012 181.367089,122.127701 L175.481013,117.78389 C173.962025,120.053045 171.620253,121.67387 168.202532,121.67387 C164.721519,121.67387 161.556962,119.72888 160.924051,114.477407 L182,114.477407 Z M167.093264,104 C169.766839,104 172.440415,105.705882 173,109 L161,109 C161.870466,105.647059 164.295337,104 167.093264,104 L167.093264,104 Z" id="code" fill="#454E68" sketch:type="MSShapeGroup"></path>
        </g>
    </g>
</svg>