<?xml version="1.0" encoding="UTF-8" standalone="no"?>
<svg width="18px" height="15px" viewBox="0 0 18 15" version="1.1" xmlns="http://www.w3.org/2000/svg" xmlns:xlink="http://www.w3.org/1999/xlink" xmlns:sketch="http://www.bohemiancoding.com/sketch/ns">
    <!-- Generator: Sketch 3.2.2 (9983) - http://www.bohemiancoding.com/sketch -->
    <title>Oval 15</title>
    <desc>Created with Sketch.</desc>
    <defs></defs>
    <g id="Page-1" stroke="none" stroke-width="1" fill="none" fill-rule="evenodd" sketch:type="MSPage">
        <path d="M13.5578593,3.1058332 C12.3474528,1.89905967 10.6719594,1.15212068 8.82067652,1.15212068 C5.1292458,1.15212068 2.13674995,4.1219331 2.13674995,7.78538238 L2.13674995,7.78538238 L2.45915111,7.78538238 C2.45915111,4.48827803 5.49838887,1.47086183 8.82067652,1.47086183 C10.4719809,1.47086183 12.0533586,2.21630581 13.2263721,3.37102298 L13.5578593,3.1058332 L13.5578593,3.1058332 Z M15.5046031,7.78538238 C15.5046031,11.4488317 12.5121072,14.4186441 8.82067652,14.4186441 C7.1235713,14.4186441 5.57419475,13.7909369 4.3954173,12.7567035 L4.69306485,12.459056 C5.8319487,13.4648408 7.29652649,14.0999029 8.82067652,14.0999029 C12.1429642,14.0999029 15.1822019,11.0824867 15.1822019,7.78538238 L15.5046031,7.78538238 L15.5046031,7.78538238 Z M2.29795052,9.55425216 L1.64135302,7.78538237 L2.95454801,7.78538237 L2.29795052,9.55425216 Z M15.3434025,6.0165126 L16,7.78538238 L14.686805,7.78538238 L15.3434025,6.0165126 Z" id="Oval-15" stroke="#0F172C" stroke-width="0.7" fill="#0F172C" sketch:type="MSShapeGroup"></path>
    </g>
</svg>