<?xml version="1.0" encoding="UTF-8" standalone="no"?>
<svg width="138px" height="138px" viewBox="0 0 138 138" version="1.1" xmlns="http://www.w3.org/2000/svg" xmlns:xlink="http://www.w3.org/1999/xlink" xmlns:sketch="http://www.bohemiancoding.com/sketch/ns">
    <!-- Generator: Sketch 3.2.2 (9983) - http://www.bohemiancoding.com/sketch -->
    <title>Rectangle 75 + Imported Layers 3 + Oval 13</title>
    <desc>Created with Sketch.</desc>
    <defs></defs>
    <g id="Page-1" stroke="none" stroke-width="1" fill="none" fill-rule="evenodd" sketch:type="MSPage">
        <g id="Rectangle-75-+-Imported-Layers-3-+-Oval-13" sketch:type="MSLayerGroup" transform="translate(10.194176, -0.216000)">
            <g id="Rectangle-75-+-Imported-Layers-3" fill="#0F172C" sketch:type="MSShapeGroup">
                <path d="M0,44.4200867 C0,41.6633489 1.86374292,38.1724224 4.14858914,36.6324527 L54.3514109,2.79611869 C56.6426134,1.25186498 60.3637429,1.25614907 62.6485891,2.79611869 L112.851411,36.6324527 C115.142613,38.1767064 117,41.6748219 117,44.4200867 L117,93.5799133 C117,96.3366511 115.136257,99.8275776 112.851411,101.367547 L62.6485891,135.203881 C60.3573866,136.748135 56.6362571,136.743851 54.3514109,135.203881 L4.14858914,101.367547 C1.85738663,99.8232936 0,96.3251781 0,93.5799133 L0,44.4200867 Z" id="Rectangle-75"></path>
            </g>
            <path d="M87.5523622,55.5224125 C82.5961472,43.8157854 71.0312969,35.6059233 57.5552862,35.6059233 C39.5637785,35.6059233 24.9787797,50.2394261 24.9787797,68.2907666 L24.9787797,68.2907666 L26.5501171,68.2907666 C26.5501171,52.0445601 41.3629293,37.1764937 57.5552862,37.1764937 C69.5796092,37.1764937 80.843191,45.3753943 85.8451367,56.2490987 L87.5523622,55.5224125 L87.5523622,55.5224125 Z M90.1317928,68.2907666 C90.1317928,86.342107 75.546794,100.97561 57.5552862,100.97561 C44.6519891,100.97561 33.5008602,93.448737 28.2255568,82.5323624 L29.8820961,81.5983188 C35.1514741,91.8362353 46.0022415,99.4050394 57.5552862,99.4050394 C73.7476432,99.4050394 88.5604554,84.536973 88.5604554,68.2907666 L90.1317928,68.2907666 L90.1317928,68.2907666 Z M25.7644484,77.0067247 L22.5642857,68.2907666 L28.9646111,68.2907666 L25.7644484,77.0067247 Z M89.3461241,59.5748084 L92.5462868,68.2907666 L86.1459614,68.2907666 L89.3461241,59.5748084 Z" id="Oval-13" fill="#F5F5F5" sketch:type="MSShapeGroup"></path>
        </g>
    </g>
</svg>