<?xml version="1.0" encoding="UTF-8" standalone="no"?>
<svg width="378px" height="378px" viewBox="0 0 378 378" version="1.1" xmlns="http://www.w3.org/2000/svg" xmlns:xlink="http://www.w3.org/1999/xlink" xmlns:sketch="http://www.bohemiancoding.com/sketch/ns">
    <!-- Generator: Sketch 3.2.2 (9983) - http://www.bohemiancoding.com/sketch -->
    <title>Slice 2</title>
    <desc>Created with Sketch.</desc>
    <defs></defs>
    <g id="Page-1" stroke="none" stroke-width="1" fill="none" fill-rule="evenodd" sketch:type="MSPage">
        <g id="Group" sketch:type="MSLayerGroup" transform="translate(25.000000, 4.000000)">
            <ellipse id="Oval-11" opacity="0.643540112" fill-opacity="0.921110749" fill="#6A2121" sketch:type="MSShapeGroup" cx="112.5" cy="112" rx="112.5" ry="112"></ellipse>
            <ellipse id="Oval-12" opacity="0.643540112" fill="#535265" sketch:type="MSShapeGroup" cx="223.5" cy="256" rx="112.5" ry="112"></ellipse>
            <path d="M49,127.368421 L49,80 L39.9311741,80 L39.9311741,99.6421053 C37.4696356,97.1157895 34.2307692,95.8526316 30.7327935,95.8526316 C21.9878543,95.8526316 17,103.621053 17,111.831579 C17,120.168421 21.7935223,128 30.6680162,128 C34.3603239,128 37.7287449,126.231579 40.2550607,123.326316 L40.2550607,127.368421 L49,127.368421 Z M33.0322581,121 C28.3870968,121 26,117.142308 26,112.5 C26,107.792308 28.3225806,104 33.0322581,104 C37.2258065,104 40,107.530769 40,112.434615 C40,116.815385 37.1612903,121 33.0322581,121 L33.0322581,121 Z M85,113.917485 L85,112.848723 C85,103.418468 80.8860759,96 70.443038,96 C60.9493671,96 55,103.229862 55,111.968566 C55,121.398821 61.6455696,128 70.6962025,128 C77.721519,128 81.0759494,125.736739 84.3670886,121.335953 L78.4810127,117.123772 C76.9620253,119.324165 74.6202532,120.895874 71.2025316,120.895874 C67.721519,120.895874 64.556962,119.009823 63.9240506,113.917485 L85,113.917485 Z M70.0932642,103 C72.7668394,103 75.4404145,104.705882 76,108 L64,108 C64.8704663,104.647059 67.2953368,103 70.0932642,103 L70.0932642,103 Z M89,122.834646 C92.4278607,126.425197 97.0845771,128 102.776119,128 C109.890547,128 115,123.968504 115,118.173228 C115,112.314961 108.855721,109.417323 104.069652,108.031496 C101.223881,107.212598 99.4129353,106.456693 99.4129353,104.944882 C99.4129353,103.748031 100.641791,102.992126 102.323383,102.992126 C104.199005,102.992126 106.721393,104.314961 108.079602,105.76378 L113.124378,100.472441 C110.278607,97.5748031 106.915423,96 102.129353,96 C96.8258706,96 90.9402985,99.3385827 90.9402985,105.259843 C90.9402985,111.496063 97.0199005,114.141732 101.935323,115.527559 C104.587065,116.283465 106.20398,117.03937 106.20398,118.614173 C106.20398,119.748031 104.781095,120.503937 102.840796,120.503937 C99.800995,120.503937 96.3084577,119.496063 94.1094527,117.03937 L89,122.834646 Z M120,87 C120,90.2608696 122.73913,93 126,93 C129.26087,93 132,90.2608696 132,87 C132,83.7391304 129.26087,81 126,81 C122.73913,81 120,83.7391304 120,87 L120,87 Z M131,128 L131,97 L122,97 L122,128 L131,128 Z M153.256694,96.3582949 C145.490401,96.3582949 139.113202,101.554147 139.113202,109.284562 C139.113202,112.896313 140.249732,115.937788 142.333372,118.15553 C138.102952,121.450461 137.155843,126.89977 139.428904,130.448157 C133.998814,137.608295 137.282124,148 153.256694,148 C174.535073,148 174.661354,125.442396 158.560503,125.442396 C154.330084,125.442396 152.435866,126.646313 149.531399,126.646313 C145.36412,126.646313 145.616682,123.858295 148.331728,121.577189 C149.847102,121.957373 151.425617,122.147465 153.256694,122.147465 C161.022986,122.147465 167.337045,117.014977 167.337045,109.284562 C167.337045,106.369816 166.326796,103.708525 164.558859,101.554147 L168.221014,97.8790323 L163.043485,93 L159.128769,97.4988479 C157.360832,96.7384793 155.340333,96.3582949 153.256694,96.3582949 L153.256694,96.3582949 Z M147,108.592179 C147,105.089385 149.360656,103 153.032787,103 C156.639344,103 159,105.027933 159,108.592179 C159,112.094972 156.639344,114 153.032787,114 C149.557377,114 147,112.156425 147,108.592179 L147,108.592179 Z M146.264923,134.508197 C150.882411,134.508197 154.394303,133 157.906195,133 C163.889419,133 164.214594,141 152.768427,141 C144.964222,141 142.818066,137.721311 144.574012,134.377049 C145.094292,134.442623 145.679607,134.508197 146.264923,134.508197 L146.264923,134.508197 Z M183.090909,109.696 C183.220779,105.536 186.272727,103.36 189,103.36 C192.051948,103.36 194.844156,105.6 194.844156,109.952 L194.844156,128 L204,128 L204,109.44 C204,101.056 199.064935,96 192.506494,96 C188.155844,96 184.974026,98.112 182.896104,101.056 C183.025974,100.16 183.090909,99.392 183.090909,98.88 L183.090909,96.768 L174,96.768 L174,128 L183.090909,128 L183.090909,109.696 Z" id="design" fill="#E4C0A1" sketch:type="MSShapeGroup"></path>
            <path d="M183.221477,245.586614 C180.17226,242.143701 176.214765,240 171.219239,240 C161.747204,240 155,247.275591 155,256.5 C155,265.724409 161.747204,273 171.284116,273 C176.863535,273 180.756152,270.661417 184,266.244094 L177.187919,261.047244 C175.825503,262.996063 173.879195,264.425197 171.284116,264.425197 C167.067114,264.425197 164.082774,261.372047 164.082774,256.5 C164.082774,251.822835 167.067114,248.444882 171.284116,248.444882 C173.879195,248.444882 175.306488,249.679134 176.928412,251.433071 L183.221477,245.586614 Z M204.5,273 C213.752941,273 221,265.919291 221,256.5 C221,247.080709 213.752941,240 204.5,240 C195.247059,240 188,247.080709 188,256.5 C188,265.919291 195.247059,273 204.5,273 L204.5,273 Z M204.531646,265 C200.101266,265 197,261.389961 197,256.467181 C197,251.610039 199.974684,248 204.531646,248 C209.025316,248 212,251.610039 212,256.467181 C212,261.389961 209.025316,265 204.531646,265 L204.531646,265 Z M257,272.355263 L257,224 L247.931174,224 L247.931174,244.051316 C245.469636,241.472368 242.230769,240.182895 238.732794,240.182895 C229.987854,240.182895 225,248.113158 225,256.494737 C225,265.005263 229.793522,273 238.668016,273 C242.360324,273 245.728745,271.194737 248.255061,268.228947 L248.255061,272.355263 L257,272.355263 Z M241.032258,265 C236.387097,265 234,261.142308 234,256.5 C234,251.792308 236.322581,248 241.032258,248 C245.225806,248 248,251.530769 248,256.434615 C248,260.815385 245.16129,265 241.032258,265 L241.032258,265 Z M293,258.477407 L293,257.375246 C293,247.650295 288.886076,240 278.443038,240 C268.949367,240 263,247.455796 263,256.467583 C263,266.192534 269.64557,273 278.696203,273 C285.721519,273 289.075949,270.666012 292.367089,266.127701 L286.481013,261.78389 C284.962025,264.053045 282.620253,265.67387 279.202532,265.67387 C275.721519,265.67387 272.556962,263.72888 271.924051,258.477407 L293,258.477407 Z M278.093264,248 C280.766839,248 283.440415,249.705882 284,253 L272,253 C272.870466,249.647059 275.295337,248 278.093264,248 L278.093264,248 Z" id="code" fill="#454E68" sketch:type="MSShapeGroup"></path>
        </g>
    </g>
</svg>