<?xml version="1.0" encoding="UTF-8" standalone="no"?>
<svg width="225px" height="225px" viewBox="0 0 225 225" version="1.1" xmlns="http://www.w3.org/2000/svg" xmlns:xlink="http://www.w3.org/1999/xlink" xmlns:sketch="http://www.bohemiancoding.com/sketch/ns">
    <!-- Generator: Sketch 3.2.2 (9983) - http://www.bohemiancoding.com/sketch -->
    <title>Slice 3</title>
    <desc>Created with Sketch.</desc>
    <defs></defs>
    <g id="Page-1" stroke="none" stroke-width="1" fill="none" fill-rule="evenodd" sketch:type="MSPage">
        <g id="Group" sketch:type="MSLayerGroup">
            <g id="Oval-11-+-design" sketch:type="MSShapeGroup">
                <circle id="Oval-11" opacity="0.643540112" fill-opacity="0.921110749" fill="#6A2121" cx="112.5" cy="112.5" r="112.5"></circle>
                <path d="M49,127.93703 L49,80.3571429 L39.9311741,80.3571429 L39.9311741,100.086936 C37.4696356,97.5493421 34.2307692,96.2805451 30.7327935,96.2805451 C21.9878543,96.2805451 17,104.083647 17,112.330827 C17,120.704887 21.7935223,128.571429 30.6680162,128.571429 C34.3603239,128.571429 37.7287449,126.795113 40.2550607,123.87688 L40.2550607,127.93703 L49,127.93703 Z M33.0322581,121.540179 C28.3870968,121.540179 26,117.665264 26,113.002232 C26,108.273523 28.3225806,104.464286 33.0322581,104.464286 C37.2258065,104.464286 40,108.010817 40,112.936556 C40,117.336882 37.1612903,121.540179 33.0322581,121.540179 L33.0322581,121.540179 Z M85,114.426045 L85,113.352512 C85,103.880157 80.8860759,96.4285714 70.443038,96.4285714 C60.9493671,96.4285714 55,103.69071 55,112.468425 C55,121.94078 61.6455696,128.571429 70.6962025,128.571429 C77.721519,128.571429 81.0759494,126.298063 84.3670886,121.877631 L78.4810127,117.646646 C76.9620253,119.856862 74.6202532,121.435588 71.2025316,121.435588 C67.721519,121.435588 64.556962,119.541117 63.9240506,114.426045 L85,114.426045 Z M70.0932642,103.459821 C72.7668394,103.459821 75.4404145,105.173319 76,108.482143 L64,108.482143 C64.8704663,105.114233 67.2953368,103.459821 70.0932642,103.459821 L70.0932642,103.459821 Z M89,123.383015 C92.4278607,126.989595 97.0845771,128.571429 102.776119,128.571429 C109.890547,128.571429 115,124.521935 115,118.700787 C115,112.816367 108.855721,109.905793 104.069652,108.51378 C101.223881,107.691226 99.4129353,106.931946 99.4129353,105.413386 C99.4129353,104.211192 100.641791,103.451912 102.323383,103.451912 C104.199005,103.451912 106.721393,104.780652 108.079602,106.235939 L113.124378,100.920979 C110.278607,98.0104049 106.915423,96.4285714 102.129353,96.4285714 C96.8258706,96.4285714 90.9402985,99.7820585 90.9402985,105.729753 C90.9402985,111.993813 97.0199005,114.651294 101.935323,116.043307 C104.587065,116.802587 106.20398,117.561867 106.20398,119.143701 C106.20398,120.282621 104.781095,121.041901 102.840796,121.041901 C99.800995,121.041901 96.3084577,120.029528 94.1094527,117.561867 L89,123.383015 Z M120,87.3883929 C120,90.6638199 122.73913,93.4151786 126,93.4151786 C129.26087,93.4151786 132,90.6638199 132,87.3883929 C132,84.1129658 129.26087,81.3616071 126,81.3616071 C122.73913,81.3616071 120,84.1129658 120,87.3883929 L120,87.3883929 Z M131,128.571429 L131,97.4330357 L122,97.4330357 L122,128.571429 L131,128.571429 Z M153.256694,96.7884659 C145.490401,96.7884659 139.113202,102.007514 139.113202,109.77244 C139.113202,113.400315 140.249732,116.455367 142.333372,118.68301 C138.102952,121.99265 137.155843,127.466286 139.428904,131.030515 C133.998814,138.222618 137.282124,148.660714 153.256694,148.660714 C174.535073,148.660714 174.661354,126.002407 158.560503,126.002407 C154.330084,126.002407 152.435866,127.211699 149.531399,127.211699 C145.36412,127.211699 145.616682,124.411234 148.331728,122.119944 C149.847102,122.501826 151.425617,122.692767 153.256694,122.692767 C161.022986,122.692767 167.337045,117.537365 167.337045,109.77244 C167.337045,106.844681 166.326796,104.17151 164.558859,102.007514 L168.221014,98.3159922 L163.043485,93.4151786 L159.128769,97.9341106 C157.360832,97.1703475 155.340333,96.7884659 153.256694,96.7884659 L153.256694,96.7884659 Z M147,109.076965 C147,105.558535 149.360656,103.459821 153.032787,103.459821 C156.639344,103.459821 159,105.496808 159,109.076965 C159,112.595396 156.639344,114.508929 153.032787,114.508929 C149.557377,114.508929 147,112.657123 147,109.076965 L147,109.076965 Z M146.264923,135.10868 C150.882411,135.10868 154.394303,133.59375 157.906195,133.59375 C163.889419,133.59375 164.214594,141.629464 152.768427,141.629464 C144.964222,141.629464 142.818066,138.336139 144.574012,134.976947 C145.094292,135.042813 145.679607,135.10868 146.264923,135.10868 L146.264923,135.10868 Z M183.090909,110.185714 C183.220779,106.007143 186.272727,103.821429 189,103.821429 C192.051948,103.821429 194.844156,106.071429 194.844156,110.442857 L194.844156,128.571429 L204,128.571429 L204,109.928571 C204,101.507143 199.064935,96.4285714 192.506494,96.4285714 C188.155844,96.4285714 184.974026,98.55 182.896104,101.507143 C183.025974,100.607143 183.090909,99.8357143 183.090909,99.3214286 L183.090909,97.2 L174,97.2 L174,128.571429 L183.090909,128.571429 L183.090909,110.185714 Z" id="design" fill="#E4C0A1"></path>
            </g>
        </g>
    </g>
</svg>