<?xml version="1.0" encoding="UTF-8" standalone="no"?>
<svg width="51px" height="51px" viewBox="0 0 51 51" version="1.1" xmlns="http://www.w3.org/2000/svg" xmlns:xlink="http://www.w3.org/1999/xlink" xmlns:sketch="http://www.bohemiancoding.com/sketch/ns">
    <!-- Generator: Sketch 3.2.2 (9983) - http://www.bohemiancoding.com/sketch -->
    <title>Rectangle 79 + Oval 1</title>
    <desc>Created with Sketch.</desc>
    <defs></defs>
    <g id="Page-1" stroke="none" stroke-width="1" fill="none" fill-rule="evenodd" sketch:type="MSPage">
        <g id="Rectangle-79-+-Oval-1" sketch:type="MSLayerGroup" transform="translate(4.000000, 0.000000)" stroke="#0F172C">
            <path d="M0,17.5647415 C0,15.9115804 1.12122893,13.8287964 2.50226064,12.9140871 L19.4977394,1.65734146 C20.8796998,0.742017047 23.1212289,0.742632151 24.5022606,1.65734146 L41.4977394,12.9140871 C42.8796998,13.8294115 44,15.9057885 44,17.5647415 L44,33.4352585 C44,35.0884196 42.8787711,37.1712036 41.4977394,38.0859129 L24.5022606,49.3426585 C23.1203002,50.257983 20.8787711,50.2573678 19.4977394,49.3426585 L2.50226064,38.0859129 C1.12030025,37.1705885 0,35.0942115 0,33.4352585 L0,17.5647415 Z" id="Rectangle-79" sketch:type="MSShapeGroup"></path>
            <path d="M35.7244903,28.8178301 C35.5464711,29.7188146 35.2827977,30.6033609 34.9373803,31.4489482 C34.5998888,32.2795768 34.1812875,33.0800135 33.6921442,33.8264778 C33.2102929,34.5682298 32.6552049,35.2641189 32.0454271,35.8984738 C31.4343282,36.530089 30.7619346,37.1049372 30.0480084,37.6074567 C29.3268431,38.1118941 28.554951,38.5459754 27.7546309,38.8980843 C26.9391984,39.2549056 26.0854566,39.5283297 25.2186104,39.7128773 C24.3287258,39.9029591 23.4136892,40 22.4993923,40 C21.5844086,40 20.6694248,39.9029591 19.7808084,39.7128773 C18.9126412,39.5283297 18.0589522,39.2549056 17.2441538,38.8980843 C16.4438865,38.5459754 15.6712546,38.1118941 14.9500893,37.6074567 C14.2361632,37.104992 13.5637695,36.530089 12.9539917,35.8984738 C12.3435798,35.2641189 11.7884918,34.5682298 11.3059535,33.8264778 C10.8194523,33.0800135 10.400164,32.279522 10.0613516,31.4489482 C9.71588127,30.6033609 9.45157376,29.7187598 9.27292049,28.8178301 C9.09231212,27.8949278 9,26.9481351 9,26.0000274 C9,25.0512073 9.09225928,24.1023873 9.27297333,23.1815124 C9.4516266,22.2805278 9.71593411,21.3946118 10.0614044,20.5503942 C10.4002168,19.719163 10.8195051,18.9180139 11.3060064,18.1714948 C11.7885446,17.4291401 12.3436326,16.7345661 12.9540445,16.0994988 C13.5638224,15.4678288 14.236216,14.8943505 14.9501422,14.3925981 C15.6713075,13.8860237 16.4439393,13.4519972 17.2442066,13.0992307 C18.0590051,12.7416424 18.9126412,12.4675607 19.7808612,12.284383 C20.6694776,12.0957258 21.5844614,12 22.4994452,12 C23.413742,12 24.3287258,12.0957258 25.2186632,12.284383 C26.0855094,12.4676155 26.9391984,12.7416972 27.7546837,13.0992307 C28.554951,13.4519424 29.3268959,13.8860237 30.0480612,14.3925981 C30.7619874,14.8943505 31.4344339,15.4678288 32.0454799,16.0994988 C32.6552577,16.7345661 33.2103458,17.4291401 33.692197,18.1714948 C34.1812875,18.9180139 34.5998888,19.7192178 34.9373803,20.5503942 C35.2827977,21.3946118 35.5464711,22.2805278 35.7244903,23.1815124 C35.9070538,24.1023873 36,25.0512073 36,26.0000274 C36,26.9481351 35.9070538,27.8949278 35.7244903,28.8178301 Z M11.2175516,23.5349911 C11.5214894,23.5377308 16.3258411,23.6006348 21.8612392,22.0754871 C19.8658285,18.3991108 17.7339311,15.3988975 17.5803242,15.1862403 C14.365305,16.7605934 11.9657712,19.8326422 11.2175516,23.5349911 Z M10.9796114,25.6186035 C10.9762825,25.7470964 10.9703644,25.8714797 10.9703644,26.0000274 C10.9703644,29.0713639 12.0877267,31.8713584 13.9242993,33.9885049 C13.9203363,33.9823131 17.0753817,28.1779409 23.2970177,26.0916437 C23.4472956,26.0396986 23.6002685,25.9931781 23.7518675,25.9480823 C23.4625137,25.2686316 23.1466868,24.5877562 22.8164345,23.9164698 C16.8802422,25.7593703 11.1839451,25.6267679 10.9796114,25.6186035 Z M22.4993923,14.0453659 C21.5626383,14.0453659 20.6535727,14.1629547 19.7827635,14.3803241 C19.9554458,14.6209812 22.1210025,17.6000438 24.0926879,21.3542831 C28.4428766,19.6631083 30.0849438,17.0708942 30.1133191,17.0271682 C28.0835621,15.1711719 25.4183998,14.0453659 22.4993923,14.0453659 Z M24.4611966,27.9550921 C17.6588814,30.4141748 15.4374931,35.3699319 15.4134588,35.4240302 C17.3707065,37.0024168 19.825617,37.9546889 22.4993923,37.9546889 C24.095964,37.9546889 25.6167625,37.6175937 27.0004403,37.0072387 C26.8297131,35.9626928 26.1599615,32.3013849 24.5376566,27.9291195 C24.5119762,27.9379414 24.4862958,27.9455578 24.4611966,27.9550921 Z M33.8819996,27.894873 C33.6446936,27.8155855 30.4191591,26.7566835 26.6978764,27.3753672 C28.2101148,31.6847834 28.8245426,35.1943656 28.941901,35.9148573 C31.5306034,34.103354 33.369131,31.2268117 33.8819996,27.894873 Z M25.7460101,24.8693447 C25.8310831,25.0785497 25.9141481,25.2836452 25.9952052,25.4886859 C29.9557491,24.971865 33.8576402,25.8413976 34.0244573,25.8769044 C33.9980899,23.0427729 33.0204375,20.4416821 31.4027825,18.4053025 C31.3810123,18.4373573 29.5319166,21.207982 24.9800361,23.135759 C25.2476197,23.7058949 25.5067489,24.2861677 25.7460101,24.8693447 Z" id="Oval-1" sketch:type="MSShapeGroup"></path>
        </g>
    </g>
</svg>