<?xml version="1.0" encoding="UTF-8" standalone="no"?>
<svg width="51px" height="51px" viewBox="0 0 51 51" version="1.1" xmlns="http://www.w3.org/2000/svg" xmlns:xlink="http://www.w3.org/1999/xlink" xmlns:sketch="http://www.bohemiancoding.com/sketch/ns">
    <!-- Generator: Sketch 3.2.2 (9983) - http://www.bohemiancoding.com/sketch -->
    <title>Rectangle 79 + Oval 1</title>
    <desc>Created with Sketch.</desc>
    <defs></defs>
    <g id="Page-1" stroke="none" stroke-width="1" fill="none" fill-rule="evenodd" sketch:type="MSPage">
        <path d="M3,17.5647415 C3,15.9115804 4.12122893,13.8287964 5.50226064,12.9140871 L22.4977394,1.65734146 C23.8796998,0.742017047 26.1212289,0.742632151 27.5022606,1.65734146 L44.4977394,12.9140871 C45.8796998,13.8294115 47,15.9057885 47,17.5647415 L47,33.4352585 C47,35.0884196 45.8787711,37.1712036 44.4977394,38.0859129 L27.5022606,49.3426585 C26.1203002,50.257983 23.8787711,50.2573678 22.4977394,49.3426585 L5.50226064,38.0859129 C4.12030025,37.1705885 3,35.0942115 3,33.4352585 L3,17.5647415 Z" id="Rectangle-80" stroke="#0F172C" sketch:type="MSShapeGroup"></path>
        <path d="M26.8145197,36.5 L26.8145197,25.498712 L30.0687449,25.498712 L30.5,21.7076072 L26.8145197,21.7076072 L26.8200486,19.8101227 C26.8200486,18.8213442 26.9207209,18.2915341 28.4425538,18.2915341 L30.4769629,18.2915341 L30.4769629,14.5 L27.2222769,14.5 C23.3128757,14.5 21.9368678,16.3390937 21.9368678,19.4318709 L21.9368678,21.7080366 L19.5,21.7080366 L19.5,25.4991413 L21.9368678,25.4991413 L21.9368678,36.5 L26.8145197,36.5 L26.8145197,36.5 L26.8145197,36.5 L26.8145197,36.5 Z" id="Oval-1" stroke="#0F172C" sketch:type="MSShapeGroup"></path>
    </g>
</svg>