<?xml version="1.0" encoding="UTF-8" standalone="no"?>
<svg width="591px" height="591px" viewBox="0 0 591 591" version="1.1" xmlns="http://www.w3.org/2000/svg" xmlns:xlink="http://www.w3.org/1999/xlink" xmlns:sketch="http://www.bohemiancoding.com/sketch/ns">
    <!-- Generator: Sketch 3.2.2 (9983) - http://www.bohemiancoding.com/sketch -->
    <title>Rectangle 418 + Mono-Coat (Eyroflam) + monocoat 2</title>
    <desc>Created with Sketch.</desc>
    <defs></defs>
    <g id="Page-1" stroke="none" stroke-width="1" fill="none" fill-rule="evenodd" sketch:type="MSPage">
        <g id="Group-3" sketch:type="MSLayerGroup" transform="translate(-1.000000, 167.000000)">
            <g id="Rectangle-30-+-Desktop-HD" transform="translate(370.000000, 0.000000)" stroke="#C26761" sketch:type="MSShapeGroup">
                <path d="M0,38.4197792 C0,35.6632113 1.86880464,32.179142 4.15558718,30.6502646 L45.8444128,2.77830686 C48.1394802,1.24389035 51.8688046,1.24942939 54.1555872,2.77830686 L95.8444128,30.6502646 C98.1394802,32.1846811 100,35.6641559 100,38.4197792 L100,78.5802208 C100,81.3367887 98.1311954,84.820858 95.8444128,86.3497354 L54.1555872,114.221693 C51.8605198,115.75611 48.1311954,115.750571 45.8444128,114.221693 L4.15558718,86.3497354 C1.86051976,84.8153189 0,81.3358441 0,78.5802208 L0,38.4197792 Z" id="Rectangle-30"></path>
                <g id="Desktop-HD" transform="translate(23.880597, 40.500000)">
                    <rect id="Rectangle-2" x="0" y="0" width="52.238806" height="32.1351351" rx="1"></rect>
                    <rect id="Rectangle-3" x="18.1700195" y="32.1351351" width="15.898767" height="8.03378378"></rect>
                    <rect id="Rectangle-4" x="11.3562622" y="40.1689189" width="29.5262816" height="2.2953668" rx="1"></rect>
                </g>
            </g>
            <g id="Rectangle-75-+-Imported-Layers-2-+-Imported-Layers-2">
                <g id="Rectangle-75-+-Imported-Layers-2" stroke="#0F172C" sketch:type="MSShapeGroup">
                    <path d="M0,38.4197792 C0,35.6632113 1.86880464,32.179142 4.15558718,30.6502646 L45.8444128,2.77830686 C48.1394802,1.24389035 51.8688046,1.24942939 54.1555872,2.77830686 L95.8444128,30.6502646 C98.1394802,32.1846811 100,35.6641559 100,38.4197792 L100,78.5802208 C100,81.3367887 98.1311954,84.820858 95.8444128,86.3497354 L54.1555872,114.221693 C51.8605198,115.75611 48.1311954,115.750571 45.8444128,114.221693 L4.15558718,86.3497354 C1.86051976,84.8153189 0,81.3358441 0,78.5802208 L0,38.4197792 Z" id="Rectangle-75"></path>
                </g>
                <g id="triumph" transform="translate(22.186147, 38.524390)"></g>
                <g id="Group" transform="translate(21.428571, 39.279229)" sketch:type="MSShapeGroup">
                    <path d="M28.5714286,41.7850565 L29.4047619,41.7850565 L29.4047619,27.5779139 L28.5714286,27.5779139 L28.5714286,41.7850565 Z M40.2380952,42.620771 L40.2380952,41.7850568 L18.5714286,41.7850568 L18.5714286,42.620771 L40.2380952,42.620771 Z" id="Line" fill="#0F172C"></path>
                    <path d="M45.6547615,0.835056757 L13.5714286,0.835056757 L13.5714286,0.835056757 L4.40476191,0.835056757 C-5.80789239,0.835056757 7.87626846,10.0795078 12.7784157,13.1952628 C13.0407398,16.1972196 14.993583,28.4136282 29.4047619,28.4136282 C44.2679723,28.4136282 45.8814708,15.2807761 46.051813,12.9021408 C49.9506823,10.6262213 66.0930896,0.835056757 55.2380952,0.835056757 L45.6547615,0.835056757 Z" id="Rectangle-22" stroke="#0F172C"></path>
                    <path d="M12.7380952,11.6993424 L12.7380952,0.835056757 L46.0714286,0.835056757 L46.0714286,11.6993424 C46.0714286,11.6993424 45.7480265,28.4136282 29.4047619,28.4136282 C12.9749176,28.4136282 12.7380952,11.6993424 12.7380952,11.6993424 Z M14.4047619,0.835056757 L12.7380952,0.835056752 C12.7380952,0.835056752 -7.877744,0.835056757 4.40476158,0.835056757 L14.4047619,0.835056757 Z" id="Rectangle-23" stroke="#0F172C"></path>
                </g>
            </g>
            <g id="Rectangle-75-+-Imported-Layers" transform="translate(121.000000, 0.000000)" stroke="#0F172C" sketch:type="MSShapeGroup">
                <path d="M0,38.4197792 C0,35.6632113 1.86880464,32.179142 4.15558718,30.6502646 L45.8444128,2.77830686 C48.1394802,1.24389035 51.8688046,1.24942939 54.1555872,2.77830686 L95.8444128,30.6502646 C98.1394802,32.1846811 100,35.6641559 100,38.4197792 L100,78.5802208 C100,81.3367887 98.1311954,84.820858 95.8444128,86.3497354 L54.1555872,114.221693 C51.8605198,115.75611 48.1311954,115.750571 45.8444128,114.221693 L4.15558718,86.3497354 C1.86051976,84.8153189 0,81.3358441 0,78.5802208 L0,38.4197792 Z" id="Rectangle-75"></path>
                <path d="M60.1333333,57.0291429 L65.8333333,51.3128571 L50.7539683,51.3128571 L50.7539683,51.3128571 L65.8333333,25.9071429 L39.8666667,51.948 L34.1666667,57.6642857 L50.3104575,57.6642857 L34.1666667,89.4214286 L60.1333333,57.0291429 Z" id="Rectangle-17"></path>
            </g>
            <g id="Rectangle-76-+-Rectangle-15-+-Oval-3-+-Oval-4" transform="translate(61.000000, 102.000000)" stroke="#0F172C" sketch:type="MSShapeGroup">
                <path d="M0,38.4197792 C0,35.6632113 1.86880464,32.179142 4.15558718,30.6502646 L45.8444128,2.77830686 C48.1394802,1.24389035 51.8688046,1.24942939 54.1555872,2.77830686 L95.8444128,30.6502646 C98.1394802,32.1846811 100,35.6641559 100,38.4197792 L100,78.5802208 C100,81.3367887 98.1311954,84.820858 95.8444128,86.3497354 L54.1555872,114.221693 C51.8605198,115.75611 48.1311954,115.750571 45.8444128,114.221693 L4.15558718,86.3497354 C1.86051976,84.8153189 0,81.3358441 0,78.5802208 L0,38.4197792 Z" id="Rectangle-76"></path>
                <g id="Rectangle-15-+-Oval-3-+-Oval-4" transform="translate(14.864865, 40.344828)">
                    <path d="M69.361383,19.0658629 C69.9381465,18.5430313 70.2702703,18.1551724 70.2702703,18.1551724 C70.2702703,18.1551724 53.0221136,-5.5471895e-16 35.4900355,0 C17.9579574,5.5471895e-16 0,18.1551724 0,18.1551724 C0,18.1551724 1.52916948e-06,18.1551738 4.58616234e-06,18.1551765 C0.00994971212,18.16523 17.9628143,36.3103448 35.4900355,36.3103448 C50.6451113,36.3103448 65.5880348,22.7444074 69.361383,19.0658629 Z" id="Rectangle-15"></path>
                    <ellipse id="Oval-3" cx="35.8449358" cy="18.5182759" rx="12.4215124" ry="12.7086207"></ellipse>
                    <ellipse id="Oval-4" cx="35.4900355" cy="18.1551724" rx="3.54900355" ry="3.63103448"></ellipse>
                </g>
            </g>
            <g id="Rectangle-75-+-Imported-Layers-3-+-Oval-13" transform="translate(186.000000, 103.000000)" sketch:type="MSShapeGroup">
                <g id="Rectangle-75-+-Imported-Layers-3" stroke="#0F172C">
                    <path d="M0,38.4197792 C0,35.6632113 1.86880464,32.179142 4.15558718,30.6502646 L45.8444128,2.77830686 C48.1394802,1.24389035 51.8688046,1.24942939 54.1555872,2.77830686 L95.8444128,30.6502646 C98.1394802,32.1846811 100,35.6641559 100,38.4197792 L100,78.5802208 C100,81.3367887 98.1311954,84.820858 95.8444128,86.3497354 L54.1555872,114.221693 C51.8605198,115.75611 48.1311954,115.750571 45.8444128,114.221693 L4.15558718,86.3497354 C1.86051976,84.8153189 0,81.3358441 0,78.5802208 L0,38.4197792 Z" id="Rectangle-75"></path>
                </g>
                <path d="M74.8310788,47.0733498 C70.5949976,37.1481659 60.7105101,30.1876307 49.1925523,30.1876307 C33.8151953,30.1876307 21.3493844,42.594296 21.3493844,57.8986934 L21.3493844,57.8986934 L22.6924078,57.8986934 C22.6924078,44.1247358 35.352931,31.5192012 49.1925523,31.5192012 C59.4697515,31.5192012 69.0967444,38.470443 73.3719117,47.6894532 L74.8310788,47.0733498 L74.8310788,47.0733498 Z M77.0357203,57.8986934 C77.0357203,73.2030907 64.5699094,85.6097561 49.1925523,85.6097561 C38.1640932,85.6097561 28.6332138,79.2282771 24.1244075,69.9730899 L25.540253,69.1811833 C30.0439949,77.8611561 39.3181552,84.2781856 49.1925523,84.2781856 C63.0321737,84.2781856 75.6926969,71.672651 75.6926969,57.8986934 L77.0357203,57.8986934 L77.0357203,57.8986934 Z M22.0208961,65.2883101 L19.2857143,57.8986934 L24.7560778,57.8986934 L22.0208961,65.2883101 Z M76.3642086,50.5090767 L79.0993904,57.8986934 L73.6290268,57.8986934 L76.3642086,50.5090767 Z" id="Oval-13" fill="#0F172C"></path>
            </g>
            <g id="sketch_icon" transform="translate(307.000000, 103.000000)" stroke="#C26761" sketch:type="MSShapeGroup">
                <path d="M0,38.4197792 C0,35.6632113 1.86880464,32.179142 4.15558718,30.6502646 L45.8444128,2.77830686 C48.1394802,1.24389035 51.8688046,1.24942939 54.1555872,2.77830686 L95.8444128,30.6502646 C98.1394802,32.1846811 100,35.6641559 100,38.4197792 L100,78.5802208 C100,81.3367887 98.1311954,84.820858 95.8444128,86.3497354 L54.1555872,114.221693 C51.8605198,115.75611 48.1311954,115.750571 45.8444128,114.221693 L4.15558718,86.3497354 C1.86051976,84.8153189 0,81.3358441 0,78.5802208 L0,38.4197792 Z" id="Rectangle-78"></path>
                <g id="Group" transform="translate(12.570788, 33.622071)">
                    <path d="M15.7238997,26.2203816 L57.6542991,26.2203816 L36.6890994,62.9289158 L15.7238997,26.2203816 Z" id="Rectangle-1"></path>
                    <path d="M0,15.7322289 L15.7238997,26.2203816 L36.6890994,62.9289158 L0,15.7322289 Z" id="Rectangle-2"></path>
                    <path d="M57.6542991,26.2203816 L73.3781988,15.7322289 L36.6890994,62.9289158 L57.6542991,26.2203816 Z" id="Rectangle-3"></path>
                    <path d="M23.0617196,10.4881526 L50.3164792,10.4881526 L57.6542991,26.2203816 L15.7238997,26.2203816 L23.0617196,10.4881526 Z" id="Rectangle-4"></path>
                    <path d="M10.4825998,5.24407632 L23.0617196,10.4881526 L15.7238997,26.2203816 L0,15.7322289 L10.4825998,5.24407632 Z" id="Rectangle-5"></path>
                    <path d="M50.3164792,10.4881526 L62.895599,5.24407632 L73.3781988,15.7322289 L57.6542991,26.2203816 L50.3164792,10.4881526 Z" id="Rectangle-6"></path>
                    <path d="M10.4825998,5.24407632 L20.9651997,0 L52.4129992,0 L62.895599,5.24407632 L50.3164792,10.4881526 L23.0617196,10.4881526 L10.4825998,5.24407632 Z" id="Rectangle-7"></path>
                </g>
            </g>
            <g id="Rectangle-28-+-Laptop" transform="translate(491.000000, 2.000000)" stroke="#C26761" sketch:type="MSShapeGroup">
                <path d="M0,38.4197792 C0,35.6632113 1.86880464,32.179142 4.15558718,30.6502646 L45.8444128,2.77830686 C48.1394802,1.24389035 51.8688046,1.24942939 54.1555872,2.77830686 L95.8444128,30.6502646 C98.1394802,32.1846811 100,35.6641559 100,38.4197792 L100,78.5802208 C100,81.3367887 98.1311954,84.820858 95.8444128,86.3497354 L54.1555872,114.221693 C51.8605198,115.75611 48.1311954,115.750571 45.8444128,114.221693 L4.15558718,86.3497354 C1.86051976,84.8153189 0,81.3358441 0,78.5802208 L0,38.4197792 Z" id="Rectangle-28"></path>
                <g id="Laptop" transform="translate(19.402985, 39.000000)">
                    <path d="M58.2800284,7.50195622 L58.2800284,37.5 L2.91400142,37.5 L2.91400142,7.50195622 L2.91400142,2.99608755 C2.91400142,1.34139409 4.25517404,0 5.91035038,0 L55.2836795,0 C56.9385173,0 58.2800284,1.34378672 58.2800284,2.99608755 L58.2800284,7.50195622 Z" id="Rectangle-7"></path>
                    <rect id="Rectangle-9" x="0" y="37.5" width="61.1940299" height="3" rx="1"></rect>
                    <path d="M26.9545131,38 L34.2395167,38" id="Line" stroke-width="2" stroke-linecap="square"></path>
                </g>
            </g>
            <g id="Rectangle-27-+-Smartphone" transform="translate(430.000000, 103.000000)" stroke="#C26761" sketch:type="MSShapeGroup">
                <path d="M0,38.4197792 C0,35.6632113 1.86880464,32.179142 4.15558718,30.6502646 L45.8444128,2.77830686 C48.1394802,1.24389035 51.8688046,1.24942939 54.1555872,2.77830686 L95.8444128,30.6502646 C98.1394802,32.1846811 100,35.6641559 100,38.4197792 L100,78.5802208 C100,81.3367887 98.1311954,84.820858 95.8444128,86.3497354 L54.1555872,114.221693 C51.8605198,115.75611 48.1311954,115.750571 45.8444128,114.221693 L4.15558718,86.3497354 C1.86051976,84.8153189 0,81.3358441 0,78.5802208 L0,38.4197792 Z" id="Rectangle-27"></path>
                <g id="Smartphone" transform="translate(34.328358, 27.000000)">
                    <rect id="Rectangle-5" x="0" y="0" width="29.8507463" height="61.5" rx="3"></rect>
                    <path d="M12.4378109,3.5 L17.4129353,3.5" id="Line" stroke-linecap="square"></path>
                    <path d="M0.829187396,6.5 L29.0215589,6.5" id="Line" stroke-linecap="square"></path>
                    <path d="M0.829187396,51.5 L29.0215589,51.5" id="Line-2" stroke-linecap="square"></path>
                    <ellipse id="Oval-1" cx="14.9253731" cy="56.5135135" rx="1.65837479" ry="1.66216216"></ellipse>
                </g>
            </g>
            <g id="Rectangle-29-+-iPad" transform="translate(245.000000, 0.000000)" stroke="#C26761" sketch:type="MSShapeGroup">
                <path d="M0,38.4197792 C0,35.6632113 1.86880464,32.179142 4.15558718,30.6502646 L45.8444128,2.77830686 C48.1394802,1.24389035 51.8688046,1.24942939 54.1555872,2.77830686 L95.8444128,30.6502646 C98.1394802,32.1846811 100,35.6641559 100,38.4197792 L100,78.5802208 C100,81.3367887 98.1311954,84.820858 95.8444128,86.3497354 L54.1555872,114.221693 C51.8605198,115.75611 48.1311954,115.750571 45.8444128,114.221693 L4.15558718,86.3497354 C1.86051976,84.8153189 0,81.3358441 0,78.5802208 L0,38.4197792 Z" id="Rectangle-29"></path>
                <g id="iPad" transform="translate(29.850746, 31.500000)">
                    <rect id="Rectangle-5" x="0" y="0" width="41.7910448" height="54" rx="3"></rect>
                    <rect id="Rectangle-6" x="2.78606965" y="2.76923077" width="36.2189055" height="44.3076923" rx="1"></rect>
                    <ellipse id="Oval-2" cx="20.7407407" cy="50.4823285" rx="1.39303483" ry="1.38461538"></ellipse>
                </g>
            </g>
        </g>
        <path d="M193.420664,392.803571 L188.417862,392.803571 L188.417862,417.36278 C188.417862,418.423981 188.493662,419.485181 188.569462,420.546381 C186.068061,416.37738 182.12646,414.330779 177.275258,414.330779 C168.558255,414.330779 161.584653,420.849581 161.584653,432.219585 C161.584653,443.58959 168.558255,450.411592 177.275258,450.411592 C182.12646,450.411592 186.068061,448.289191 188.569462,444.19599 C188.417862,445.56039 188.417862,447.227991 188.417862,449.653592 L193.420664,449.653592 L193.420664,392.803571 Z M177.730058,445.93939 C171.969256,445.93939 166.663254,440.405988 166.663254,432.219585 C166.663254,424.033183 171.969256,418.802981 177.730058,418.802981 C184.552061,418.802981 188.417862,424.108983 188.417862,432.371186 C188.417862,440.633388 184.552061,445.93939 177.730058,445.93939 L177.730058,445.93939 Z M234.731679,431.158385 C234.731679,422.213982 229.274077,414.179179 218.586273,414.179179 C208.277469,414.179179 201.455467,422.289782 201.455467,432.295385 C201.455467,442.300989 208.429069,450.411592 219.192673,450.411592 C227.227476,450.411592 231.320677,447.076391 234.504279,442.907389 L230.790077,439.799588 C228.667677,442.983189 224.801875,445.71199 219.192673,445.71199 C212.901271,445.71199 207.216269,441.618789 206.609869,433.811386 L234.731679,433.811386 L234.731679,431.158385 Z M218.586273,418.727181 C225.029275,418.727181 228.667677,423.123582 229.425677,429.793985 L206.685669,429.793985 C207.595269,422.592982 212.598071,418.727181 218.586273,418.727181 L218.586273,418.727181 Z M261.185888,419.333581 C259.594088,415.99838 255.804086,414.330779 252.014085,414.330779 C247.162883,414.330779 242.311681,417.43858 242.311681,423.426782 C242.311681,429.566585 248.072483,432.143785 253.075285,434.341986 C256.486286,435.857987 259.139287,437.904587 259.139287,440.709188 C259.139287,443.58959 257.016887,446.01519 252.772085,446.01519 C249.436884,446.01519 246.101683,444.04439 244.282482,440.633388 L239.73448,442.755789 C242.311681,447.682791 247.466083,450.411592 252.772085,450.411592 C260.503688,450.411592 264.369489,445.71199 264.369489,440.330188 C264.369489,434.645186 259.215087,431.688985 254.515486,429.490784 C250.801284,427.747384 247.466083,426.003983 247.466083,423.199382 C247.466083,420.243181 249.664284,418.727181 251.938285,418.727181 C254.363886,418.727181 256.107286,419.788381 256.941087,421.455982 L261.185888,419.333581 Z M278.998894,449.653592 L278.998894,415.088779 L273.692893,415.088779 L273.692893,449.653592 L278.998894,449.653592 Z M272.025292,406.220176 C272.025292,408.569977 273.996093,410.540778 276.345894,410.540778 C278.695694,410.540778 280.666495,408.569977 280.666495,406.220176 C280.666495,403.870375 278.695694,401.899575 276.345894,401.899575 C273.996093,401.899575 272.025292,403.870375 272.025292,406.220176 L272.025292,406.220176 Z M289.156098,429.718185 C289.156098,433.811386 290.747899,437.601387 293.3251,440.330188 C288.852898,443.513789 287.261097,450.411592 290.520499,454.353193 C283.698496,462.539596 289.838298,473 305.225704,473 C316.519908,473 322.50811,467.239198 322.50811,460.568796 C322.50811,455.035394 318.187508,450.638992 311.365506,450.638992 C306.286904,450.638992 301.132502,452.609793 297.645701,452.609793 C292.567099,452.609793 292.567099,445.86359 296.053901,442.528389 C298.479501,444.19599 301.511502,445.10559 304.770904,445.10559 C313.412107,445.10559 320.234109,438.283588 320.234109,429.718185 C320.234109,426.231383 319.097109,423.047782 317.126308,420.470581 L322.73551,415.164579 L319.021309,411.450378 L313.639507,417.13538 C311.138106,415.391979 308.106105,414.330779 304.770904,414.330779 C296.053901,414.330779 289.156098,421.228582 289.156098,429.718185 L289.156098,429.718185 Z M294.3105,429.718185 C294.3105,423.350982 298.631101,418.499781 304.770904,418.499781 C310.759106,418.499781 315.003907,423.275182 315.003907,429.718185 C315.003907,436.085387 310.759106,440.936589 304.770904,440.936589 C299.010102,440.936589 294.3105,436.161187 294.3105,429.718185 L294.3105,429.718185 Z M297.645701,457.157794 C303.027503,457.157794 307.272305,455.111194 311.365506,455.111194 C315.610308,455.111194 317.353708,457.915795 317.353708,460.568796 C317.353708,464.282997 313.866907,468.072998 305.225704,468.072998 C293.8557,468.072998 289.914098,460.871996 293.4767,456.399794 C294.6137,456.854594 295.978101,457.157794 297.645701,457.157794 L297.645701,457.157794 Z M361.393524,430.248785 C361.393524,419.636781 355.784322,414.330779 347.067319,414.330779 C342.064517,414.330779 337.743915,416.90798 335.166714,420.622181 C335.242515,419.560981 335.318315,418.499781 335.318315,417.36278 L335.318315,415.088779 L330.315513,415.088779 L330.315513,449.653592 L335.318315,449.653592 L335.318315,429.869785 C335.545715,423.881583 339.942116,418.802981 346.612519,418.802981 C352.373321,418.802981 356.314922,422.592982 356.314922,430.248785 L356.314922,449.653592 L361.393524,449.653592 L361.393524,430.248785 Z M402.704539,431.158385 C402.704539,422.213982 397.246937,414.179179 386.559133,414.179179 C376.250329,414.179179 369.428327,422.289782 369.428327,432.295385 C369.428327,442.300989 376.401929,450.411592 387.165533,450.411592 C395.200336,450.411592 399.293537,447.076391 402.477138,442.907389 L398.762937,439.799588 C396.640536,442.983189 392.774735,445.71199 387.165533,445.71199 C380.874131,445.71199 375.189129,441.618789 374.582729,433.811386 L402.704539,433.811386 L402.704539,431.158385 Z M386.559133,418.727181 C393.002135,418.727181 396.640536,423.123582 397.398537,429.793985 L374.658529,429.793985 C375.568129,422.592982 380.570931,418.727181 386.559133,418.727181 L386.559133,418.727181 Z M415.742143,429.869785 C415.893743,423.881583 419.456345,419.333581 425.065547,418.954581 L425.065547,414.254979 C420.820745,414.254979 417.712944,416.07418 415.666343,418.954581 C415.742143,418.423981 415.742143,417.89338 415.742143,417.36278 L415.742143,415.088779 L410.739341,415.088779 L410.739341,449.653592 L415.742143,449.653592 L415.742143,429.869785 Z" id="designer" stroke="#0F172C" opacity="0.745510728" sketch:type="MSShapeGroup"></path>
        <text id="with-code-skills" opacity="0.704640858" sketch:type="MSTextLayer" font-family="Edmondsans" font-size="24" font-weight="normal" letter-spacing="1.00000012" fill="#C26761">
            <tspan x="334" y="476">with code skill</tspan>
            <tspan x="493.048002" y="476">s</tspan>
        </text>
    </g>
</svg>