<?xml version="1.0" encoding="UTF-8" standalone="no"?>
<svg width="51px" height="51px" viewBox="0 0 51 51" version="1.1" xmlns="http://www.w3.org/2000/svg" xmlns:xlink="http://www.w3.org/1999/xlink" xmlns:sketch="http://www.bohemiancoding.com/sketch/ns">
    <!-- Generator: Sketch 3.2.2 (9983) - http://www.bohemiancoding.com/sketch -->
    <title>Rectangle 79 + Oval 1</title>
    <desc>Created with Sketch.</desc>
    <defs></defs>
    <g id="Page-1" stroke="none" stroke-width="1" fill="none" fill-rule="evenodd" sketch:type="MSPage">
        <path d="M4,17.5647415 C4,15.9115804 5.12122893,13.8287964 6.50226064,12.9140871 L23.4977394,1.65734146 C24.8796998,0.742017047 27.1212289,0.742632151 28.5022606,1.65734146 L45.4977394,12.9140871 C46.8796998,13.8294115 48,15.9057885 48,17.5647415 L48,33.4352585 C48,35.0884196 46.8787711,37.1712036 45.4977394,38.0859129 L28.5022606,49.3426585 C27.1203002,50.257983 24.8787711,50.2573678 23.4977394,49.3426585 L6.50226064,38.0859129 C5.12030025,37.1705885 4,35.0942115 4,33.4352585 L4,17.5647415 Z" id="Rectangle-82" stroke="#0F172C" sketch:type="MSShapeGroup"></path>
        <path d="M36.9513128,34.5096659 C36.9701595,34.4075385 36.9839804,34.3037693 37,34.2013135 L37,15.7986865 C36.9846086,15.6978726 36.9714159,15.5967304 36.9525693,15.496245 C36.7600194,14.4654483 35.9467868,13.6655054 34.9482288,13.5226585 C34.9067662,13.517076 34.8662459,13.5075528 34.8254116,13.5 L17.1745884,13.5 C17.0681049,13.5200314 16.9609932,13.5351371 16.8560802,13.5600942 C15.8813947,13.7922616 15.1601965,14.6128926 15.0213595,15.6453312 C15.0157055,15.6883495 15.0072245,15.7310394 15,15.7740577 L15,34.2269275 C15.0201031,34.3438321 15.0361227,34.4617219 15.0612516,34.5779697 C15.2767315,35.5742861 16.0902783,36.3466448 17.0580534,36.4766848 C17.1048559,36.4825957 17.1519725,36.4921188 17.198775,36.5 L34.801225,36.5 C34.9155613,36.4796402 35.0302117,36.4628926 35.1432916,36.4372787 C36.0416482,36.2379497 36.775725,35.454426 36.9513128,34.5096659 Z M17.380331,33.0989292 C17.380331,33.5885494 17.7858479,34.0095374 18.254187,34.0095374 C23.4169106,34.0098658 28.5793201,34.0098658 33.7420437,34.0095374 C34.2147803,34.0095374 34.6180985,33.5892062 34.6180985,33.0959737 C34.6184126,29.6962164 34.6180985,26.2967875 34.6180985,22.8973587 L34.6180985,22.8267561 L32.5179543,22.8267561 C32.8144748,23.81749 32.9055669,24.8252998 32.7893459,25.8524843 C32.6724968,26.8799971 32.3558732,27.8362507 31.8401034,28.7192747 C31.3240195,29.6032838 30.6549637,30.3355797 29.8357629,30.9184609 C27.7123745,32.4303398 24.9167892,32.5633352 22.6636731,31.2412621 C21.5247077,30.5736579 20.6304345,29.6426899 20.0069247,28.4431039 C19.0768429,26.653084 18.9282685,24.7744003 19.4738788,22.8251142 C18.7771813,22.825771 18.0833107,22.825771 17.3800168,22.825771 L17.3800168,22.8878355 C17.3800168,26.2915334 17.3797027,29.6952313 17.380331,33.0989292 Z M25.897757,29.6581239 C28.3886549,29.7139492 30.403361,27.6333095 30.4558175,25.1027841 C30.5095304,22.4931182 28.4960808,20.3376071 26.0001571,20.339249 C23.5601451,20.3376071 21.5765359,22.3900057 21.5422979,24.9293975 C21.5071175,27.5370931 23.5039192,29.604269 25.897757,29.6581239 Z M34.6177844,18.481582 C34.6180985,17.7555254 34.6180985,17.0291405 34.6177844,16.303084 C34.6177844,15.7822673 34.2235754,15.3678469 33.7260241,15.3675186 C33.03341,15.3671902 32.3407958,15.3668618 31.6478676,15.3675186 C31.1515727,15.3681753 30.7561073,15.7835808 30.7557932,16.3043975 C30.7554791,17.0242147 30.7535944,17.744032 30.7583061,18.4641776 C30.7589343,18.5715591 30.7784092,18.6832096 30.8110767,18.7850086 C30.9354645,19.1682324 31.2712489,19.4033552 31.6824198,19.4053255 C32.0166336,19.4059823 32.3508474,19.4049971 32.6853753,19.4049971 C33.0472308,19.4007282 33.4103428,19.4079526 33.7725125,19.3987579 C34.2383386,19.3866077 34.6177844,18.9692319 34.6177844,18.481582 Z" id="Oval-1" stroke="#0F172C" sketch:type="MSShapeGroup"></path>
    </g>
</svg>