<?xml version="1.0" encoding="UTF-8" standalone="no"?>
<svg width="980px" height="328px" viewBox="0 0 980 328" version="1.1" xmlns="http://www.w3.org/2000/svg" xmlns:xlink="http://www.w3.org/1999/xlink" xmlns:sketch="http://www.bohemiancoding.com/sketch/ns">
    <!-- Generator: Sketch 3.2.2 (9983) - http://www.bohemiancoding.com/sketch -->
    <title>Rectangle 420 + Group + built by + Simon 2</title>
    <desc>Created with Sketch.</desc>
    <defs></defs>
    <g id="Page-1" stroke="none" stroke-width="1" fill="none" fill-rule="evenodd" sketch:type="MSPage">
        <g id="sketch_icon" sketch:type="MSLayerGroup" transform="translate(375.624000, 81.343347)">
            <path d="M0,83.5472579 C0,80.7826527 1.86440491,77.2919398 4.15355595,75.7577097 L113.034444,2.78378762 C115.32839,1.24634417 119.052405,1.24955758 121.341556,2.78378762 L230.222444,75.7577097 C232.51639,77.2951532 234.376,80.7897533 234.376,83.5472579 L234.376,191.347983 C234.376,194.112588 232.511595,197.603301 230.222444,199.137531 L121.341556,272.111453 C119.04761,273.648897 115.323595,273.645683 113.034444,272.111453 L4.15355595,199.137531 C1.85961034,197.600088 0,194.105487 0,191.347983 L0,83.5472579 Z" id="Rectangle-78" sketch:type="MSShapeGroup"></path>
            <g id="Group" transform="translate(29.462911, 78.996131)" stroke="#0F172C" stroke-width="0.5" sketch:type="MSShapeGroup">
                <path d="M36.8530473,61.6056248 L135.12784,61.6056248 L85.9904436,147.8535 L36.8530473,61.6056248 Z" id="Rectangle-1"></path>
                <path d="M0,36.9633749 L36.8530473,61.6056248 L85.9904436,147.8535 L0,36.9633749 Z" id="Rectangle-2"></path>
                <path d="M135.12784,61.6056248 L171.980887,36.9633749 L85.9904436,147.8535 L135.12784,61.6056248 Z" id="Rectangle-3"></path>
                <path d="M54.051136,24.6422499 L117.929751,24.6422499 L135.12784,61.6056248 L36.8530473,61.6056248 L54.051136,24.6422499 Z" id="Rectangle-4"></path>
                <path d="M24.5686982,12.321125 L54.051136,24.6422499 L36.8530473,61.6056248 L0,36.9633749 L24.5686982,12.321125 Z" id="Rectangle-5"></path>
                <path d="M117.929751,24.6422499 L147.412189,12.321125 L171.980887,36.9633749 L135.12784,61.6056248 L117.929751,24.6422499 Z" id="Rectangle-6"></path>
                <path d="M24.5686982,12.321125 L49.1373964,0 L122.843491,0 L147.412189,12.321125 L117.929751,24.6422499 L54.051136,24.6422499 L24.5686982,12.321125 Z" id="Rectangle-7"></path>
            </g>
        </g>
        <path d="M93.544,67.432 C93.616,67.684 93.976,67.684 94.048,67.432 L100.672,43.096 L107.62,67.432 C107.692,67.684 108.052,67.684 108.124,67.432 L115.216,42.052 C115.252,41.944 115.216,41.872 115.108,41.836 L114.82,41.728 C114.712,41.692 114.64,41.728 114.604,41.836 L107.872,65.848 L100.924,41.512 C100.852,41.26 100.492,41.26 100.42,41.512 L93.796,65.884 L86.812,41.836 C86.776,41.728 86.704,41.692 86.596,41.728 L86.308,41.836 C86.2,41.872 86.164,41.944 86.2,42.052 L93.544,67.432 Z M117.628,60.052 L130.228,60.052 C130.3,60.052 130.408,59.98 130.444,59.908 C130.552,59.728 130.588,59.08 130.588,58.828 C130.588,54.94 127.852,52.24 124.036,52.24 C119.644,52.24 116.944,55.552 116.944,59.728 C116.944,63.976 119.644,67.36 124.036,67.36 C126.448,67.36 128.392,66.352 129.292,65.668 C129.364,65.596 129.436,65.524 129.364,65.416 L129.22,65.2 C129.184,65.128 129.076,65.056 128.932,65.164 C128.14,65.812 126.304,66.712 124.036,66.712 C120.112,66.712 117.736,63.796 117.628,60.052 L117.628,60.052 Z M117.628,59.44 C117.772,55.768 120.112,52.888 124.036,52.888 C127.42,52.888 129.94,55.3 129.94,58.828 C129.94,58.972 129.94,59.224 129.904,59.44 L117.628,59.44 Z M135.16,66.748 C135.16,66.892 135.268,67 135.412,67 L135.556,67 C135.7,67 135.808,66.892 135.808,66.748 L135.808,42.052 C135.808,41.908 135.7,41.8 135.556,41.8 L135.412,41.8 C135.268,41.8 135.16,41.908 135.16,42.052 L135.16,66.748 Z M140.524,59.728 C140.524,64.156 144.124,67.36 148.228,67.36 C151.792,67.36 154.024,64.804 154.024,64.804 C154.096,64.732 154.06,64.66 153.988,64.588 L153.808,64.408 C153.736,64.336 153.628,64.336 153.52,64.444 C153.52,64.444 151.432,66.712 148.228,66.712 C144.484,66.712 141.136,63.796 141.136,59.728 C141.136,55.732 144.376,52.888 148.228,52.888 C151.396,52.888 153.232,54.616 153.232,54.616 C153.34,54.724 153.484,54.76 153.592,54.652 L153.736,54.508 C153.808,54.436 153.844,54.328 153.736,54.22 C153.736,54.22 151.648,52.24 148.228,52.24 C144.016,52.24 140.524,55.372 140.524,59.728 L140.524,59.728 Z M157.696,59.764 C157.696,64.012 160.9,67.36 165.004,67.36 C169.108,67.36 172.312,64.012 172.312,59.764 C172.312,55.588 169.108,52.24 165.004,52.24 C160.9,52.24 157.696,55.588 157.696,59.764 L157.696,59.764 Z M158.344,59.764 C158.344,55.948 161.26,52.888 165.004,52.888 C168.748,52.888 171.664,55.948 171.664,59.764 C171.664,63.652 168.748,66.712 165.004,66.712 C161.26,66.712 158.344,63.652 158.344,59.764 L158.344,59.764 Z M177.064,66.748 C177.064,66.892 177.172,67 177.316,67 L177.46,67 C177.604,67 177.712,66.892 177.712,66.748 L177.712,55.84 C178.072,55.264 179.728,52.888 183.004,52.888 C186.172,52.888 187.936,55.012 187.936,58.936 L187.936,66.748 C187.936,66.892 188.044,67 188.188,67 L188.332,67 C188.476,67 188.584,66.892 188.584,66.748 L188.584,58.936 C188.584,57.712 188.404,56.668 188.116,55.768 C188.512,55.12 190.132,52.888 193.228,52.888 C196.504,52.888 198.268,55.012 198.268,58.936 L198.268,66.748 C198.268,66.892 198.376,67 198.52,67 L198.664,67 C198.808,67 198.916,66.892 198.916,66.748 L198.916,58.936 C198.916,54.58 196.936,52.24 193.228,52.24 C190.204,52.24 188.512,54.148 187.828,55.12 C186.964,53.248 185.272,52.24 183.004,52.24 C180.16,52.24 178.504,53.788 177.712,54.832 L177.712,52.852 C177.712,52.708 177.604,52.6 177.46,52.6 L177.316,52.6 C177.172,52.6 177.064,52.708 177.064,52.852 L177.064,66.748 Z M204.172,60.052 L216.772,60.052 C216.844,60.052 216.952,59.98 216.988,59.908 C217.096,59.728 217.132,59.08 217.132,58.828 C217.132,54.94 214.396,52.24 210.58,52.24 C206.188,52.24 203.488,55.552 203.488,59.728 C203.488,63.976 206.188,67.36 210.58,67.36 C212.992,67.36 214.936,66.352 215.836,65.668 C215.908,65.596 215.98,65.524 215.908,65.416 L215.764,65.2 C215.728,65.128 215.62,65.056 215.476,65.164 C214.684,65.812 212.848,66.712 210.58,66.712 C206.656,66.712 204.28,63.796 204.172,60.052 L204.172,60.052 Z M204.172,59.44 C204.316,55.768 206.656,52.888 210.58,52.888 C213.964,52.888 216.484,55.3 216.484,58.828 C216.484,58.972 216.484,59.224 216.448,59.44 L204.172,59.44 Z M222.316,66.532 C222.316,66.964 222.676,67.36 223.144,67.36 C223.468,67.36 223.684,67.18 223.864,67 C224.08,67.36 224.332,67.972 224.332,69.052 C224.332,71.14 222.46,72.04 222.46,72.04 C222.28,72.112 222.28,72.22 222.352,72.364 L222.46,72.58 C222.532,72.724 222.64,72.688 222.784,72.616 C222.784,72.616 225.016,71.536 225.016,69.052 C225.016,66.64 223.9,65.74 223.144,65.74 C222.676,65.74 222.316,66.1 222.316,66.532 L222.316,66.532 Z M239.74,66.748 C239.74,66.892 239.848,67 239.992,67 L240.136,67 C240.28,67 240.388,66.892 240.388,66.748 L240.388,42.052 C240.388,41.908 240.28,41.8 240.136,41.8 L239.992,41.8 C239.848,41.8 239.74,41.908 239.74,42.052 L239.74,66.748 Z M246.256,48.28 C246.328,48.424 246.436,48.388 246.58,48.316 C246.58,48.316 248.812,47.236 248.812,44.752 C248.812,42.34 247.696,41.44 246.94,41.44 C246.472,41.44 246.112,41.8 246.112,42.232 C246.112,42.664 246.472,43.06 246.94,43.06 C247.264,43.06 247.48,42.88 247.66,42.7 C247.876,43.06 248.128,43.672 248.128,44.752 C248.128,46.84 246.256,47.74 246.256,47.74 C246.076,47.812 246.076,47.92 246.148,48.064 L246.256,48.28 Z M253.276,66.748 C253.276,66.892 253.384,67 253.528,67 L253.672,67 C253.816,67 253.924,66.892 253.924,66.748 L253.924,55.84 C254.284,55.264 255.94,52.888 259.216,52.888 C262.384,52.888 264.148,55.012 264.148,58.936 L264.148,66.748 C264.148,66.892 264.256,67 264.4,67 L264.544,67 C264.688,67 264.796,66.892 264.796,66.748 L264.796,58.936 C264.796,57.712 264.616,56.668 264.328,55.768 C264.724,55.12 266.344,52.888 269.44,52.888 C272.716,52.888 274.48,55.012 274.48,58.936 L274.48,66.748 C274.48,66.892 274.588,67 274.732,67 L274.876,67 C275.02,67 275.128,66.892 275.128,66.748 L275.128,58.936 C275.128,54.58 273.148,52.24 269.44,52.24 C266.416,52.24 264.724,54.148 264.04,55.12 C263.176,53.248 261.484,52.24 259.216,52.24 C256.372,52.24 254.716,53.788 253.924,54.832 L253.924,52.852 C253.924,52.708 253.816,52.6 253.672,52.6 L253.528,52.6 C253.384,52.6 253.276,52.708 253.276,52.852 L253.276,66.748 Z M288.088,64.372 C288.556,64.804 291.472,67.36 295.756,67.36 C299.968,67.36 303.712,64.48 303.712,61.024 C303.712,56.848 300.58,55.228 295.54,53.824 C291.328,52.708 288.484,51.412 288.484,47.74 C288.484,45.112 290.464,42.088 295.684,42.088 C298.996,42.088 301.552,43.852 301.552,43.852 C301.696,43.924 301.768,43.888 301.84,43.78 L301.984,43.564 C302.056,43.456 302.02,43.348 301.912,43.276 C301.912,43.276 299.284,41.44 295.684,41.44 C290.032,41.44 287.836,44.824 287.836,47.74 C287.836,51.916 291.004,53.284 295.36,54.472 C299.932,55.696 303.064,57.1 303.064,61.024 C303.064,64.156 299.608,66.712 295.756,66.712 C291.688,66.712 289.024,64.336 288.556,63.94 C288.448,63.832 288.34,63.796 288.232,63.904 L288.088,64.048 C287.98,64.156 287.98,64.264 288.088,64.372 L288.088,64.372 Z M308.644,45.148 C309.04,45.148 309.364,44.824 309.364,44.428 C309.364,44.032 309.04,43.672 308.644,43.672 C308.212,43.672 307.924,44.032 307.924,44.428 C307.924,44.824 308.212,45.148 308.644,45.148 L308.644,45.148 Z M308.284,66.748 C308.284,66.892 308.392,67 308.536,67 L308.68,67 C308.824,67 308.932,66.892 308.932,66.748 L308.932,52.852 C308.932,52.708 308.824,52.6 308.68,52.6 L308.536,52.6 C308.392,52.6 308.284,52.708 308.284,52.852 L308.284,66.748 Z M314.764,66.748 C314.764,66.892 314.872,67 315.016,67 L315.16,67 C315.304,67 315.412,66.892 315.412,66.748 L315.412,55.84 C315.772,55.264 317.428,52.888 320.704,52.888 C323.872,52.888 325.636,55.012 325.636,58.936 L325.636,66.748 C325.636,66.892 325.744,67 325.888,67 L326.032,67 C326.176,67 326.284,66.892 326.284,66.748 L326.284,58.936 C326.284,57.712 326.104,56.668 325.816,55.768 C326.212,55.12 327.832,52.888 330.928,52.888 C334.204,52.888 335.968,55.012 335.968,58.936 L335.968,66.748 C335.968,66.892 336.076,67 336.22,67 L336.364,67 C336.508,67 336.616,66.892 336.616,66.748 L336.616,58.936 C336.616,54.58 334.636,52.24 330.928,52.24 C327.904,52.24 326.212,54.148 325.528,55.12 C324.664,53.248 322.972,52.24 320.704,52.24 C317.86,52.24 316.204,53.788 315.412,54.832 L315.412,52.852 C315.412,52.708 315.304,52.6 315.16,52.6 L315.016,52.6 C314.872,52.6 314.764,52.708 314.764,52.852 L314.764,66.748 Z M341.152,59.764 C341.152,64.012 344.356,67.36 348.46,67.36 C352.564,67.36 355.768,64.012 355.768,59.764 C355.768,55.588 352.564,52.24 348.46,52.24 C344.356,52.24 341.152,55.588 341.152,59.764 L341.152,59.764 Z M341.8,59.764 C341.8,55.948 344.716,52.888 348.46,52.888 C352.204,52.888 355.12,55.948 355.12,59.764 C355.12,63.652 352.204,66.712 348.46,66.712 C344.716,66.712 341.8,63.652 341.8,59.764 L341.8,59.764 Z M360.52,66.748 C360.52,66.892 360.628,67 360.772,67 L360.916,67 C361.06,67 361.168,66.892 361.168,66.748 L361.168,55.84 C361.456,55.444 363.58,52.888 366.784,52.888 C370.24,52.888 372.112,55.012 372.112,58.936 L372.112,66.748 C372.112,66.892 372.22,67 372.364,67 L372.508,67 C372.652,67 372.76,66.892 372.76,66.748 L372.76,58.936 C372.76,54.58 370.672,52.24 366.784,52.24 C363.976,52.24 362.068,53.86 361.168,54.832 L361.168,52.852 C361.168,52.708 361.06,52.6 360.916,52.6 L360.772,52.6 C360.628,52.6 360.52,52.708 360.52,52.852 L360.52,66.748 Z M379.168,66.532 C379.168,66.964 379.528,67.36 379.996,67.36 C380.32,67.36 380.536,67.18 380.716,67 C380.932,67.36 381.184,67.972 381.184,69.052 C381.184,71.14 379.312,72.04 379.312,72.04 C379.132,72.112 379.132,72.22 379.204,72.364 L379.312,72.58 C379.384,72.724 379.492,72.688 379.636,72.616 C379.636,72.616 381.868,71.536 381.868,69.052 C381.868,66.64 380.752,65.74 379.996,65.74 C379.528,65.74 379.168,66.1 379.168,66.532 L379.168,66.532 Z M394.252,62.5 C394.252,65.524 396.448,67.36 399.256,67.36 C401.632,67.36 403.72,66.1 404.836,65.128 L404.836,66.748 C404.836,66.892 404.944,67 405.088,67 L405.232,67 C405.376,67 405.484,66.892 405.484,66.748 L405.484,57.064 C405.484,53.788 404.368,52.24 400.84,52.24 C397.888,52.24 396.088,53.428 396.088,53.428 C396.016,53.464 395.908,53.536 396.016,53.716 L396.124,53.896 C396.196,54.004 396.268,54.076 396.448,53.968 C396.448,53.968 398.104,52.888 400.84,52.888 C403.9,52.888 404.836,54.22 404.836,57.064 L404.836,58.396 C404.044,58.108 402.352,57.568 400.588,57.568 C396.772,57.568 394.252,59.656 394.252,62.5 L394.252,62.5 Z M394.9,62.5 C394.9,60.016 397.132,58.216 400.588,58.216 C402.496,58.216 404.332,58.9 404.836,59.044 L404.836,64.228 C404.116,65.128 401.884,66.712 399.256,66.712 C396.808,66.712 394.9,65.164 394.9,62.5 L394.9,62.5 Z M417.796,59.764 C417.796,64.012 420.892,67.36 424.672,67.36 C427.516,67.36 429.208,65.992 430.072,65.02 L430.072,66.748 C430.072,66.892 430.18,67 430.324,67 L430.468,67 C430.576,67 430.684,66.892 430.684,66.748 L430.684,42.052 C430.684,41.908 430.576,41.8 430.468,41.8 L430.324,41.8 C430.18,41.8 430.072,41.908 430.072,42.052 L430.072,54.292 C430.072,54.292 427.984,52.24 424.888,52.24 C420.676,52.24 417.796,55.444 417.796,59.764 L417.796,59.764 Z M418.408,59.764 C418.408,55.804 421.036,52.888 424.888,52.888 C428.128,52.888 430.072,55.228 430.072,55.228 L430.072,64.012 C429.928,64.264 428.308,66.712 424.672,66.712 C421.252,66.712 418.408,63.652 418.408,59.764 L418.408,59.764 Z M436.156,60.052 L448.756,60.052 C448.828,60.052 448.936,59.98 448.972,59.908 C449.08,59.728 449.116,59.08 449.116,58.828 C449.116,54.94 446.38,52.24 442.564,52.24 C438.172,52.24 435.472,55.552 435.472,59.728 C435.472,63.976 438.172,67.36 442.564,67.36 C444.976,67.36 446.92,66.352 447.82,65.668 C447.892,65.596 447.964,65.524 447.892,65.416 L447.748,65.2 C447.712,65.128 447.604,65.056 447.46,65.164 C446.668,65.812 444.832,66.712 442.564,66.712 C438.64,66.712 436.264,63.796 436.156,60.052 L436.156,60.052 Z M436.156,59.44 C436.3,55.768 438.64,52.888 442.564,52.888 C445.948,52.888 448.468,55.3 448.468,58.828 C448.468,58.972 448.468,59.224 448.432,59.44 L436.156,59.44 Z M452.968,65.74 C453.76,66.352 455.236,67.36 457.72,67.36 C460.636,67.36 462.976,65.632 462.976,63.4 C462.976,60.772 460.42,60.052 457.54,59.224 C454.768,58.432 453.328,57.64 453.328,55.948 C453.328,54.616 454.552,52.888 457.504,52.888 C459.232,52.888 460.564,53.5 461.248,53.932 C461.428,54.04 461.5,53.968 461.572,53.86 L461.68,53.68 C461.752,53.572 461.716,53.464 461.608,53.392 C460.888,52.924 459.448,52.24 457.504,52.24 C454.12,52.24 452.644,54.328 452.644,55.948 C452.644,57.964 454.192,58.936 457.396,59.836 C460.096,60.592 462.256,61.348 462.256,63.4 C462.256,65.272 460.312,66.712 457.72,66.712 C455.488,66.712 454.084,65.812 453.364,65.236 C453.22,65.128 453.112,65.128 453.04,65.236 L452.86,65.488 C452.824,65.596 452.86,65.668 452.968,65.74 L452.968,65.74 Z M467.764,45.148 C468.16,45.148 468.484,44.824 468.484,44.428 C468.484,44.032 468.16,43.672 467.764,43.672 C467.332,43.672 467.044,44.032 467.044,44.428 C467.044,44.824 467.332,45.148 467.764,45.148 L467.764,45.148 Z M467.404,66.748 C467.404,66.892 467.512,67 467.656,67 L467.8,67 C467.944,67 468.052,66.892 468.052,66.748 L468.052,52.852 C468.052,52.708 467.944,52.6 467.8,52.6 L467.656,52.6 C467.512,52.6 467.404,52.708 467.404,52.852 L467.404,66.748 Z M472.408,65.2 C472.408,67.072 473.92,68.224 475.36,68.26 C474.208,68.98 472.912,70.384 472.912,72.472 C472.912,74.956 475.108,78.16 480.04,78.16 C484.468,78.16 487.312,75.352 487.312,72.256 C487.312,68.98 485.188,67.648 482.056,67.648 L475.432,67.648 C474.244,67.648 473.056,66.748 473.056,65.2 C473.056,63.292 474.604,62.428 475.144,62.176 C476.08,63.184 477.556,63.868 479.608,63.868 C483.208,63.868 485.512,61.168 485.512,58.036 C485.512,54.904 484,53.608 482.632,52.888 L485.908,52.888 C486.052,52.888 486.16,52.78 486.16,52.636 L486.16,52.492 C486.16,52.348 486.052,52.24 485.908,52.24 L480.76,52.24 L480.724,52.24 L479.608,52.24 C475.936,52.24 473.632,54.868 473.632,58.036 C473.632,59.368 473.956,60.664 474.712,61.672 C473.92,62.068 472.408,63.112 472.408,65.2 L472.408,65.2 Z M479.608,63.22 C475.792,63.22 474.28,60.736 474.28,58.036 C474.28,55.228 476.296,52.888 479.608,52.888 L480.688,52.888 C480.688,52.888 484.864,53.176 484.864,58.036 C484.864,60.808 482.848,63.22 479.608,63.22 L479.608,63.22 Z M473.56,72.472 C473.56,69.664 476.26,68.332 476.944,68.26 L482.056,68.26 C484.828,68.26 486.664,69.412 486.664,72.256 C486.664,75.028 484.144,77.512 480.04,77.512 C475.504,77.512 473.56,74.668 473.56,72.472 L473.56,72.472 Z M490.588,66.748 C490.588,66.892 490.696,67 490.84,67 L490.984,67 C491.128,67 491.236,66.892 491.236,66.748 L491.236,55.84 C491.524,55.444 493.648,52.888 496.852,52.888 C500.308,52.888 502.18,55.012 502.18,58.936 L502.18,66.748 C502.18,66.892 502.288,67 502.432,67 L502.576,67 C502.72,67 502.828,66.892 502.828,66.748 L502.828,58.936 C502.828,54.58 500.74,52.24 496.852,52.24 C494.044,52.24 492.136,53.86 491.236,54.832 L491.236,52.852 C491.236,52.708 491.128,52.6 490.984,52.6 L490.84,52.6 C490.696,52.6 490.588,52.708 490.588,52.852 L490.588,66.748 Z M508.084,60.052 L520.684,60.052 C520.756,60.052 520.864,59.98 520.9,59.908 C521.008,59.728 521.044,59.08 521.044,58.828 C521.044,54.94 518.308,52.24 514.492,52.24 C510.1,52.24 507.4,55.552 507.4,59.728 C507.4,63.976 510.1,67.36 514.492,67.36 C516.904,67.36 518.848,66.352 519.748,65.668 C519.82,65.596 519.892,65.524 519.82,65.416 L519.676,65.2 C519.64,65.128 519.532,65.056 519.388,65.164 C518.596,65.812 516.76,66.712 514.492,66.712 C510.568,66.712 508.192,63.796 508.084,60.052 L508.084,60.052 Z M508.084,59.44 C508.228,55.768 510.568,52.888 514.492,52.888 C517.876,52.888 520.396,55.3 520.396,58.828 C520.396,58.972 520.396,59.224 520.36,59.44 L508.084,59.44 Z M525.616,66.748 C525.616,66.892 525.724,67 525.868,67 L526.012,67 C526.156,67 526.264,66.892 526.264,66.748 L526.264,55.84 C526.516,55.408 528.064,52.888 530.944,52.888 C532.42,52.888 533.248,53.464 533.248,53.464 C533.392,53.536 533.536,53.464 533.572,53.392 L533.68,53.212 C533.752,53.104 533.716,52.96 533.608,52.888 C533.608,52.888 532.708,52.24 530.944,52.24 C528.568,52.24 526.984,53.752 526.264,54.76 L526.264,52.852 C526.264,52.708 526.156,52.6 526.012,52.6 L525.868,52.6 C525.724,52.6 525.616,52.708 525.616,52.852 L525.616,66.748 Z M547.612,67.432 C547.684,67.684 548.044,67.684 548.116,67.432 L552.4,53.5 L556.684,67.432 C556.756,67.684 557.116,67.684 557.188,67.432 L562.012,52.744 C562.048,52.6 562.084,52.528 561.904,52.456 L561.688,52.384 C561.544,52.348 561.472,52.384 561.436,52.492 L556.936,66.028 L552.652,52.06 C552.58,51.808 552.22,51.808 552.148,52.06 L547.864,66.028 L543.364,52.492 C543.328,52.384 543.256,52.348 543.112,52.384 L542.896,52.456 C542.716,52.528 542.752,52.6 542.788,52.744 L547.612,67.432 Z M566.404,45.148 C566.8,45.148 567.124,44.824 567.124,44.428 C567.124,44.032 566.8,43.672 566.404,43.672 C565.972,43.672 565.684,44.032 565.684,44.428 C565.684,44.824 565.972,45.148 566.404,45.148 L566.404,45.148 Z M566.044,66.748 C566.044,66.892 566.152,67 566.296,67 L566.44,67 C566.584,67 566.692,66.892 566.692,66.748 L566.692,52.852 C566.692,52.708 566.584,52.6 566.44,52.6 L566.296,52.6 C566.152,52.6 566.044,52.708 566.044,52.852 L566.044,66.748 Z M572.74,63.148 C572.74,65.524 572.812,67.36 575.944,67.36 C577.708,67.36 579.688,66.424 580.156,66.1 C580.228,66.028 580.264,65.956 580.228,65.848 L580.12,65.632 C580.084,65.524 579.976,65.452 579.832,65.56 C579.364,65.884 577.492,66.712 575.944,66.712 C573.424,66.712 573.352,65.164 573.352,63.148 L573.352,53.248 L579.22,53.248 C579.364,53.248 579.472,53.14 579.472,52.996 L579.472,52.852 C579.472,52.708 579.364,52.6 579.22,52.6 L573.352,52.6 L573.352,48.712 C573.352,48.568 573.244,48.46 573.1,48.46 L572.956,48.46 C572.848,48.46 572.74,48.568 572.74,48.712 L572.74,52.6 L571.228,52.6 C571.12,52.6 571.012,52.708 571.012,52.852 L571.012,52.996 C571.012,53.14 571.12,53.248 571.228,53.248 L572.74,53.248 L572.74,63.148 Z M583.864,66.748 C583.864,66.892 583.972,67 584.116,67 L584.26,67 C584.404,67 584.512,66.892 584.512,66.748 L584.512,55.948 C584.8,55.552 586.924,52.888 590.128,52.888 C593.584,52.888 595.456,55.012 595.456,58.936 L595.456,66.748 C595.456,66.892 595.564,67 595.708,67 L595.852,67 C595.996,67 596.104,66.892 596.104,66.748 L596.104,58.936 C596.104,54.58 594.016,52.24 590.128,52.24 C587.32,52.24 585.412,53.968 584.512,54.94 L584.512,42.052 C584.512,41.908 584.404,41.8 584.26,41.8 L584.116,41.8 C583.972,41.8 583.864,41.908 583.864,42.052 L583.864,66.748 Z M608.272,59.728 C608.272,64.156 611.872,67.36 615.976,67.36 C619.54,67.36 621.772,64.804 621.772,64.804 C621.844,64.732 621.808,64.66 621.736,64.588 L621.556,64.408 C621.484,64.336 621.376,64.336 621.268,64.444 C621.268,64.444 619.18,66.712 615.976,66.712 C612.232,66.712 608.884,63.796 608.884,59.728 C608.884,55.732 612.124,52.888 615.976,52.888 C619.144,52.888 620.98,54.616 620.98,54.616 C621.088,54.724 621.232,54.76 621.34,54.652 L621.484,54.508 C621.556,54.436 621.592,54.328 621.484,54.22 C621.484,54.22 619.396,52.24 615.976,52.24 C611.764,52.24 608.272,55.372 608.272,59.728 L608.272,59.728 Z M625.444,59.764 C625.444,64.012 628.648,67.36 632.752,67.36 C636.856,67.36 640.06,64.012 640.06,59.764 C640.06,55.588 636.856,52.24 632.752,52.24 C628.648,52.24 625.444,55.588 625.444,59.764 L625.444,59.764 Z M626.092,59.764 C626.092,55.948 629.008,52.888 632.752,52.888 C636.496,52.888 639.412,55.948 639.412,59.764 C639.412,63.652 636.496,66.712 632.752,66.712 C629.008,66.712 626.092,63.652 626.092,59.764 L626.092,59.764 Z M643.768,59.764 C643.768,64.012 646.864,67.36 650.644,67.36 C653.488,67.36 655.18,65.992 656.044,65.02 L656.044,66.748 C656.044,66.892 656.152,67 656.296,67 L656.44,67 C656.548,67 656.656,66.892 656.656,66.748 L656.656,42.052 C656.656,41.908 656.548,41.8 656.44,41.8 L656.296,41.8 C656.152,41.8 656.044,41.908 656.044,42.052 L656.044,54.292 C656.044,54.292 653.956,52.24 650.86,52.24 C646.648,52.24 643.768,55.444 643.768,59.764 L643.768,59.764 Z M644.38,59.764 C644.38,55.804 647.008,52.888 650.86,52.888 C654.1,52.888 656.044,55.228 656.044,55.228 L656.044,64.012 C655.9,64.264 654.28,66.712 650.644,66.712 C647.224,66.712 644.38,63.652 644.38,59.764 L644.38,59.764 Z M662.128,60.052 L674.728,60.052 C674.8,60.052 674.908,59.98 674.944,59.908 C675.052,59.728 675.088,59.08 675.088,58.828 C675.088,54.94 672.352,52.24 668.536,52.24 C664.144,52.24 661.444,55.552 661.444,59.728 C661.444,63.976 664.144,67.36 668.536,67.36 C670.948,67.36 672.892,66.352 673.792,65.668 C673.864,65.596 673.936,65.524 673.864,65.416 L673.72,65.2 C673.684,65.128 673.576,65.056 673.432,65.164 C672.64,65.812 670.804,66.712 668.536,66.712 C664.612,66.712 662.236,63.796 662.128,60.052 L662.128,60.052 Z M662.128,59.44 C662.272,55.768 664.612,52.888 668.536,52.888 C671.92,52.888 674.44,55.3 674.44,58.828 C674.44,58.972 674.44,59.224 674.404,59.44 L662.128,59.44 Z M686.608,65.74 C687.4,66.352 688.876,67.36 691.36,67.36 C694.276,67.36 696.616,65.632 696.616,63.4 C696.616,60.772 694.06,60.052 691.18,59.224 C688.408,58.432 686.968,57.64 686.968,55.948 C686.968,54.616 688.192,52.888 691.144,52.888 C692.872,52.888 694.204,53.5 694.888,53.932 C695.068,54.04 695.14,53.968 695.212,53.86 L695.32,53.68 C695.392,53.572 695.356,53.464 695.248,53.392 C694.528,52.924 693.088,52.24 691.144,52.24 C687.76,52.24 686.284,54.328 686.284,55.948 C686.284,57.964 687.832,58.936 691.036,59.836 C693.736,60.592 695.896,61.348 695.896,63.4 C695.896,65.272 693.952,66.712 691.36,66.712 C689.128,66.712 687.724,65.812 687.004,65.236 C686.86,65.128 686.752,65.128 686.68,65.236 L686.5,65.488 C686.464,65.596 686.5,65.668 686.608,65.74 L686.608,65.74 Z M701.044,66.748 C701.044,66.892 701.152,67 701.296,67 L701.44,67 C701.584,67 701.692,66.892 701.692,66.748 L701.692,59.296 L711.628,67.144 C711.7,67.216 711.808,67.216 711.88,67.108 L712.06,66.892 C712.168,66.784 712.132,66.676 712.024,66.568 L702.376,59.008 L711.448,52.996 C711.556,52.924 711.592,52.816 711.52,52.708 L711.376,52.456 C711.304,52.348 711.196,52.348 711.088,52.42 L701.692,58.684 L701.692,42.052 C701.692,41.908 701.584,41.8 701.44,41.8 L701.296,41.8 C701.152,41.8 701.044,41.908 701.044,42.052 L701.044,66.748 Z M716.272,45.148 C716.668,45.148 716.992,44.824 716.992,44.428 C716.992,44.032 716.668,43.672 716.272,43.672 C715.84,43.672 715.552,44.032 715.552,44.428 C715.552,44.824 715.84,45.148 716.272,45.148 L716.272,45.148 Z M715.912,66.748 C715.912,66.892 716.02,67 716.164,67 L716.308,67 C716.452,67 716.56,66.892 716.56,66.748 L716.56,52.852 C716.56,52.708 716.452,52.6 716.308,52.6 L716.164,52.6 C716.02,52.6 715.912,52.708 715.912,52.852 L715.912,66.748 Z M722.392,66.748 C722.392,66.892 722.5,67 722.644,67 L722.788,67 C722.932,67 723.04,66.892 723.04,66.748 L723.04,42.052 C723.04,41.908 722.932,41.8 722.788,41.8 L722.644,41.8 C722.5,41.8 722.392,41.908 722.392,42.052 L722.392,66.748 Z M728.872,66.748 C728.872,66.892 728.98,67 729.124,67 L729.268,67 C729.412,67 729.52,66.892 729.52,66.748 L729.52,42.052 C729.52,41.908 729.412,41.8 729.268,41.8 L729.124,41.8 C728.98,41.8 728.872,41.908 728.872,42.052 L728.872,66.748 Z M734.632,65.74 C735.424,66.352 736.9,67.36 739.384,67.36 C742.3,67.36 744.64,65.632 744.64,63.4 C744.64,60.772 742.084,60.052 739.204,59.224 C736.432,58.432 734.992,57.64 734.992,55.948 C734.992,54.616 736.216,52.888 739.168,52.888 C740.896,52.888 742.228,53.5 742.912,53.932 C743.092,54.04 743.164,53.968 743.236,53.86 L743.344,53.68 C743.416,53.572 743.38,53.464 743.272,53.392 C742.552,52.924 741.112,52.24 739.168,52.24 C735.784,52.24 734.308,54.328 734.308,55.948 C734.308,57.964 735.856,58.936 739.06,59.836 C741.76,60.592 743.92,61.348 743.92,63.4 C743.92,65.272 741.976,66.712 739.384,66.712 C737.152,66.712 735.748,65.812 735.028,65.236 C734.884,65.128 734.776,65.128 734.704,65.236 L734.524,65.488 C734.488,65.596 734.524,65.668 734.632,65.74 L734.632,65.74 Z M749.86,66.532 C749.86,66.964 750.22,67.36 750.688,67.36 C751.012,67.36 751.228,67.18 751.408,67 C751.624,67.36 751.876,67.972 751.876,69.052 C751.876,71.14 750.004,72.04 750.004,72.04 C749.824,72.112 749.824,72.22 749.896,72.364 L750.004,72.58 C750.076,72.724 750.184,72.688 750.328,72.616 C750.328,72.616 752.56,71.536 752.56,69.052 C752.56,66.64 751.444,65.74 750.688,65.74 C750.22,65.74 749.86,66.1 749.86,66.532 L749.86,66.532 Z M765.124,59.764 C765.124,64.012 768.22,67.36 772,67.36 C774.844,67.36 776.536,65.992 777.4,65.02 L777.4,66.748 C777.4,66.892 777.508,67 777.652,67 L777.796,67 C777.904,67 778.012,66.892 778.012,66.748 L778.012,42.052 C778.012,41.908 777.904,41.8 777.796,41.8 L777.652,41.8 C777.508,41.8 777.4,41.908 777.4,42.052 L777.4,54.292 C777.4,54.292 775.312,52.24 772.216,52.24 C768.004,52.24 765.124,55.444 765.124,59.764 L765.124,59.764 Z M765.736,59.764 C765.736,55.804 768.364,52.888 772.216,52.888 C775.456,52.888 777.4,55.228 777.4,55.228 L777.4,64.012 C777.256,64.264 775.636,66.712 772,66.712 C768.58,66.712 765.736,63.652 765.736,59.764 L765.736,59.764 Z M783.484,60.052 L796.084,60.052 C796.156,60.052 796.264,59.98 796.3,59.908 C796.408,59.728 796.444,59.08 796.444,58.828 C796.444,54.94 793.708,52.24 789.892,52.24 C785.5,52.24 782.8,55.552 782.8,59.728 C782.8,63.976 785.5,67.36 789.892,67.36 C792.304,67.36 794.248,66.352 795.148,65.668 C795.22,65.596 795.292,65.524 795.22,65.416 L795.076,65.2 C795.04,65.128 794.932,65.056 794.788,65.164 C793.996,65.812 792.16,66.712 789.892,66.712 C785.968,66.712 783.592,63.796 783.484,60.052 L783.484,60.052 Z M783.484,59.44 C783.628,55.768 785.968,52.888 789.892,52.888 C793.276,52.888 795.796,55.3 795.796,58.828 C795.796,58.972 795.796,59.224 795.76,59.44 L783.484,59.44 Z M799.972,59.764 C799.972,64.012 803.068,67.36 806.848,67.36 C809.692,67.36 811.384,65.992 812.248,65.02 L812.248,66.748 C812.248,66.892 812.356,67 812.5,67 L812.644,67 C812.752,67 812.86,66.892 812.86,66.748 L812.86,42.052 C812.86,41.908 812.752,41.8 812.644,41.8 L812.5,41.8 C812.356,41.8 812.248,41.908 812.248,42.052 L812.248,54.292 C812.248,54.292 810.16,52.24 807.064,52.24 C802.852,52.24 799.972,55.444 799.972,59.764 L799.972,59.764 Z M800.584,59.764 C800.584,55.804 803.212,52.888 807.064,52.888 C810.304,52.888 812.248,55.228 812.248,55.228 L812.248,64.012 C812.104,64.264 810.484,66.712 806.848,66.712 C803.428,66.712 800.584,63.652 800.584,59.764 L800.584,59.764 Z M819.052,45.148 C819.448,45.148 819.772,44.824 819.772,44.428 C819.772,44.032 819.448,43.672 819.052,43.672 C818.62,43.672 818.332,44.032 818.332,44.428 C818.332,44.824 818.62,45.148 819.052,45.148 L819.052,45.148 Z M818.692,66.748 C818.692,66.892 818.8,67 818.944,67 L819.088,67 C819.232,67 819.34,66.892 819.34,66.748 L819.34,52.852 C819.34,52.708 819.232,52.6 819.088,52.6 L818.944,52.6 C818.8,52.6 818.692,52.708 818.692,52.852 L818.692,66.748 Z M824.056,59.728 C824.056,64.156 827.656,67.36 831.76,67.36 C835.324,67.36 837.556,64.804 837.556,64.804 C837.628,64.732 837.592,64.66 837.52,64.588 L837.34,64.408 C837.268,64.336 837.16,64.336 837.052,64.444 C837.052,64.444 834.964,66.712 831.76,66.712 C828.016,66.712 824.668,63.796 824.668,59.728 C824.668,55.732 827.908,52.888 831.76,52.888 C834.928,52.888 836.764,54.616 836.764,54.616 C836.872,54.724 837.016,54.76 837.124,54.652 L837.268,54.508 C837.34,54.436 837.376,54.328 837.268,54.22 C837.268,54.22 835.18,52.24 831.76,52.24 C827.548,52.24 824.056,55.372 824.056,59.728 L824.056,59.728 Z M841.084,62.5 C841.084,65.524 843.28,67.36 846.088,67.36 C848.464,67.36 850.552,66.1 851.668,65.128 L851.668,66.748 C851.668,66.892 851.776,67 851.92,67 L852.064,67 C852.208,67 852.316,66.892 852.316,66.748 L852.316,57.064 C852.316,53.788 851.2,52.24 847.672,52.24 C844.72,52.24 842.92,53.428 842.92,53.428 C842.848,53.464 842.74,53.536 842.848,53.716 L842.956,53.896 C843.028,54.004 843.1,54.076 843.28,53.968 C843.28,53.968 844.936,52.888 847.672,52.888 C850.732,52.888 851.668,54.22 851.668,57.064 L851.668,58.396 C850.876,58.108 849.184,57.568 847.42,57.568 C843.604,57.568 841.084,59.656 841.084,62.5 L841.084,62.5 Z M841.732,62.5 C841.732,60.016 843.964,58.216 847.42,58.216 C849.328,58.216 851.164,58.9 851.668,59.044 L851.668,64.228 C850.948,65.128 848.716,66.712 846.088,66.712 C843.64,66.712 841.732,65.164 841.732,62.5 L841.732,62.5 Z M858.22,63.148 C858.22,65.524 858.292,67.36 861.424,67.36 C863.188,67.36 865.168,66.424 865.636,66.1 C865.708,66.028 865.744,65.956 865.708,65.848 L865.6,65.632 C865.564,65.524 865.456,65.452 865.312,65.56 C864.844,65.884 862.972,66.712 861.424,66.712 C858.904,66.712 858.832,65.164 858.832,63.148 L858.832,53.248 L864.7,53.248 C864.844,53.248 864.952,53.14 864.952,52.996 L864.952,52.852 C864.952,52.708 864.844,52.6 864.7,52.6 L858.832,52.6 L858.832,48.712 C858.832,48.568 858.724,48.46 858.58,48.46 L858.436,48.46 C858.328,48.46 858.22,48.568 858.22,48.712 L858.22,52.6 L856.708,52.6 C856.6,52.6 856.492,52.708 856.492,52.852 L856.492,52.996 C856.492,53.14 856.6,53.248 856.708,53.248 L858.22,53.248 L858.22,63.148 Z M868.984,60.052 L881.584,60.052 C881.656,60.052 881.764,59.98 881.8,59.908 C881.908,59.728 881.944,59.08 881.944,58.828 C881.944,54.94 879.208,52.24 875.392,52.24 C871,52.24 868.3,55.552 868.3,59.728 C868.3,63.976 871,67.36 875.392,67.36 C877.804,67.36 879.748,66.352 880.648,65.668 C880.72,65.596 880.792,65.524 880.72,65.416 L880.576,65.2 C880.54,65.128 880.432,65.056 880.288,65.164 C879.496,65.812 877.66,66.712 875.392,66.712 C871.468,66.712 869.092,63.796 868.984,60.052 L868.984,60.052 Z M868.984,59.44 C869.128,55.768 871.468,52.888 875.392,52.888 C878.776,52.888 881.296,55.3 881.296,58.828 C881.296,58.972 881.296,59.224 881.26,59.44 L868.984,59.44 Z M885.472,59.764 C885.472,64.012 888.568,67.36 892.348,67.36 C895.192,67.36 896.884,65.992 897.748,65.02 L897.748,66.748 C897.748,66.892 897.856,67 898,67 L898.144,67 C898.252,67 898.36,66.892 898.36,66.748 L898.36,42.052 C898.36,41.908 898.252,41.8 898.144,41.8 L898,41.8 C897.856,41.8 897.748,41.908 897.748,42.052 L897.748,54.292 C897.748,54.292 895.66,52.24 892.564,52.24 C888.352,52.24 885.472,55.444 885.472,59.764 L885.472,59.764 Z M886.084,59.764 C886.084,55.804 888.712,52.888 892.564,52.888 C895.804,52.888 897.748,55.228 897.748,55.228 L897.748,64.012 C897.604,64.264 895.984,66.712 892.348,66.712 C888.928,66.712 886.084,63.652 886.084,59.764 L886.084,59.764 Z M301.894,115.148 C301.894,117.524 301.966,119.36 305.098,119.36 C306.862,119.36 308.842,118.424 309.31,118.1 C309.382,118.028 309.418,117.956 309.382,117.848 L309.274,117.632 C309.238,117.524 309.13,117.452 308.986,117.56 C308.518,117.884 306.646,118.712 305.098,118.712 C302.578,118.712 302.506,117.164 302.506,115.148 L302.506,105.248 L308.374,105.248 C308.518,105.248 308.626,105.14 308.626,104.996 L308.626,104.852 C308.626,104.708 308.518,104.6 308.374,104.6 L302.506,104.6 L302.506,100.712 C302.506,100.568 302.398,100.46 302.254,100.46 L302.11,100.46 C302.002,100.46 301.894,100.568 301.894,100.712 L301.894,104.6 L300.382,104.6 C300.274,104.6 300.166,104.708 300.166,104.852 L300.166,104.996 C300.166,105.14 300.274,105.248 300.382,105.248 L301.894,105.248 L301.894,115.148 Z M311.938,111.764 C311.938,116.012 315.142,119.36 319.246,119.36 C323.35,119.36 326.554,116.012 326.554,111.764 C326.554,107.588 323.35,104.24 319.246,104.24 C315.142,104.24 311.938,107.588 311.938,111.764 L311.938,111.764 Z M312.586,111.764 C312.586,107.948 315.502,104.888 319.246,104.888 C322.99,104.888 325.906,107.948 325.906,111.764 C325.906,115.652 322.99,118.712 319.246,118.712 C315.502,118.712 312.586,115.652 312.586,111.764 L312.586,111.764 Z M339.622,118.748 C339.622,118.892 339.73,119 339.874,119 L340.018,119 C340.162,119 340.27,118.892 340.27,118.748 L340.27,105.248 L346.786,105.248 C346.93,105.248 347.038,105.14 347.038,104.996 L347.038,104.852 C347.038,104.708 346.93,104.6 346.786,104.6 L340.27,104.6 L340.27,99.776 C340.27,95.888 342.142,94.088 344.986,94.088 C346.822,94.088 348.01,94.88 348.622,95.456 C348.73,95.564 348.874,95.564 348.982,95.456 L349.09,95.348 C349.198,95.24 349.198,95.096 349.09,94.988 C348.406,94.34 347.002,93.44 344.986,93.44 C341.782,93.44 339.622,95.456 339.622,99.776 L339.622,104.6 L337.462,104.6 C337.318,104.6 337.21,104.708 337.21,104.852 L337.21,104.996 C337.21,105.14 337.318,105.248 337.462,105.248 L339.622,105.248 L339.622,118.748 Z M349.81,118.748 C349.81,118.892 349.918,119 350.062,119 L350.206,119 C350.35,119 350.458,118.892 350.458,118.748 L350.458,107.84 C350.71,107.408 352.258,104.888 355.138,104.888 C356.614,104.888 357.442,105.464 357.442,105.464 C357.586,105.536 357.73,105.464 357.766,105.392 L357.874,105.212 C357.946,105.104 357.91,104.96 357.802,104.888 C357.802,104.888 356.902,104.24 355.138,104.24 C352.762,104.24 351.178,105.752 350.458,106.76 L350.458,104.852 C350.458,104.708 350.35,104.6 350.206,104.6 L350.062,104.6 C349.918,104.6 349.81,104.708 349.81,104.852 L349.81,118.748 Z M360.646,112.052 L373.246,112.052 C373.318,112.052 373.426,111.98 373.462,111.908 C373.57,111.728 373.606,111.08 373.606,110.828 C373.606,106.94 370.87,104.24 367.054,104.24 C362.662,104.24 359.962,107.552 359.962,111.728 C359.962,115.976 362.662,119.36 367.054,119.36 C369.466,119.36 371.41,118.352 372.31,117.668 C372.382,117.596 372.454,117.524 372.382,117.416 L372.238,117.2 C372.202,117.128 372.094,117.056 371.95,117.164 C371.158,117.812 369.322,118.712 367.054,118.712 C363.13,118.712 360.754,115.796 360.646,112.052 L360.646,112.052 Z M360.646,111.44 C360.79,107.768 363.13,104.888 367.054,104.888 C370.438,104.888 372.958,107.3 372.958,110.828 C372.958,110.972 372.958,111.224 372.922,111.44 L360.646,111.44 Z M377.458,117.74 C378.25,118.352 379.726,119.36 382.21,119.36 C385.126,119.36 387.466,117.632 387.466,115.4 C387.466,112.772 384.91,112.052 382.03,111.224 C379.258,110.432 377.818,109.64 377.818,107.948 C377.818,106.616 379.042,104.888 381.994,104.888 C383.722,104.888 385.054,105.5 385.738,105.932 C385.918,106.04 385.99,105.968 386.062,105.86 L386.17,105.68 C386.242,105.572 386.206,105.464 386.098,105.392 C385.378,104.924 383.938,104.24 381.994,104.24 C378.61,104.24 377.134,106.328 377.134,107.948 C377.134,109.964 378.682,110.936 381.886,111.836 C384.586,112.592 386.746,113.348 386.746,115.4 C386.746,117.272 384.802,118.712 382.21,118.712 C379.978,118.712 378.574,117.812 377.854,117.236 C377.71,117.128 377.602,117.128 377.53,117.236 L377.35,117.488 C377.314,117.596 377.35,117.668 377.458,117.74 L377.458,117.74 Z M391.894,118.748 C391.894,118.892 392.002,119 392.146,119 L392.29,119 C392.434,119 392.542,118.892 392.542,118.748 L392.542,107.948 C392.83,107.552 394.954,104.888 398.158,104.888 C401.614,104.888 403.486,107.012 403.486,110.936 L403.486,118.748 C403.486,118.892 403.594,119 403.738,119 L403.882,119 C404.026,119 404.134,118.892 404.134,118.748 L404.134,110.936 C404.134,106.58 402.046,104.24 398.158,104.24 C395.35,104.24 393.442,105.968 392.542,106.94 L392.542,94.052 C392.542,93.908 392.434,93.8 392.29,93.8 L392.146,93.8 C392.002,93.8 391.894,93.908 391.894,94.052 L391.894,118.748 Z M416.194,114.5 C416.194,117.524 418.39,119.36 421.198,119.36 C423.574,119.36 425.662,118.1 426.778,117.128 L426.778,118.748 C426.778,118.892 426.886,119 427.03,119 L427.174,119 C427.318,119 427.426,118.892 427.426,118.748 L427.426,109.064 C427.426,105.788 426.31,104.24 422.782,104.24 C419.83,104.24 418.03,105.428 418.03,105.428 C417.958,105.464 417.85,105.536 417.958,105.716 L418.066,105.896 C418.138,106.004 418.21,106.076 418.39,105.968 C418.39,105.968 420.046,104.888 422.782,104.888 C425.842,104.888 426.778,106.22 426.778,109.064 L426.778,110.396 C425.986,110.108 424.294,109.568 422.53,109.568 C418.714,109.568 416.194,111.656 416.194,114.5 L416.194,114.5 Z M416.842,114.5 C416.842,112.016 419.074,110.216 422.53,110.216 C424.438,110.216 426.274,110.9 426.778,111.044 L426.778,116.228 C426.058,117.128 423.826,118.712 421.198,118.712 C418.75,118.712 416.842,117.164 416.842,114.5 L416.842,114.5 Z M433.114,118.748 C433.114,118.892 433.222,119 433.366,119 L433.51,119 C433.654,119 433.762,118.892 433.762,118.748 L433.762,107.84 C434.05,107.444 436.174,104.888 439.378,104.888 C442.834,104.888 444.706,107.012 444.706,110.936 L444.706,118.748 C444.706,118.892 444.814,119 444.958,119 L445.102,119 C445.246,119 445.354,118.892 445.354,118.748 L445.354,110.936 C445.354,106.58 443.266,104.24 439.378,104.24 C436.57,104.24 434.662,105.86 433.762,106.832 L433.762,104.852 C433.762,104.708 433.654,104.6 433.51,104.6 L433.366,104.6 C433.222,104.6 433.114,104.708 433.114,104.852 L433.114,118.748 Z M449.926,111.764 C449.926,116.012 453.022,119.36 456.802,119.36 C459.646,119.36 461.338,117.992 462.202,117.02 L462.202,118.748 C462.202,118.892 462.31,119 462.454,119 L462.598,119 C462.706,119 462.814,118.892 462.814,118.748 L462.814,94.052 C462.814,93.908 462.706,93.8 462.598,93.8 L462.454,93.8 C462.31,93.8 462.202,93.908 462.202,94.052 L462.202,106.292 C462.202,106.292 460.114,104.24 457.018,104.24 C452.806,104.24 449.926,107.444 449.926,111.764 L449.926,111.764 Z M450.538,111.764 C450.538,107.804 453.166,104.888 457.018,104.888 C460.258,104.888 462.202,107.228 462.202,107.228 L462.202,116.012 C462.058,116.264 460.438,118.712 456.802,118.712 C453.382,118.712 450.538,115.652 450.538,111.764 L450.538,111.764 Z M476.314,118.748 C476.314,118.892 476.422,119 476.566,119 L476.71,119 C476.854,119 476.962,118.892 476.962,118.748 L476.962,107.84 C477.322,107.264 478.978,104.888 482.254,104.888 C485.422,104.888 487.186,107.012 487.186,110.936 L487.186,118.748 C487.186,118.892 487.294,119 487.438,119 L487.582,119 C487.726,119 487.834,118.892 487.834,118.748 L487.834,110.936 C487.834,109.712 487.654,108.668 487.366,107.768 C487.762,107.12 489.382,104.888 492.478,104.888 C495.754,104.888 497.518,107.012 497.518,110.936 L497.518,118.748 C497.518,118.892 497.626,119 497.77,119 L497.914,119 C498.058,119 498.166,118.892 498.166,118.748 L498.166,110.936 C498.166,106.58 496.186,104.24 492.478,104.24 C489.454,104.24 487.762,106.148 487.078,107.12 C486.214,105.248 484.522,104.24 482.254,104.24 C479.41,104.24 477.754,105.788 476.962,106.832 L476.962,104.852 C476.962,104.708 476.854,104.6 476.71,104.6 L476.566,104.6 C476.422,104.6 476.314,104.708 476.314,104.852 L476.314,118.748 Z M504.142,97.148 C504.538,97.148 504.862,96.824 504.862,96.428 C504.862,96.032 504.538,95.672 504.142,95.672 C503.71,95.672 503.422,96.032 503.422,96.428 C503.422,96.824 503.71,97.148 504.142,97.148 L504.142,97.148 Z M503.782,118.748 C503.782,118.892 503.89,119 504.034,119 L504.178,119 C504.322,119 504.43,118.892 504.43,118.748 L504.43,104.852 C504.43,104.708 504.322,104.6 504.178,104.6 L504.034,104.6 C503.89,104.6 503.782,104.708 503.782,104.852 L503.782,118.748 Z M510.262,118.748 C510.262,118.892 510.37,119 510.514,119 L510.658,119 C510.802,119 510.91,118.892 510.91,118.748 L510.91,107.84 C511.198,107.444 513.322,104.888 516.526,104.888 C519.982,104.888 521.854,107.012 521.854,110.936 L521.854,118.748 C521.854,118.892 521.962,119 522.106,119 L522.25,119 C522.394,119 522.502,118.892 522.502,118.748 L522.502,110.936 C522.502,106.58 520.414,104.24 516.526,104.24 C513.718,104.24 511.81,105.86 510.91,106.832 L510.91,104.852 C510.91,104.708 510.802,104.6 510.658,104.6 L510.514,104.6 C510.37,104.6 510.262,104.708 510.262,104.852 L510.262,118.748 Z M528.478,97.148 C528.874,97.148 529.198,96.824 529.198,96.428 C529.198,96.032 528.874,95.672 528.478,95.672 C528.046,95.672 527.758,96.032 527.758,96.428 C527.758,96.824 528.046,97.148 528.478,97.148 L528.478,97.148 Z M528.118,118.748 C528.118,118.892 528.226,119 528.37,119 L528.514,119 C528.658,119 528.766,118.892 528.766,118.748 L528.766,104.852 C528.766,104.708 528.658,104.6 528.514,104.6 L528.37,104.6 C528.226,104.6 528.118,104.708 528.118,104.852 L528.118,118.748 Z M534.598,118.748 C534.598,118.892 534.706,119 534.85,119 L534.994,119 C535.138,119 535.246,118.892 535.246,118.748 L535.246,107.84 C535.606,107.264 537.262,104.888 540.538,104.888 C543.706,104.888 545.47,107.012 545.47,110.936 L545.47,118.748 C545.47,118.892 545.578,119 545.722,119 L545.866,119 C546.01,119 546.118,118.892 546.118,118.748 L546.118,110.936 C546.118,109.712 545.938,108.668 545.65,107.768 C546.046,107.12 547.666,104.888 550.762,104.888 C554.038,104.888 555.802,107.012 555.802,110.936 L555.802,118.748 C555.802,118.892 555.91,119 556.054,119 L556.198,119 C556.342,119 556.45,118.892 556.45,118.748 L556.45,110.936 C556.45,106.58 554.47,104.24 550.762,104.24 C547.738,104.24 546.046,106.148 545.362,107.12 C544.498,105.248 542.806,104.24 540.538,104.24 C537.694,104.24 536.038,105.788 535.246,106.832 L535.246,104.852 C535.246,104.708 535.138,104.6 534.994,104.6 L534.85,104.6 C534.706,104.6 534.598,104.708 534.598,104.852 L534.598,118.748 Z M560.842,114.5 C560.842,117.524 563.038,119.36 565.846,119.36 C568.222,119.36 570.31,118.1 571.426,117.128 L571.426,118.748 C571.426,118.892 571.534,119 571.678,119 L571.822,119 C571.966,119 572.074,118.892 572.074,118.748 L572.074,109.064 C572.074,105.788 570.958,104.24 567.43,104.24 C564.478,104.24 562.678,105.428 562.678,105.428 C562.606,105.464 562.498,105.536 562.606,105.716 L562.714,105.896 C562.786,106.004 562.858,106.076 563.038,105.968 C563.038,105.968 564.694,104.888 567.43,104.888 C570.49,104.888 571.426,106.22 571.426,109.064 L571.426,110.396 C570.634,110.108 568.942,109.568 567.178,109.568 C563.362,109.568 560.842,111.656 560.842,114.5 L560.842,114.5 Z M561.49,114.5 C561.49,112.016 563.722,110.216 567.178,110.216 C569.086,110.216 570.922,110.9 571.426,111.044 L571.426,116.228 C570.706,117.128 568.474,118.712 565.846,118.712 C563.398,118.712 561.49,117.164 561.49,114.5 L561.49,114.5 Z M577.762,118.748 C577.762,118.892 577.87,119 578.014,119 L578.158,119 C578.302,119 578.41,118.892 578.41,118.748 L578.41,94.052 C578.41,93.908 578.302,93.8 578.158,93.8 L578.014,93.8 C577.87,93.8 577.762,93.908 577.762,94.052 L577.762,118.748 Z M590.866,111.764 C590.866,116.012 593.962,119.36 597.742,119.36 C600.586,119.36 602.278,117.992 603.142,117.02 L603.142,118.748 C603.142,118.892 603.25,119 603.394,119 L603.538,119 C603.646,119 603.754,118.892 603.754,118.748 L603.754,94.052 C603.754,93.908 603.646,93.8 603.538,93.8 L603.394,93.8 C603.25,93.8 603.142,93.908 603.142,94.052 L603.142,106.292 C603.142,106.292 601.054,104.24 597.958,104.24 C593.746,104.24 590.866,107.444 590.866,111.764 L590.866,111.764 Z M591.478,111.764 C591.478,107.804 594.106,104.888 597.958,104.888 C601.198,104.888 603.142,107.228 603.142,107.228 L603.142,116.012 C602.998,116.264 601.378,118.712 597.742,118.712 C594.322,118.712 591.478,115.652 591.478,111.764 L591.478,111.764 Z M609.226,112.052 L621.826,112.052 C621.898,112.052 622.006,111.98 622.042,111.908 C622.15,111.728 622.186,111.08 622.186,110.828 C622.186,106.94 619.45,104.24 615.634,104.24 C611.242,104.24 608.542,107.552 608.542,111.728 C608.542,115.976 611.242,119.36 615.634,119.36 C618.046,119.36 619.99,118.352 620.89,117.668 C620.962,117.596 621.034,117.524 620.962,117.416 L620.818,117.2 C620.782,117.128 620.674,117.056 620.53,117.164 C619.738,117.812 617.902,118.712 615.634,118.712 C611.71,118.712 609.334,115.796 609.226,112.052 L609.226,112.052 Z M609.226,111.44 C609.37,107.768 611.71,104.888 615.634,104.888 C619.018,104.888 621.538,107.3 621.538,110.828 C621.538,110.972 621.538,111.224 621.502,111.44 L609.226,111.44 Z M626.038,117.74 C626.83,118.352 628.306,119.36 630.79,119.36 C633.706,119.36 636.046,117.632 636.046,115.4 C636.046,112.772 633.49,112.052 630.61,111.224 C627.838,110.432 626.398,109.64 626.398,107.948 C626.398,106.616 627.622,104.888 630.574,104.888 C632.302,104.888 633.634,105.5 634.318,105.932 C634.498,106.04 634.57,105.968 634.642,105.86 L634.75,105.68 C634.822,105.572 634.786,105.464 634.678,105.392 C633.958,104.924 632.518,104.24 630.574,104.24 C627.19,104.24 625.714,106.328 625.714,107.948 C625.714,109.964 627.262,110.936 630.466,111.836 C633.166,112.592 635.326,113.348 635.326,115.4 C635.326,117.272 633.382,118.712 630.79,118.712 C628.558,118.712 627.154,117.812 626.434,117.236 C626.29,117.128 626.182,117.128 626.11,117.236 L625.93,117.488 C625.894,117.596 625.93,117.668 626.038,117.74 L626.038,117.74 Z M640.834,97.148 C641.23,97.148 641.554,96.824 641.554,96.428 C641.554,96.032 641.23,95.672 640.834,95.672 C640.402,95.672 640.114,96.032 640.114,96.428 C640.114,96.824 640.402,97.148 640.834,97.148 L640.834,97.148 Z M640.474,118.748 C640.474,118.892 640.582,119 640.726,119 L640.87,119 C641.014,119 641.122,118.892 641.122,118.748 L641.122,104.852 C641.122,104.708 641.014,104.6 640.87,104.6 L640.726,104.6 C640.582,104.6 640.474,104.708 640.474,104.852 L640.474,118.748 Z M645.478,117.2 C645.478,119.072 646.99,120.224 648.43,120.26 C647.278,120.98 645.982,122.384 645.982,124.472 C645.982,126.956 648.178,130.16 653.11,130.16 C657.538,130.16 660.382,127.352 660.382,124.256 C660.382,120.98 658.258,119.648 655.126,119.648 L648.502,119.648 C647.314,119.648 646.126,118.748 646.126,117.2 C646.126,115.292 647.674,114.428 648.214,114.176 C649.15,115.184 650.626,115.868 652.678,115.868 C656.278,115.868 658.582,113.168 658.582,110.036 C658.582,106.904 657.07,105.608 655.702,104.888 L658.978,104.888 C659.122,104.888 659.23,104.78 659.23,104.636 L659.23,104.492 C659.23,104.348 659.122,104.24 658.978,104.24 L653.83,104.24 L653.794,104.24 L652.678,104.24 C649.006,104.24 646.702,106.868 646.702,110.036 C646.702,111.368 647.026,112.664 647.782,113.672 C646.99,114.068 645.478,115.112 645.478,117.2 L645.478,117.2 Z M652.678,115.22 C648.862,115.22 647.35,112.736 647.35,110.036 C647.35,107.228 649.366,104.888 652.678,104.888 L653.758,104.888 C653.758,104.888 657.934,105.176 657.934,110.036 C657.934,112.808 655.918,115.22 652.678,115.22 L652.678,115.22 Z M646.63,124.472 C646.63,121.664 649.33,120.332 650.014,120.26 L655.126,120.26 C657.898,120.26 659.734,121.412 659.734,124.256 C659.734,127.028 657.214,129.512 653.11,129.512 C648.574,129.512 646.63,126.668 646.63,124.472 L646.63,124.472 Z M663.658,118.748 C663.658,118.892 663.766,119 663.91,119 L664.054,119 C664.198,119 664.306,118.892 664.306,118.748 L664.306,107.84 C664.594,107.444 666.718,104.888 669.922,104.888 C673.378,104.888 675.25,107.012 675.25,110.936 L675.25,118.748 C675.25,118.892 675.358,119 675.502,119 L675.646,119 C675.79,119 675.898,118.892 675.898,118.748 L675.898,110.936 C675.898,106.58 673.81,104.24 669.922,104.24 C667.114,104.24 665.206,105.86 664.306,106.832 L664.306,104.852 C664.306,104.708 664.198,104.6 664.054,104.6 L663.91,104.6 C663.766,104.6 663.658,104.708 663.658,104.852 L663.658,118.748 Z M682.054,118.496 C682.054,118.964 682.45,119.36 682.918,119.36 C683.422,119.36 683.782,118.964 683.782,118.496 C683.782,118.028 683.422,117.668 682.918,117.668 C682.45,117.668 682.054,118.028 682.054,118.496 L682.054,118.496 Z" id="Welcome,-I’m-Simon,-" fill="#0F172C" sketch:type="MSShapeGroup"></path>
    </g>
</svg>