<?xml version="1.0" encoding="UTF-8" standalone="no"?>
<svg width="51px" height="51px" viewBox="0 0 51 51" version="1.1" xmlns="http://www.w3.org/2000/svg" xmlns:xlink="http://www.w3.org/1999/xlink" xmlns:sketch="http://www.bohemiancoding.com/sketch/ns">
    <!-- Generator: Sketch 3.2.2 (9983) - http://www.bohemiancoding.com/sketch -->
    <title>Rectangle 79 + Oval 1</title>
    <desc>Created with Sketch.</desc>
    <defs></defs>
    <g id="Page-1" stroke="none" stroke-width="1" fill="none" fill-rule="evenodd" sketch:type="MSPage">
        <path d="M3,17.5647415 C3,15.9115804 4.12122893,13.8287964 5.50226064,12.9140871 L22.4977394,1.65734146 C23.8796998,0.742017047 26.1212289,0.742632151 27.5022606,1.65734146 L44.4977394,12.9140871 C45.8796998,13.8294115 47,15.9057885 47,17.5647415 L47,33.4352585 C47,35.0884196 45.8787711,37.1712036 44.4977394,38.0859129 L27.5022606,49.3426585 C26.1203002,50.257983 23.8787711,50.2573678 22.4977394,49.3426585 L5.50226064,38.0859129 C4.12030025,37.1705885 3,35.0942115 3,33.4352585 L3,17.5647415 Z" id="Rectangle-81" stroke="#0F172C" sketch:type="MSShapeGroup"></path>
        <path d="M16,20.1180479 L16,34.6581834 L20.7100851,34.6581834 L20.7100851,20.1180479 L16,20.1180479 Z M18.6646962,13 C17.0534058,13 16,14.0858611 16,15.5115122 C16,16.9076331 17.0222711,18.0247614 18.6035556,18.0247614 L18.6336556,18.0247614 C20.2759867,18.0247614 21.2988222,16.9076331 21.2988222,15.5115122 C21.2682519,14.0858611 20.2759867,13 18.6646962,13 Z M32.5769213,20.1180479 C30.076176,20.1180479 28.9565501,21.5293199 28.3314108,22.5193527 L28.3314108,20.4598644 L23.6207614,20.4598644 C23.6828427,21.8242356 23.6207614,35 23.6207614,35 L28.3314108,35 L28.3314108,26.8795887 C28.3314108,26.445032 28.3619812,26.0115368 28.4865199,25.7004084 C28.826932,24.83226 29.6020069,23.9334233 30.9032674,23.9334233 C32.6083381,23.9334233 33.2899149,25.2667202 33.2899149,27.2206333 L33.2899149,34.999614 L37.9998119,34.999614 L38,26.6627446 C38,22.1966439 35.6763743,20.1180479 32.5769213,20.1180479 Z" id="Oval-1" stroke="#0F172C" sketch:type="MSShapeGroup"></path>
    </g>
</svg>