<?xml version="1.0" encoding="UTF-8" standalone="no"?>
<svg width="51px" height="51px" viewBox="0 0 51 51" version="1.1" xmlns="http://www.w3.org/2000/svg" xmlns:xlink="http://www.w3.org/1999/xlink" xmlns:sketch="http://www.bohemiancoding.com/sketch/ns">
    <!-- Generator: Sketch 3.2.2 (9983) - http://www.bohemiancoding.com/sketch -->
    <title>Rectangle 79 + Oval 1</title>
    <desc>Created with Sketch.</desc>
    <defs></defs>
    <g id="Page-1" stroke="none" stroke-width="1" fill="none" fill-rule="evenodd" sketch:type="MSPage">
        <path d="M3,17.5647415 C3,15.9115804 4.12122893,13.8287964 5.50226064,12.9140871 L22.4977394,1.65734146 C23.8796998,0.742017047 26.1212289,0.742632151 27.5022606,1.65734146 L44.4977394,12.9140871 C45.8796998,13.8294115 47,15.9057885 47,17.5647415 L47,33.4352585 C47,35.0884196 45.8787711,37.1712036 44.4977394,38.0859129 L27.5022606,49.3426585 C26.1203002,50.257983 23.8787711,50.2573678 22.4977394,49.3426585 L5.50226064,38.0859129 C4.12030025,37.1705885 3,35.0942115 3,33.4352585 L3,17.5647415 Z" id="Rectangle-83" stroke="#0F172C" sketch:type="MSShapeGroup"></path>
        <path d="M16.5,21.3293651 C16.5,23.8979841 17.4179886,26.1831362 19.3868965,27.0346983 C19.7097504,27.1745243 19.9989411,27.0395084 20.0925718,26.6608336 C20.1577063,26.3987635 20.3117743,25.737617 20.3805099,25.4622774 C20.4749236,25.0877494 20.4382854,24.9563826 20.1777477,24.629956 C19.6100133,23.9205421 19.2472332,23.0021355 19.2472332,21.7012393 C19.2472332,17.9270976 21.9127352,14.5483833 26.1881227,14.5483833 C29.9739058,14.5483833 32.0538241,16.9989049 32.0538241,20.2716301 C32.0538241,24.5777078 30.2549547,28.2120235 27.5844424,28.2120235 C26.1096795,28.2120235 25.005682,26.9199182 25.3595374,25.3352232 C25.7832244,23.4433422 26.6039811,21.4015173 26.6039811,20.0359328 C26.6039811,18.8134918 25.9845775,17.7939063 24.7027128,17.7939063 C23.1950696,17.7939063 21.983976,19.4461092 21.983976,21.6594407 C21.983976,23.0691459 22.4336542,24.0225504 22.4336542,24.0225504 C22.4336542,24.0225504 20.890782,30.9476708 20.6203801,32.1604915 C20.0817683,34.5758493 20.5394317,37.5367443 20.5781053,37.8358028 C20.6008084,38.0129489 20.8157834,38.0550792 20.9131719,37.9212244 C21.0522089,37.7289843 22.8477903,35.3806369 23.4582691,33.0341139 C23.6309694,32.36965 24.4498471,28.9290673 24.4498471,28.9290673 C24.9396081,29.9187967 26.3711567,30.7905945 27.8935179,30.7905945 C32.4253723,30.7905945 35.5,26.4138574 35.5,20.5554288 C35.5,16.1256142 31.9581579,12 26.575015,12 C19.8771271,12 16.5,17.0871462 16.5,21.3293651 Z" id="Oval-1" stroke="#0F172C" sketch:type="MSShapeGroup"></path>
    </g>
</svg>