<?xml version="1.0" encoding="UTF-8" standalone="no"?>
<svg width="980px" height="328px" viewBox="0 0 980 328" version="1.1" xmlns="http://www.w3.org/2000/svg" xmlns:xlink="http://www.w3.org/1999/xlink" xmlns:sketch="http://www.bohemiancoding.com/sketch/ns">
    <!-- Generator: Sketch 3.2.2 (9983) - http://www.bohemiancoding.com/sketch -->
    <title>Rectangle 420 + Group + built by + Simon 3</title>
    <desc>Created with Sketch.</desc>
    <defs></defs>
    <g id="Page-1" stroke="none" stroke-width="1" fill="none" fill-rule="evenodd" sketch:type="MSPage">
        <g id="Group" sketch:type="MSLayerGroup" transform="translate(191.000000, 54.000000)">
            <g id="Rectangle-30-+-Desktop-HD" transform="translate(370.000000, 0.000000)" stroke="#0F172C" sketch:type="MSShapeGroup">
                <path d="M0,38.4197792 C0,35.6632113 1.86880464,32.179142 4.15558718,30.6502646 L45.8444128,2.77830686 C48.1394802,1.24389035 51.8688046,1.24942939 54.1555872,2.77830686 L95.8444128,30.6502646 C98.1394802,32.1846811 100,35.6641559 100,38.4197792 L100,78.5802208 C100,81.3367887 98.1311954,84.820858 95.8444128,86.3497354 L54.1555872,114.221693 C51.8605198,115.75611 48.1311954,115.750571 45.8444128,114.221693 L4.15558718,86.3497354 C1.86051976,84.8153189 0,81.3358441 0,78.5802208 L0,38.4197792 Z" id="Rectangle-30"></path>
                <g id="Desktop-HD" transform="translate(23.880597, 40.500000)">
                    <rect id="Rectangle-2" x="0" y="0" width="52.238806" height="32.1351351" rx="1"></rect>
                    <rect id="Rectangle-3" x="18.1700195" y="32.1351351" width="15.898767" height="8.03378378"></rect>
                    <rect id="Rectangle-4" x="11.3562622" y="40.1689189" width="29.5262816" height="2.2953668" rx="1"></rect>
                </g>
            </g>
            <g id="Rectangle-75-+-Imported-Layers-2-+-Imported-Layers-2">
                <g id="Rectangle-75-+-Imported-Layers-2" stroke="#0F172C" sketch:type="MSShapeGroup">
                    <path d="M0,38.4197792 C0,35.6632113 1.86880464,32.179142 4.15558718,30.6502646 L45.8444128,2.77830686 C48.1394802,1.24389035 51.8688046,1.24942939 54.1555872,2.77830686 L95.8444128,30.6502646 C98.1394802,32.1846811 100,35.6641559 100,38.4197792 L100,78.5802208 C100,81.3367887 98.1311954,84.820858 95.8444128,86.3497354 L54.1555872,114.221693 C51.8605198,115.75611 48.1311954,115.750571 45.8444128,114.221693 L4.15558718,86.3497354 C1.86051976,84.8153189 0,81.3358441 0,78.5802208 L0,38.4197792 Z" id="Rectangle-75"></path>
                </g>
                <g id="triumph" transform="translate(22.186147, 38.524390)"></g>
                <g id="Group" transform="translate(21.428571, 39.279229)" sketch:type="MSShapeGroup">
                    <path d="M28.5714286,41.7850565 L29.4047619,41.7850565 L29.4047619,27.5779139 L28.5714286,27.5779139 L28.5714286,41.7850565 Z M40.2380952,42.620771 L40.2380952,41.7850568 L18.5714286,41.7850568 L18.5714286,42.620771 L40.2380952,42.620771 Z" id="Line" fill="#0F172C"></path>
                    <path d="M45.6547615,0.835056757 L13.5714286,0.835056757 L13.5714286,0.835056757 L4.40476191,0.835056757 C-5.80789239,0.835056757 7.87626846,10.0795078 12.7784157,13.1952628 C13.0407398,16.1972196 14.993583,28.4136282 29.4047619,28.4136282 C44.2679723,28.4136282 45.8814708,15.2807761 46.051813,12.9021408 C49.9506823,10.6262213 66.0930896,0.835056757 55.2380952,0.835056757 L45.6547615,0.835056757 Z" id="Rectangle-22" stroke="#0F172C"></path>
                    <path d="M12.7380952,11.6993424 L12.7380952,0.835056757 L46.0714286,0.835056757 L46.0714286,11.6993424 C46.0714286,11.6993424 45.7480265,28.4136282 29.4047619,28.4136282 C12.9749176,28.4136282 12.7380952,11.6993424 12.7380952,11.6993424 Z M14.4047619,0.835056757 L12.7380952,0.835056752 C12.7380952,0.835056752 -7.877744,0.835056757 4.40476158,0.835056757 L14.4047619,0.835056757 Z" id="Rectangle-23" stroke="#0F172C"></path>
                </g>
            </g>
            <g id="Rectangle-75-+-Imported-Layers" transform="translate(121.000000, 0.000000)" stroke="#0F172C" sketch:type="MSShapeGroup">
                <path d="M0,38.4197792 C0,35.6632113 1.86880464,32.179142 4.15558718,30.6502646 L45.8444128,2.77830686 C48.1394802,1.24389035 51.8688046,1.24942939 54.1555872,2.77830686 L95.8444128,30.6502646 C98.1394802,32.1846811 100,35.6641559 100,38.4197792 L100,78.5802208 C100,81.3367887 98.1311954,84.820858 95.8444128,86.3497354 L54.1555872,114.221693 C51.8605198,115.75611 48.1311954,115.750571 45.8444128,114.221693 L4.15558718,86.3497354 C1.86051976,84.8153189 0,81.3358441 0,78.5802208 L0,38.4197792 Z" id="Rectangle-75"></path>
                <path d="M60.1333333,57.0291429 L65.8333333,51.3128571 L50.7539683,51.3128571 L50.7539683,51.3128571 L65.8333333,25.9071429 L39.8666667,51.948 L34.1666667,57.6642857 L50.3104575,57.6642857 L34.1666667,89.4214286 L60.1333333,57.0291429 Z" id="Rectangle-17"></path>
            </g>
            <g id="Rectangle-76-+-Rectangle-15-+-Oval-3-+-Oval-4" transform="translate(61.000000, 102.000000)" stroke="#0F172C" sketch:type="MSShapeGroup">
                <path d="M0,38.4197792 C0,35.6632113 1.86880464,32.179142 4.15558718,30.6502646 L45.8444128,2.77830686 C48.1394802,1.24389035 51.8688046,1.24942939 54.1555872,2.77830686 L95.8444128,30.6502646 C98.1394802,32.1846811 100,35.6641559 100,38.4197792 L100,78.5802208 C100,81.3367887 98.1311954,84.820858 95.8444128,86.3497354 L54.1555872,114.221693 C51.8605198,115.75611 48.1311954,115.750571 45.8444128,114.221693 L4.15558718,86.3497354 C1.86051976,84.8153189 0,81.3358441 0,78.5802208 L0,38.4197792 Z" id="Rectangle-76"></path>
                <g id="Rectangle-15-+-Oval-3-+-Oval-4" transform="translate(14.864865, 40.344828)">
                    <path d="M69.361383,19.0658629 C69.9381465,18.5430313 70.2702703,18.1551724 70.2702703,18.1551724 C70.2702703,18.1551724 53.0221136,-5.5471895e-16 35.4900355,0 C17.9579574,5.5471895e-16 0,18.1551724 0,18.1551724 C0,18.1551724 1.52916948e-06,18.1551738 4.58616234e-06,18.1551765 C0.00994971212,18.16523 17.9628143,36.3103448 35.4900355,36.3103448 C50.6451113,36.3103448 65.5880348,22.7444074 69.361383,19.0658629 Z" id="Rectangle-15"></path>
                    <ellipse id="Oval-3" cx="35.8449358" cy="18.5182759" rx="12.4215124" ry="12.7086207"></ellipse>
                    <ellipse id="Oval-4" cx="35.4900355" cy="18.1551724" rx="3.54900355" ry="3.63103448"></ellipse>
                </g>
            </g>
            <g id="Rectangle-75-+-Imported-Layers-3-+-Oval-13" transform="translate(186.000000, 103.000000)" sketch:type="MSShapeGroup">
                <g id="Rectangle-75-+-Imported-Layers-3" stroke="#0F172C">
                    <path d="M0,38.4197792 C0,35.6632113 1.86880464,32.179142 4.15558718,30.6502646 L45.8444128,2.77830686 C48.1394802,1.24389035 51.8688046,1.24942939 54.1555872,2.77830686 L95.8444128,30.6502646 C98.1394802,32.1846811 100,35.6641559 100,38.4197792 L100,78.5802208 C100,81.3367887 98.1311954,84.820858 95.8444128,86.3497354 L54.1555872,114.221693 C51.8605198,115.75611 48.1311954,115.750571 45.8444128,114.221693 L4.15558718,86.3497354 C1.86051976,84.8153189 0,81.3358441 0,78.5802208 L0,38.4197792 Z" id="Rectangle-75"></path>
                </g>
                <path d="M74.8310788,47.0733498 C70.5949976,37.1481659 60.7105101,30.1876307 49.1925523,30.1876307 C33.8151953,30.1876307 21.3493844,42.594296 21.3493844,57.8986934 L21.3493844,57.8986934 L22.6924078,57.8986934 C22.6924078,44.1247358 35.352931,31.5192012 49.1925523,31.5192012 C59.4697515,31.5192012 69.0967444,38.470443 73.3719117,47.6894532 L74.8310788,47.0733498 L74.8310788,47.0733498 Z M77.0357203,57.8986934 C77.0357203,73.2030907 64.5699094,85.6097561 49.1925523,85.6097561 C38.1640932,85.6097561 28.6332138,79.2282771 24.1244075,69.9730899 L25.540253,69.1811833 C30.0439949,77.8611561 39.3181552,84.2781856 49.1925523,84.2781856 C63.0321737,84.2781856 75.6926969,71.672651 75.6926969,57.8986934 L77.0357203,57.8986934 L77.0357203,57.8986934 Z M22.0208961,65.2883101 L19.2857143,57.8986934 L24.7560778,57.8986934 L22.0208961,65.2883101 Z M76.3642086,50.5090767 L79.0993904,57.8986934 L73.6290268,57.8986934 L76.3642086,50.5090767 Z" id="Oval-13" fill="#0F172C"></path>
            </g>
            <g id="sketch_icon" transform="translate(307.000000, 103.000000)" stroke="#0F172C" sketch:type="MSShapeGroup">
                <path d="M0,38.4197792 C0,35.6632113 1.86880464,32.179142 4.15558718,30.6502646 L45.8444128,2.77830686 C48.1394802,1.24389035 51.8688046,1.24942939 54.1555872,2.77830686 L95.8444128,30.6502646 C98.1394802,32.1846811 100,35.6641559 100,38.4197792 L100,78.5802208 C100,81.3367887 98.1311954,84.820858 95.8444128,86.3497354 L54.1555872,114.221693 C51.8605198,115.75611 48.1311954,115.750571 45.8444128,114.221693 L4.15558718,86.3497354 C1.86051976,84.8153189 0,81.3358441 0,78.5802208 L0,38.4197792 Z" id="Rectangle-78"></path>
                <g id="Group" transform="translate(12.570788, 33.622071)">
                    <path d="M15.7238997,26.2203816 L57.6542991,26.2203816 L36.6890994,62.9289158 L15.7238997,26.2203816 Z" id="Rectangle-1"></path>
                    <path d="M0,15.7322289 L15.7238997,26.2203816 L36.6890994,62.9289158 L0,15.7322289 Z" id="Rectangle-2"></path>
                    <path d="M57.6542991,26.2203816 L73.3781988,15.7322289 L36.6890994,62.9289158 L57.6542991,26.2203816 Z" id="Rectangle-3"></path>
                    <path d="M23.0617196,10.4881526 L50.3164792,10.4881526 L57.6542991,26.2203816 L15.7238997,26.2203816 L23.0617196,10.4881526 Z" id="Rectangle-4"></path>
                    <path d="M10.4825998,5.24407632 L23.0617196,10.4881526 L15.7238997,26.2203816 L0,15.7322289 L10.4825998,5.24407632 Z" id="Rectangle-5"></path>
                    <path d="M50.3164792,10.4881526 L62.895599,5.24407632 L73.3781988,15.7322289 L57.6542991,26.2203816 L50.3164792,10.4881526 Z" id="Rectangle-6"></path>
                    <path d="M10.4825998,5.24407632 L20.9651997,0 L52.4129992,0 L62.895599,5.24407632 L50.3164792,10.4881526 L23.0617196,10.4881526 L10.4825998,5.24407632 Z" id="Rectangle-7"></path>
                </g>
            </g>
            <g id="Rectangle-28-+-Laptop" transform="translate(491.000000, 2.000000)" stroke="#0F172C" sketch:type="MSShapeGroup">
                <path d="M0,38.4197792 C0,35.6632113 1.86880464,32.179142 4.15558718,30.6502646 L45.8444128,2.77830686 C48.1394802,1.24389035 51.8688046,1.24942939 54.1555872,2.77830686 L95.8444128,30.6502646 C98.1394802,32.1846811 100,35.6641559 100,38.4197792 L100,78.5802208 C100,81.3367887 98.1311954,84.820858 95.8444128,86.3497354 L54.1555872,114.221693 C51.8605198,115.75611 48.1311954,115.750571 45.8444128,114.221693 L4.15558718,86.3497354 C1.86051976,84.8153189 0,81.3358441 0,78.5802208 L0,38.4197792 Z" id="Rectangle-28"></path>
                <g id="Laptop" transform="translate(19.402985, 39.000000)">
                    <path d="M58.2800284,7.50195622 L58.2800284,37.5 L2.91400142,37.5 L2.91400142,7.50195622 L2.91400142,2.99608755 C2.91400142,1.34139409 4.25517404,0 5.91035038,0 L55.2836795,0 C56.9385173,0 58.2800284,1.34378672 58.2800284,2.99608755 L58.2800284,7.50195622 Z" id="Rectangle-7"></path>
                    <rect id="Rectangle-9" x="0" y="37.5" width="61.1940299" height="3" rx="1"></rect>
                    <path d="M26.9545131,38 L34.2395167,38" id="Line" stroke-width="2" stroke-linecap="square"></path>
                </g>
            </g>
            <g id="Rectangle-27-+-Smartphone" transform="translate(430.000000, 103.000000)" stroke="#0F172C" sketch:type="MSShapeGroup">
                <path d="M0,38.4197792 C0,35.6632113 1.86880464,32.179142 4.15558718,30.6502646 L45.8444128,2.77830686 C48.1394802,1.24389035 51.8688046,1.24942939 54.1555872,2.77830686 L95.8444128,30.6502646 C98.1394802,32.1846811 100,35.6641559 100,38.4197792 L100,78.5802208 C100,81.3367887 98.1311954,84.820858 95.8444128,86.3497354 L54.1555872,114.221693 C51.8605198,115.75611 48.1311954,115.750571 45.8444128,114.221693 L4.15558718,86.3497354 C1.86051976,84.8153189 0,81.3358441 0,78.5802208 L0,38.4197792 Z" id="Rectangle-27"></path>
                <g id="Smartphone" transform="translate(34.328358, 27.000000)">
                    <rect id="Rectangle-5" x="0" y="0" width="29.8507463" height="61.5" rx="3"></rect>
                    <path d="M12.4378109,3.5 L17.4129353,3.5" id="Line" stroke-linecap="square"></path>
                    <path d="M0.829187396,6.5 L29.0215589,6.5" id="Line" stroke-linecap="square"></path>
                    <path d="M0.829187396,51.5 L29.0215589,51.5" id="Line-2" stroke-linecap="square"></path>
                    <ellipse id="Oval-1" cx="14.9253731" cy="56.5135135" rx="1.65837479" ry="1.66216216"></ellipse>
                </g>
            </g>
            <g id="Rectangle-29-+-iPad" transform="translate(245.000000, 0.000000)" stroke="#0F172C" sketch:type="MSShapeGroup">
                <path d="M0,38.4197792 C0,35.6632113 1.86880464,32.179142 4.15558718,30.6502646 L45.8444128,2.77830686 C48.1394802,1.24389035 51.8688046,1.24942939 54.1555872,2.77830686 L95.8444128,30.6502646 C98.1394802,32.1846811 100,35.6641559 100,38.4197792 L100,78.5802208 C100,81.3367887 98.1311954,84.820858 95.8444128,86.3497354 L54.1555872,114.221693 C51.8605198,115.75611 48.1311954,115.750571 45.8444128,114.221693 L4.15558718,86.3497354 C1.86051976,84.8153189 0,81.3358441 0,78.5802208 L0,38.4197792 Z" id="Rectangle-29"></path>
                <g id="iPad" transform="translate(29.850746, 31.500000)">
                    <rect id="Rectangle-5" x="0" y="0" width="41.7910448" height="54" rx="3"></rect>
                    <rect id="Rectangle-6" x="2.78606965" y="2.76923077" width="36.2189055" height="44.3076923" rx="1"></rect>
                    <ellipse id="Oval-2" cx="20.7407407" cy="50.4823285" rx="1.39303483" ry="1.38461538"></ellipse>
                </g>
            </g>
        </g>
    </g>
</svg>