<?xml version="1.0" encoding="UTF-8" standalone="no"?>
<svg width="200px" height="200px" viewBox="0 0 200 200" version="1.1" xmlns="http://www.w3.org/2000/svg" xmlns:xlink="http://www.w3.org/1999/xlink" xmlns:sketch="http://www.bohemiancoding.com/sketch/ns">
    <!-- Generator: Sketch 3.2.2 (9983) - http://www.bohemiancoding.com/sketch -->
    <title>sketch_icon</title>
    <desc>Created with Sketch.</desc>
    <defs></defs>
    <g id="Page-1" stroke="none" stroke-width="1" fill="none" fill-rule="evenodd" sketch:type="MSPage">
        <g id="sketch_icon" sketch:type="MSLayerGroup" transform="translate(15.000000, 0.000000)">
            <path d="M0,56.5714286 L85,0 L170,56.5714286 L170,141.428571 L85,198 L0,141.428571 L0,56.5714286 Z" id="Rectangle-78" fill="#C26761" sketch:type="MSShapeGroup"></path>
            <g id="Group" transform="translate(34.970340, 87.488372)" stroke="#FFFFFF" stroke-width="0.5" sketch:type="MSShapeGroup">
                <path d="M21.1893571,35.1744186 L77.6943092,35.1744186 L49.4418331,84.4186047 L21.1893571,35.1744186 Z" id="Rectangle-1"></path>
                <path d="M0,21.1046512 L21.1893571,35.1744186 L49.4418331,84.4186047 L0,21.1046512 Z" id="Rectangle-2"></path>
                <path d="M77.6943092,35.1744186 L98.8836663,21.1046512 L49.4418331,84.4186047 L77.6943092,35.1744186 Z" id="Rectangle-3"></path>
                <path d="M31.0777237,14.0697674 L67.8059426,14.0697674 L77.6943092,35.1744186 L21.1893571,35.1744186 L31.0777237,14.0697674 Z" id="Rectangle-4"></path>
                <path d="M14.126238,7.03488372 L31.0777237,14.0697674 L21.1893571,35.1744186 L0,21.1046512 L14.126238,7.03488372 Z" id="Rectangle-5"></path>
                <path d="M67.8059426,14.0697674 L84.7574282,7.03488372 L98.8836663,21.1046512 L77.6943092,35.1744186 L67.8059426,14.0697674 Z" id="Rectangle-6"></path>
                <path d="M14.126238,7.03488372 L28.2524761,0 L70.6311902,0 L84.7574282,7.03488372 L67.8059426,14.0697674 L31.0777237,14.0697674 L14.126238,7.03488372 Z" id="Rectangle-7"></path>
            </g>
            <g id="Sketch-+-3" transform="translate(41.557519, 54.329810)" sketch:type="MSShapeGroup">
                <path d="M0.412065078,22.5385138 C0.832485337,22.9270091 3.41968693,25.1932316 7.2681493,25.1932316 C10.9872516,25.1932316 14.3182736,22.6680122 14.3182736,19.4305514 C14.3182736,15.6750968 11.5046919,14.1211156 7.07410918,12.5995091 C3.80776717,11.531147 1.70566587,10.3332865 1.70566587,7.5814448 C1.70566587,5.73609214 3.19330679,3.27562192 7.17112924,3.27562192 C9.66131077,3.27562192 11.8280921,4.73247928 11.9251122,4.7972285 C12.2485124,4.99147615 12.4425525,4.89435232 12.6365926,4.63535546 C12.7012726,4.50585703 12.7982927,4.34398399 12.8953128,4.21448555 C13.1216929,3.85836486 12.8953128,3.63174261 12.7659527,3.53461878 C12.7659527,3.53461878 10.4051312,1.88351377 7.20346926,1.88351377 C2.15842615,1.88351377 0.218024959,5.1857238 0.218024959,7.61381941 C0.218024959,11.3368993 2.70820649,12.6642583 6.4596488,13.9916172 C10.3727912,15.3189761 12.7336127,16.6139605 12.7336127,19.4953006 C12.7336127,21.858647 10.2434311,23.8334981 7.30048932,23.8334981 C4.03414731,23.8334981 1.64098583,21.6320247 1.31758564,21.3406533 C1.05886548,21.114031 0.832485337,21.2111548 0.606105198,21.4701517 L0.315045018,21.858647 C0.0563248593,22.2147677 0.218024959,22.3766407 0.412065078,22.5385138 L0.412065078,22.5385138 Z M18.0373759,24.4486156 C18.0373759,24.6752379 18.166736,24.8694856 18.3931161,24.8694856 L19.0075765,24.8694856 C19.2986367,24.8694856 19.4279968,24.7076125 19.4279968,24.4486156 L19.4279968,18.1679417 L26.8985414,24.6104887 C27.1896016,24.8371109 27.3513016,24.8694856 27.5453418,24.8694856 L28.5478824,24.8694856 C28.8066025,24.8694856 28.9683026,24.5457395 28.7095825,24.3191172 L20.9156377,17.6175733 L27.868742,12.5023852 C28.1274621,12.3405122 28.0951221,11.9196423 27.7717219,11.9196423 L26.8338613,11.9196423 C26.6721612,11.9196423 26.4781211,11.9843915 26.316421,12.1138899 L19.4279968,17.1319542 L19.4279968,2.62812975 C19.4279968,2.4015075 19.2339567,2.20725985 19.0075765,2.20725985 L18.4577962,2.20725985 C18.231416,2.20725985 18.0373759,2.4015075 18.0373759,2.62812975 L18.0373759,24.4486156 Z M30.6499837,18.3621893 C30.6499837,22.1500185 33.0754852,25.1932316 37.0209676,25.1932316 C39.0260488,25.1932316 41.0634701,24.3191172 41.7102705,23.6716251 C41.9043106,23.4773774 41.9366506,23.2831298 41.8396306,23.1536313 L41.5162304,22.7003868 C41.3545303,22.4737646 41.2251702,22.5061392 40.93411,22.7003868 C40.1579495,23.2183805 38.8320087,23.8982473 37.1179877,23.8982473 C34.2073859,23.8982473 32.2023046,21.5672755 32.0729446,18.7830592 L42.3894109,18.7830592 C42.8745112,18.7830592 42.8745112,18.0384432 42.8745112,17.5204495 C42.8745112,14.088741 40.4166697,11.5958962 37.0209676,11.5958962 C33.0754852,11.5958962 30.6499837,14.671484 30.6499837,18.3621893 L30.6499837,18.3621893 Z M32.1052846,17.6175733 C32.2669847,14.9628555 34.1750458,12.8908805 37.0209676,12.8908805 C39.9315694,12.8908805 41.4515503,15.0923539 41.4515503,17.6175733 L32.1052846,17.6175733 Z M47.2404139,21.5349009 C47.2404139,23.6068758 47.466794,25.1932316 50.1510157,25.1932316 C51.9943968,25.1932316 53.4173577,24.3838664 53.902458,23.9953711 C54.0964981,23.8658727 54.1288381,23.6716251 53.999478,23.4450028 L53.7730979,23.0565075 C53.6760778,22.8946345 53.5467178,22.765136 53.2556576,22.9270091 C52.8352373,23.1860059 51.4446165,23.8011235 50.3127158,23.8011235 C48.7927348,23.8011235 48.6310347,22.9593837 48.6310347,21.4377771 L48.6310347,13.182252 L53.1262975,13.182252 C53.3850177,13.182252 53.5467178,13.020379 53.5467178,12.7613821 L53.5467178,12.3405122 C53.5467178,12.1138899 53.3850177,11.9196423 53.1262975,11.9196423 L48.6310347,11.9196423 L48.6310347,8.3584354 C48.6310347,8.13181314 48.4369946,7.93756549 48.2106145,7.93756549 L47.6608341,7.9699401 C47.434454,7.9699401 47.2404139,8.13181314 47.2404139,8.39081 L47.2404139,11.9196423 L45.7204329,11.9196423 C45.4940528,11.9196423 45.3323527,12.0167661 45.3323527,12.2433884 L45.3323527,12.7613821 C45.3323527,13.020379 45.3970328,13.182252 45.7204329,13.182252 L47.2404139,13.182252 L47.2404139,21.5349009 Z M56.3602995,18.3945639 C56.3602995,22.3118915 59.4972814,25.1932316 63.1517037,25.1932316 C65.8359253,25.1932316 67.7439865,23.4773774 68.2290868,22.7003868 C68.3584469,22.5061392 68.2937668,22.3442661 68.1320667,22.1823931 L67.7763265,21.858647 C67.5822864,21.6643993 67.3882463,21.6643993 67.1618661,21.9233962 C66.8061259,22.3118915 65.5448651,23.8334981 63.1193637,23.8334981 C60.2411019,23.8334981 57.8156004,21.5025263 57.8156004,18.3621893 C57.8156004,15.2866015 60.2087619,12.9880044 63.1517037,12.9880044 C65.1891249,12.9880044 66.5474058,14.1211156 66.870806,14.4772363 C67.0648461,14.671484 67.3235662,14.7686078 67.5499464,14.5419856 L67.8733466,14.2182395 C68.0673867,14.0563664 68.0997267,13.8297442 67.9380266,13.6354965 C67.3559063,12.8908805 65.6742252,11.5958962 63.1517037,11.5958962 C59.4972814,11.5958962 56.3602995,14.5096109 56.3602995,18.3945639 L56.3602995,18.3945639 Z M72.1745692,24.4486156 C72.1745692,24.6752379 72.3039293,24.8694856 72.5303094,24.8694856 L73.1447698,24.8694856 C73.43583,24.8694856 73.5651901,24.7076125 73.5651901,24.4486156 L73.5651901,15.2542269 C73.6945502,15.0923539 75.5055913,12.9880044 78.1898129,12.9880044 C80.6476544,12.9880044 82.0382753,14.5419856 82.0382753,17.5204495 L82.0382753,24.4486156 C82.0382753,24.6752379 82.2323154,24.8694856 82.4586955,24.8694856 L83.0408159,24.8694856 C83.267196,24.8694856 83.4612362,24.6752379 83.4612362,24.4486156 L83.4612362,17.5204495 C83.4612362,13.6678711 81.617855,11.5958962 78.254493,11.5958962 C75.6996314,11.5958962 73.9856103,13.2470012 73.5651901,13.6678711 L73.5651901,2.62812975 C73.5651901,2.4015075 73.37115,2.20725985 73.1447698,2.20725985 L72.6273295,2.20725985 C72.3686093,2.20725985 72.1745692,2.4015075 72.1745692,2.62812975 L72.1745692,24.4486156 Z" id="Sketch" fill="#E6E8EA"></path>
                <path d="M85.3647984,12.0334629 C85.2091822,11.8517165 85.2156661,11.6959363 85.3842503,11.5661174 L85.9094522,11.1182447 C86.1039724,10.975444 86.279038,11.0078982 86.4346541,11.2156083 C86.5513663,11.3584091 86.7037381,11.5109439 86.8917743,11.6732174 C87.0798105,11.835491 87.407248,12.0237255 87.8740964,12.2379265 C88.3409449,12.4521276 88.8272381,12.5592265 89.3329907,12.5592265 C90.1110715,12.5592265 90.7724303,12.3385378 91.3170868,11.8971538 C91.8617434,11.4557698 92.1340676,10.865103 92.1340676,10.1251356 C92.1340676,9.39815016 91.8455336,8.79125623 91.268457,8.30443562 C90.6913804,7.817615 89.8322624,7.57420834 88.6910772,7.57420834 L87.6017695,7.57420834 C87.3553773,7.57420834 87.232183,7.43140977 87.232183,7.14580834 L87.232183,6.67846289 C87.232183,6.39286146 87.3683451,6.25006289 87.6406734,6.25006289 L88.7105291,6.25006289 C89.7090662,6.25006289 90.4741675,6.02612876 91.0058561,5.5782538 C91.5375446,5.13037883 91.8033849,4.56892081 91.8033849,3.89386289 C91.8033849,3.14091367 91.5569963,2.54051058 91.0642118,2.09263562 C90.5714273,1.64476065 89.9684237,1.42082653 89.255183,1.42082653 C88.29555,1.42082653 87.4461578,1.8427314 86.7069811,2.6865538 C86.5513649,2.86830016 86.3827833,2.88128185 86.2012311,2.72549925 L85.7343849,2.35551743 C85.5528327,2.19973484 85.5528327,2.03097289 85.7343849,1.84922653 L86.1428753,1.42082653 C86.4152036,1.1352251 86.8463836,0.849627953 87.4364282,0.564026525 C88.0264728,0.278425097 88.6327183,0.135626525 89.255183,0.135626525 C90.4482402,0.135626525 91.4143428,0.460168735 92.1535195,1.10926289 C92.8926963,1.75835704 93.2622791,2.62163932 93.2622791,3.69913562 C93.2622791,4.38717542 93.054794,5.01354188 92.6398176,5.5782538 C92.2248412,6.14296571 91.7644836,6.54215263 91.2587311,6.77582653 L91.2587311,6.83424471 C91.8422917,7.08090049 92.3772142,7.4800874 92.8635147,8.03181743 C93.3498152,8.58354747 93.5929618,9.23587731 93.5929618,9.98882653 C93.5929618,11.0793047 93.2006853,11.981532 92.4161205,12.6955356 C91.6315557,13.4095392 90.5844043,13.7665356 89.2746349,13.7665356 C87.6795692,13.7665356 86.3763034,13.1888505 85.3647984,12.0334629 L85.3647984,12.0334629 Z" id="3" fill="#F49C56"></path>
            </g>
            <path d="M85.4442914,28.6430838 L85.4457443,28.6578947 L85.4457443,36.8372093 L94.954955,30.7784578 L94.954955,20.4785802 L84.8514186,13.8139535 L84.8514186,22.5991432 L84.8528714,22.6139541 C84.9501396,22.6041581 85.048786,22.5991432 85.1485814,22.5991432 C86.7897664,22.5991432 88.1202098,23.9554409 88.1202098,25.628519 C88.1202098,27.1998623 86.9466474,28.4917789 85.4442914,28.6430838 Z M84.2639241,28.5987013 L84.2570929,28.6578947 L84.2570929,36.8372093 L75.045045,30.7784578 L75.045045,20.4785802 L84.8514186,13.8139535 L84.8514186,22.5991432 C83.2102336,22.5991432 81.8797902,23.9554409 81.8797902,25.628519 C81.8797902,27.0965648 82.9041281,28.3207145 84.2639241,28.5987013 L84.2639241,28.5987013 Z" id="Rectangle-9" fill="#E6E8EA" sketch:type="MSShapeGroup"></path>
        </g>
    </g>
</svg>