<?xml version="1.0" encoding="UTF-8" standalone="no"?>
<svg width="140px" height="140px" viewBox="0 0 140 140" version="1.1" xmlns="http://www.w3.org/2000/svg" xmlns:xlink="http://www.w3.org/1999/xlink" xmlns:sketch="http://www.bohemiancoding.com/sketch/ns">
    <!-- Generator: Sketch 3.2.2 (9983) - http://www.bohemiancoding.com/sketch -->
    <title>Rectangle 75 + Imported Layers 2 + Imported Layers 2</title>
    <desc>Created with Sketch.</desc>
    <defs></defs>
    <g id="Page-1" stroke="none" stroke-width="1" fill="none" fill-rule="evenodd" sketch:type="MSPage">
        <g id="Rectangle-75-+-Imported-Layers" sketch:type="MSLayerGroup" transform="translate(10.000000, 0.000000)">
            <path d="M0,44.9995286 C0,42.2383652 1.86147451,38.759017 4.15957408,37.2269506 L55.8404259,2.77304939 C58.1376953,1.2415365 61.8614745,1.24098301 64.1595741,2.77304939 L115.840426,37.2269506 C118.137695,38.7584635 120,42.2425656 120,44.9995286 L120,95.0004714 C120,97.7616348 118.138525,101.240983 115.840426,102.773049 L64.1595741,137.226951 C61.8623047,138.758464 58.1385255,138.759017 55.8404259,137.226951 L4.15957408,102.773049 C1.86230475,101.241536 0,97.7574344 0,95.0004714 L0,44.9995286 Z" id="Rectangle-75" fill="#0F172C" sketch:type="MSShapeGroup"></path>
            <path d="M72.16,68.24 L79,61.4 L60.9047619,61.4 L60.9047619,61.4 L79,31 L47.84,62.16 L41,69 L60.372549,69 L41,107 L72.16,68.24 Z" id="Rectangle-17" stroke="#F5F5F5" sketch:type="MSShapeGroup"></path>
        </g>
    </g>
</svg>