<?xml version="1.0" encoding="UTF-8" standalone="no"?>
<svg width="51px" height="51px" viewBox="0 0 51 51" version="1.1" xmlns="http://www.w3.org/2000/svg" xmlns:xlink="http://www.w3.org/1999/xlink" xmlns:sketch="http://www.bohemiancoding.com/sketch/ns">
    <!-- Generator: Sketch 3.2.2 (9983) - http://www.bohemiancoding.com/sketch -->
    <title>Rectangle 79 + Oval 1</title>
    <desc>Created with Sketch.</desc>
    <defs></defs>
    <g id="Page-1" stroke="none" stroke-width="1" fill="none" fill-rule="evenodd" sketch:type="MSPage">
        <path d="M3,17.5647415 C3,15.9115804 4.12122893,13.8287964 5.50226064,12.9140871 L22.4977394,1.65734146 C23.8796998,0.742017047 26.1212289,0.742632151 27.5022606,1.65734146 L44.4977394,12.9140871 C45.8796998,13.8294115 47,15.9057885 47,17.5647415 L47,33.4352585 C47,35.0884196 45.8787711,37.1712036 44.4977394,38.0859129 L27.5022606,49.3426585 C26.1203002,50.257983 23.8787711,50.2573678 22.4977394,49.3426585 L5.50226064,38.0859129 C4.12030025,37.1705885 3,35.0942115 3,33.4352585 L3,17.5647415 Z" id="Rectangle-84" stroke="#0F172C" sketch:type="MSShapeGroup"></path>
        <path d="M10.7046957,25.4994198 L10.5,27.2899843 L10.7046957,29.0498224 C10.7122973,29.1238678 10.758563,29.1755611 10.8170241,29.1755611 C10.8736257,29.1755611 10.9197274,29.1243715 10.9286961,29.0505779 L11.1713997,27.2899843 L10.9286961,25.4989161 C10.9200555,25.4251226 10.8733523,25.3731145 10.8170241,25.3731145 C10.7586177,25.3731145 10.7122426,25.4251226 10.7046957,25.4994198 Z M12.3503005,24.3946571 C12.3503005,24.3952867 12.0750031,27.2897324 12.0750031,27.2897324 L12.3503005,30.1207736 C12.3580661,30.1967079 12.4071756,30.2514864 12.4668398,30.2514864 C12.5253555,30.2514864 12.5733712,30.1979672 12.5829963,30.1215921 L12.8961375,27.2897324 L12.5833791,24.3946571 C12.5737541,24.3177153 12.5258477,24.2645739 12.4668398,24.2645739 C12.4075037,24.2645739 12.3583943,24.3194783 12.3503005,24.3946571 Z M13.896866,23.761745 L13.6500608,27.2908658 L13.896866,30.7053294 C13.9034832,30.8110456 13.9745771,30.8908837 14.0613116,30.8908837 C14.1470618,30.8908837 14.2178823,30.8109197 14.2254838,30.7053294 L14.5061953,27.2908658 L14.2254838,23.7609894 C14.2179369,23.6552103 14.1471712,23.5753722 14.0613116,23.5753722 C13.9745771,23.5753722 13.903866,23.6552732 13.896866,23.761745 Z M15.4578691,24.0172521 L15.2251733,27.2909287 L15.4578691,30.7335372 C15.4645956,30.8549944 15.5449317,30.9468586 15.6461038,30.9468586 C15.7457993,30.9468586 15.8264635,30.8549314 15.8339557,30.733852 L16.0983703,27.2909287 L15.8339557,24.0157409 C15.8268463,23.8947875 15.7460727,23.8036159 15.6461038,23.8036159 C15.544877,23.8036159 15.4642128,23.8955431 15.4578691,24.0172521 Z M17.0195284,21.9658916 L16.8001764,27.292251 L17.0195284,30.7345446 C17.0252159,30.8690983 17.1326223,30.9751293 17.2456069,30.9751293 C17.35799,30.9751293 17.472123,30.8685946 17.472123,30.7337261 L17.705475,27.292251 L17.450412,21.9658916 C17.4436307,21.8306454 17.3434977,21.7241106 17.2311147,21.7241106 C17.1182395,21.7241106 17.0248877,21.8305824 17.0195284,21.9658916 Z M18.5799298,20.7485496 C18.5799298,20.7489903 18.3752888,27.2933213 18.3752888,27.2933213 L18.5803673,30.7138925 C18.585508,30.8633686 18.6890863,30.9816775 18.8161256,30.9816775 C18.9420165,30.9816775 19.0458683,30.8633686 19.0518839,30.7126332 L19.2832125,27.2933213 L19.0518839,20.7485496 C19.0455948,20.5974994 18.9419618,20.4795682 18.8160709,20.4795682 C18.6890863,20.4795682 18.585508,20.5977513 18.5799298,20.7485496 Z M20.1267141,19.9640207 L19.9502919,27.2940139 L20.1269329,30.6585473 C20.1312532,30.8388756 20.2830113,30.9814257 20.4374491,30.9814257 C20.5916135,30.9814257 20.7481294,30.8388756 20.7481294,30.657477 L20.9195204,27.2942028 L20.7073871,19.9639577 C20.7024652,19.7820553 20.564215,19.6391905 20.4103787,19.6391905 C20.2556128,19.6391905 20.1309251,19.7816146 20.1267141,19.9640207 Z M21.6736078,20.4133933 L21.525459,27.2954621 L21.6736078,30.6071059 C21.6771625,30.8179717 21.8266784,30.9846998 22.0091162,30.9846998 C22.1910072,30.9846998 22.3440778,30.8182235 22.3440778,30.6048392 L22.5066094,27.2958399 L22.3385544,20.4128896 C22.3341794,20.1998201 22.1872885,20.032966 22.0053975,20.032966 C21.8232331,20.032966 21.6771625,20.1997571 21.6736078,20.4133933 Z M23.2558296,18.3647403 L23.1005168,27.2972251 L23.2562671,30.5388532 C23.2590015,30.7759119 23.447455,30.9709107 23.6542288,30.9709107 C23.8605652,30.9709107 24.0521358,30.7757859 24.0521358,30.5353272 L24.2023627,27.2972251 L24.0239717,18.3640477 C24.0209639,18.1245334 23.841862,17.9290938 23.6355257,17.9290938 C23.4286971,17.9290938 23.2589468,18.1245334 23.2558296,18.3647403 Z M33.7236391,23.3767843 C33.4495448,19.8031482 30.8466882,17 27.6717992,17 C26.8948523,17 26.141093,17.1759838 25.4723183,17.4738655 C25.2124428,17.589593 25.1441927,17.7089094 25.1441927,17.9399865 L25.1441927,30.5248122 C25.1441927,30.7674747 25.3069977,30.9696515 25.5125684,30.9933888 C25.5213184,30.9945221 34.9956182,31 35.0570323,31 C36.9589032,31 38.5,29.2245469 38.5,27.0346031 C38.5,24.8446593 36.9574267,23.0688914 35.0556651,23.0688914 C34.5838752,23.0688914 34.1335774,23.1788262 33.7236391,23.3767843 Z" id="Oval-1" fill="#000000" sketch:type="MSShapeGroup"></path>
    </g>
</svg>