<?xml version="1.0" encoding="UTF-8" standalone="no"?>
<svg width="980px" height="495px" viewBox="0 0 980 495" version="1.1" xmlns="http://www.w3.org/2000/svg" xmlns:xlink="http://www.w3.org/1999/xlink" xmlns:sketch="http://www.bohemiancoding.com/sketch/ns">
    <!-- Generator: Sketch 3.2.2 (9983) - http://www.bohemiancoding.com/sketch -->
    <title>Rectangle 420 + Group + built by + Simon</title>
    <desc>Created with Sketch.</desc>
    <defs>
        <filter x="-50%" y="-50%" width="200%" height="200%" filterUnits="objectBoundingBox" id="filter-1">
            <feGaussianBlur stdDeviation="0" in="SourceGraphic" result="blur"></feGaussianBlur>
        </filter>
    </defs>
    <g id="Page-1" stroke="none" stroke-width="1" fill="none" fill-rule="evenodd" sketch:type="MSPage">
        <g id="Rectangle-420-+-Group-+-built-by-+-Simon" sketch:type="MSLayerGroup">
            <rect id="Rectangle-420" opacity="0.409545245" fill-opacity="0.183480525" fill="#F49C56" filter="url(#filter-1)" sketch:type="MSShapeGroup" x="0" y="0" width="980" height="495"></rect>
            <g id="Group-+-built-by-+-Simon" transform="translate(397.000000, 163.000000)" sketch:type="MSShapeGroup">
                <g id="Group" transform="translate(0.000000, 0.445333)">
                    <path d="M129.162211,10.6137539 C118.352993,5.04533955 106.033165,1.89266667 92.9583333,1.89266667 C78.8367921,1.89266667 65.5959782,5.57032079 54.1878821,11.9971651 C49.0291636,12.5021756 41.2066106,13.0269279 36.1830479,12.2326897 C24.122032,10.325812 0,5.678 0,5.678 L19.017802,54.4851942 C16.625116,61.7715432 15.3333333,69.5383103 15.3333333,77.5993333 C15.3333333,104.038008 29.2292922,127.311315 50.2866725,140.851147 C57.6077862,156.032849 73.5330856,166.554667 92,166.554667 C109.764553,166.554667 125.177147,156.817992 132.840979,142.562843 L132.840979,142.562843 C155.451717,129.330764 170.583333,105.188468 170.583333,77.5993333 C170.583333,67.3422966 168.491857,57.5616785 164.702141,48.6409978 L182.521429,5.678 C182.521429,5.678 157.943075,10.620158 145.17381,11.5163955 C141.040018,11.8065342 134.146235,11.1800108 129.162211,10.6137539 Z" id="Oval-1" stroke="#0F172C" stroke-width="5" fill="#D89C69"></path>
                    <path d="M0,5.678 L34.5,17.034 L0,5.678 Z" id="Rectangle-5" fill="#D8D8D8"></path>
                    <path d="M79.5738419,134.942764 C81.5631064,133.32342 83.5735981,131.291774 88.9308974,127.735932 C94.2881968,124.180091 92.5570962,125.007989 92.5570962,125.007989 C92.5570962,125.007989 89.0948951,124.180091 95.1537471,127.491682 C101.212599,130.803274 103.487356,133.271541 105.540351,134.942764 C108.850384,137.637269 115.061402,142.393845 112.464753,143.221743 C109.868104,144.049641 75.2460905,144.049641 71.7838893,143.221743 C68.3216882,142.393845 76.1134865,137.759637 79.5738419,134.942764 Z" id="Triangle-3" fill="#0F172C" transform="translate(92.000000, 134.379333) scale(1, -1) translate(-92.000000, -134.379333) "></path>
                    <path d="M86.5407231,146.287361 C88.377289,144.871548 93.483871,141.95 93.483871,141.95 C93.483871,141.95 98.9861297,144.807439 100.905857,146.287361 C102.737026,147.699013 107.333333,151.413333 107.333333,151.413333 L102.139785,150.624722 C102.139785,150.624722 95.0318092,149.831392 94.3494626,149.836111 C91.9323859,149.852828 88.3564247,150.388404 86.540723,150.624722 C80.4815834,151.413333 80.5000003,151.413333 80.5000003,151.413333 C80.5000003,151.413333 84.6263931,147.763122 86.5407231,146.287361 Z" id="Triangle-4" fill="#0F172C"></path>
                    <path d="M134.491143,43.5313333 L143.75,81.7744623 L121.865428,114.06866 C121.865428,114.06866 119.428386,119.963942 121.758801,129.064304 C124.089216,138.164667 124.057058,135.823604 126.389231,138.164667" id="Line-2" stroke="#0F172C" stroke-width="5" stroke-linecap="square" transform="translate(132.250000, 90.848000) scale(-1, 1) translate(-132.250000, -90.848000) "></path>
                    <path d="M55.7841318,45.424 L65.1666667,83.242179 L42.9897662,115.17753 C42.9897662,115.17753 41.4675516,123.253567 42.5632873,129.044196 C43.659023,134.834824 47.7372173,137.535078 51.7606748,141.95" id="Line-4" stroke="#0F172C" stroke-width="5" stroke-linecap="square"></path>
                    <path d="M40.3047619,62.458 L60.4571429,62.458 L61.3333333,70.0286667 C61.3333333,70.0286667 49.7932705,69.225767 43.1821282,68.0255176 C39.5710483,67.3699279 30.6666667,62.458 30.6666667,62.458 L40.3047619,62.458 Z" id="Rectangle-1" fill="#0F172C"></path>
                    <path d="M135.138095,62.458 L155.290476,62.458 L156.166667,70.0286667 C156.166667,70.0286667 144.626604,69.225767 138.015461,68.0255176 C134.404382,67.3699279 125.5,62.458 125.5,62.458 L135.138095,62.458 Z" id="Rectangle-2" fill="#0F172C" transform="translate(140.833333, 66.243333) scale(-1, 1) translate(-140.833333, -66.243333) "></path>
                    <path d="M51.75,141.95 C51.75,141.95 61.7640359,149.418237 68.1962366,149.418237 C71.0600796,149.418237 76.9349941,149.950486 81.1801075,148.588433 C87.5020093,146.560039 92,142.364902 92,142.364902" id="Line" stroke="#0F172C" stroke-width="5" stroke-linecap="square"></path>
                    <path d="M92,142.184681 C92,142.184681 101.011789,149.415657 107.347908,149.415657 C110.168972,149.415657 115.95613,149.961311 120.137832,148.564954 C126.365299,146.485475 141.833333,132.486667 141.833333,132.486667" id="Line-3" stroke="#0F172C" stroke-width="5" stroke-linecap="square"></path>
                    <path d="M19.1666667,93.8221905 L26.8333333,88.9553333 L34.5,93.8221905 L34.5,101.122476 L26.8333333,105.989333 L19.1666667,101.122476 L19.1666667,93.8221905 Z" id="Rectangle-26" fill="#0F172C"></path>
                    <path d="M105.416667,20.0081905 L113.083333,15.1413333 L120.75,20.0081905 L120.75,27.3084762 L113.083333,32.1753333 L105.416667,27.3084762 L105.416667,20.0081905 Z" id="Rectangle-40" fill="#0F172C"></path>
                    <path d="M21.0833333,74.3547619 L27.7916667,70.0286667 L34.5,74.3547619 L34.5,80.8439048 L27.7916667,85.17 L21.0833333,80.8439048 L21.0833333,74.3547619 Z" id="Rectangle-27" fill="#0F172C"></path>
                    <path d="M157.166667,70.5694286 L163.875,66.2433333 L170.583333,70.5694286 L170.583333,77.0585714 L163.875,81.3846667 L157.166667,77.0585714 L157.166667,70.5694286 Z" id="Rectangle-44" fill="#0F172C"></path>
                    <path d="M28.75,38.3940952 L35.4583333,34.068 L42.1666667,38.3940952 L42.1666667,44.8832381 L35.4583333,49.2093333 L28.75,44.8832381 L28.75,38.3940952 Z" id="Rectangle-32" fill="#0F172C"></path>
                    <path d="M84.3333333,21.3600952 L91.0416667,17.034 L97.75,21.3600952 L97.75,27.8492381 L91.0416667,32.1753333 L84.3333333,27.8492381 L84.3333333,21.3600952 Z" id="Rectangle-33" fill="#0F172C"></path>
                    <path d="M138,40.2867619 L144.708333,35.9606667 L151.416667,40.2867619 L151.416667,46.7759048 L144.708333,51.102 L138,46.7759048 L138,40.2867619 Z" id="Rectangle-34" fill="#0F172C"></path>
                    <path d="M143.75,89.4960952 L150.458333,85.17 L157.166667,89.4960952 L157.166667,95.9852381 L150.458333,100.311333 L143.75,95.9852381 L143.75,89.4960952 Z" id="Rectangle-35" fill="#0F172C"></path>
                    <path d="M23,64.6210476 L25.875,62.458 L28.75,64.6210476 L28.75,67.865619 L25.875,70.0286667 L23,67.865619 L23,64.6210476 Z" id="Rectangle-31" fill="#0F172C"></path>
                    <path d="M42.1666667,51.372381 L45.0416667,49.2093333 L47.9166667,51.372381 L47.9166667,54.6169524 L45.0416667,56.78 L42.1666667,54.6169524 L42.1666667,51.372381 Z" id="Rectangle-42" fill="#0F172C"></path>
                    <path d="M24.9166667,55.1577143 L27.7916667,52.9946667 L30.6666667,55.1577143 L30.6666667,58.4022857 L27.7916667,60.5653333 L24.9166667,58.4022857 L24.9166667,55.1577143 Z" id="Rectangle-51" fill="#0F172C"></path>
                    <path d="M92,41.9090476 L94.875,39.746 L97.75,41.9090476 L97.75,45.153619 L94.875,47.3166667 L92,45.153619 L92,41.9090476 Z" id="Rectangle-48" fill="#0F172C"></path>
                    <path d="M115,36.2310476 L117.875,34.068 L120.75,36.2310476 L120.75,39.475619 L117.875,41.6386667 L115,39.475619 L115,36.2310476 Z" id="Rectangle-72" fill="#0F172C"></path>
                    <path d="M61.3333333,45.694381 L64.2083333,43.5313333 L67.0833333,45.694381 L67.0833333,48.9389524 L64.2083333,51.102 L61.3333333,48.9389524 L61.3333333,45.694381 Z" id="Rectangle-54" fill="#0F172C"></path>
                    <path d="M38.3333333,82.4661905 L46,77.5993333 L53.6666667,82.4661905 L53.6666667,89.7664762 L46,94.6333333 L38.3333333,89.7664762 L38.3333333,82.4661905 Z" id="Rectangle-28" fill="#0F172C"></path>
                    <path d="M30.6666667,110.58581 L34.5,107.882 L38.3333333,110.58581 L38.3333333,114.641524 L34.5,117.345333 L30.6666667,114.641524 L30.6666667,110.58581 Z" id="Rectangle-29" fill="#0F172C"></path>
                    <path d="M132.25,95.4444762 L136.083333,92.7406667 L139.916667,95.4444762 L139.916667,99.5001905 L136.083333,102.204 L132.25,99.5001905 L132.25,95.4444762 Z" id="Rectangle-56" fill="#0F172C"></path>
                    <path d="M149.5,106.800476 L153.333333,104.096667 L157.166667,106.800476 L157.166667,110.85619 L153.333333,113.56 L149.5,110.85619 L149.5,106.800476 Z" id="Rectangle-43" fill="#0F172C"></path>
                    <path d="M47.9166667,21.6304762 L51.75,18.9266667 L55.5833333,21.6304762 L55.5833333,25.6861905 L51.75,28.39 L47.9166667,25.6861905 L47.9166667,21.6304762 Z" id="Rectangle-36" fill="#0F172C"></path>
                    <path d="M46,36.7718095 L49.8333333,34.068 L53.6666667,36.7718095 L53.6666667,40.8275238 L49.8333333,43.5313333 L46,40.8275238 L46,36.7718095 Z" id="Rectangle-49" fill="#0F172C"></path>
                    <path d="M46,36.7718095 L49.8333333,34.068 L53.6666667,36.7718095 L53.6666667,40.8275238 L49.8333333,43.5313333 L46,40.8275238 L46,36.7718095 Z" id="Rectangle-50" fill="#0F172C"></path>
                    <path d="M69,34.8791429 L72.8333333,32.1753333 L76.6666667,34.8791429 L76.6666667,38.9348571 L72.8333333,41.6386667 L69,38.9348571 L69,34.8791429 Z" id="Rectangle-37" fill="#0F172C"></path>
                    <path d="M78.5833333,44.3424762 L82.4166667,41.6386667 L86.25,44.3424762 L86.25,48.3981905 L82.4166667,51.102 L78.5833333,48.3981905 L78.5833333,44.3424762 Z" id="Rectangle-70" fill="#0F172C"></path>
                    <path d="M99.6666667,32.9864762 L103.5,30.2826667 L107.333333,32.9864762 L107.333333,37.0421905 L103.5,39.746 L99.6666667,37.0421905 L99.6666667,32.9864762 Z" id="Rectangle-38" fill="#0F172C"></path>
                    <path d="M118.833333,44.3424762 L122.666667,41.6386667 L126.5,44.3424762 L126.5,48.3981905 L122.666667,51.102 L118.833333,48.3981905 L118.833333,44.3424762 Z" id="Rectangle-69" fill="#0F172C"></path>
                    <path d="M59.4166667,23.5231429 L63.25,20.8193333 L67.0833333,23.5231429 L67.0833333,27.5788571 L63.25,30.2826667 L59.4166667,27.5788571 L59.4166667,23.5231429 Z" id="Rectangle-47" fill="#0F172C"></path>
                    <path d="M72.8333333,15.9524762 L76.6666667,13.2486667 L80.5,15.9524762 L80.5,20.0081905 L76.6666667,22.712 L72.8333333,20.0081905 L72.8333333,15.9524762 Z" id="Rectangle-41" fill="#0F172C"></path>
                    <path d="M88.1666667,2.70380952 L92,0 L95.8333333,2.70380952 L95.8333333,6.75952381 L92,9.46333333 L88.1666667,6.75952381 L88.1666667,2.70380952 Z" id="Rectangle-64" fill="#0F172C"></path>
                    <path d="M63.25,6.48914286 L67.0833333,3.78533333 L70.9166667,6.48914286 L70.9166667,10.5448571 L67.0833333,13.2486667 L63.25,10.5448571 L63.25,6.48914286 Z" id="Rectangle-62" fill="#0F172C"></path>
                    <path d="M107.333333,6.48914286 L111.166667,3.78533333 L115,6.48914286 L115,10.5448571 L111.166667,13.2486667 L107.333333,10.5448571 L107.333333,6.48914286 Z" id="Rectangle-63" fill="#0F172C"></path>
                    <path d="M82.4166667,4.86685714 L84.3333333,3.78533333 L86.25,4.86685714 L86.25,6.48914286 L84.3333333,7.57066667 L82.4166667,6.48914286 L82.4166667,4.86685714 Z" id="Rectangle-61" fill="#0F172C" transform="translate(84.333333, 5.678000) scale(-1, 1) translate(-84.333333, -5.678000) "></path>
                    <path d="M126.5,27.3084762 L130.333333,24.6046667 L134.166667,27.3084762 L134.166667,31.3641905 L130.333333,34.068 L126.5,31.3641905 L126.5,27.3084762 Z" id="Rectangle-39" fill="#0F172C"></path>
                    <path d="M143.75,29.2011429 L147.583333,26.4973333 L151.416667,29.2011429 L151.416667,33.2568571 L147.583333,35.9606667 L143.75,33.2568571 L143.75,29.2011429 Z" id="Rectangle-67" fill="#0F172C"></path>
                    <path d="M155.25,50.0204762 L159.083333,47.3166667 L162.916667,50.0204762 L162.916667,54.0761905 L159.083333,56.78 L155.25,54.0761905 L155.25,50.0204762 Z" id="Rectangle-66" fill="#0F172C"></path>
                    <path d="M38.3333333,100.581714 L41.2083333,98.4186667 L44.0833333,100.581714 L44.0833333,103.826286 L41.2083333,105.989333 L38.3333333,103.826286 L38.3333333,100.581714 Z" id="Rectangle-30" fill="#0F172C"></path>
                    <path d="M32.5833333,24.3342857 L34.5,22.712 L36.4166667,24.3342857 L36.4166667,26.7677143 L34.5,28.39 L32.5833333,26.7677143 L32.5833333,24.3342857 Z" id="Rectangle-52" fill="#0F172C"></path>
                    <path d="M40.25,28.119619 L42.1666667,26.4973333 L44.0833333,28.119619 L44.0833333,30.5530476 L42.1666667,32.1753333 L40.25,30.5530476 L40.25,28.119619 Z" id="Rectangle-53" fill="#0F172C"></path>
                    <path d="M57.5,33.797619 L59.4166667,32.1753333 L61.3333333,33.797619 L61.3333333,36.2310476 L59.4166667,37.8533333 L57.5,36.2310476 L57.5,33.797619 Z" id="Rectangle-55" fill="#0F172C"></path>
                    <path d="M80.5,33.797619 L82.4166667,32.1753333 L84.3333333,33.797619 L84.3333333,36.2310476 L82.4166667,37.8533333 L80.5,36.2310476 L80.5,33.797619 Z" id="Rectangle-71" fill="#0F172C"></path>
                    <path d="M105.416667,45.153619 L107.333333,43.5313333 L109.25,45.153619 L109.25,47.5870476 L107.333333,49.2093333 L105.416667,47.5870476 L105.416667,45.153619 Z" id="Rectangle-73" fill="#0F172C"></path>
                    <path d="M138,24.3342857 L139.916667,22.712 L141.833333,24.3342857 L141.833333,26.7677143 L139.916667,28.39 L138,26.7677143 L138,24.3342857 Z" id="Rectangle-58" fill="#0F172C"></path>
                    <path d="M132.25,16.763619 L134.166667,15.1413333 L136.083333,16.763619 L136.083333,19.1970476 L134.166667,20.8193333 L132.25,19.1970476 L132.25,16.763619 Z" id="Rectangle-65" fill="#0F172C"></path>
                    <path d="M155.25,39.475619 L157.166667,37.8533333 L159.083333,39.475619 L159.083333,41.9090476 L157.166667,43.5313333 L155.25,41.9090476 L155.25,39.475619 Z" id="Rectangle-68" fill="#0F172C"></path>
                    <path d="M95.8333333,11.085619 L97.75,9.46333333 L99.6666667,11.085619 L99.6666667,13.5190476 L97.75,15.1413333 L95.8333333,13.5190476 L95.8333333,11.085619 Z" id="Rectangle-60" fill="#0F172C"></path>
                    <path d="M136.083333,52.7242857 L138,51.102 L139.916667,52.7242857 L139.916667,55.1577143 L138,56.78 L136.083333,55.1577143 L136.083333,52.7242857 Z" id="Rectangle-59" fill="#0F172C"></path>
                    <path d="M145.666667,75.9770476 L148.541667,73.814 L151.416667,75.9770476 L151.416667,79.221619 L148.541667,81.3846667 L145.666667,79.221619 L145.666667,75.9770476 Z" id="Rectangle-45" fill="#0F172C"></path>
                    <path d="M143.75,121.401048 L146.625,119.238 L149.5,121.401048 L149.5,124.645619 L146.625,126.808667 L143.75,124.645619 L143.75,121.401048 Z" id="Rectangle-57" fill="#0F172C"></path>
                    <path d="M132.25,81.6550476 L135.125,79.492 L138,81.6550476 L138,84.899619 L135.125,87.0626667 L132.25,84.899619 L132.25,81.6550476 Z" id="Rectangle-46" fill="#0F172C"></path>
                    <path d="M57.5,75.7066667 L63.25,75.7066667 L65.1666667,84.2236667 L63.25,87.0626667 L57.5,75.7066667 Z" id="Rectangle-7" fill="#0F172C"></path>
                    <path d="M122.666667,75.7066667 L128.416667,75.7066667 L130.333333,84.2236667 L128.416667,87.0626667 L122.666667,75.7066667 Z" id="Rectangle-8" fill="#0F172C" transform="translate(126.500000, 81.384667) scale(-1, 1) translate(-126.500000, -81.384667) "></path>
                    <path d="M0.860188248,5.678 L36.1279064,14.5846667 C36.1279064,14.5846667 59.3529891,11.9126667 55.0520479,14.5846667 C50.7511066,17.2566667 38.7084712,20.8193333 38.7084712,20.8193333 L0,8.35 L0.860188248,5.678 Z" id="Rectangle-14" fill="#0F172C"></path>
                    <path d="M125.443522,3.78533333 L160.71124,12.692 C160.71124,12.692 183.936322,10.02 179.635381,12.692 C175.33444,15.364 163.291804,18.9266667 163.291804,18.9266667 L124.583333,6.45733333 L125.443522,3.78533333 Z" id="Rectangle-15" fill="#0F172C" transform="translate(152.375000, 11.356000) scale(-1, 1) translate(-152.375000, -11.356000) "></path>
                </g>
            </g>
        </g>
    </g>
</svg>