<?xml version="1.0" encoding="UTF-8" standalone="no"?>
<svg width="140px" height="140px" viewBox="0 0 140 140" version="1.1" xmlns="http://www.w3.org/2000/svg" xmlns:xlink="http://www.w3.org/1999/xlink" xmlns:sketch="http://www.bohemiancoding.com/sketch/ns">
    <!-- Generator: Sketch 3.2.2 (9983) - http://www.bohemiancoding.com/sketch -->
    <title>Rectangle 75 + Imported Layers 2 + Imported Layers 2</title>
    <desc>Created with Sketch.</desc>
    <defs></defs>
    <g id="Page-1" stroke="none" stroke-width="1" fill="none" fill-rule="evenodd" sketch:type="MSPage">
        <g id="Rectangle-75-+-Imported-Layers-2-+-Imported-Layers-2" sketch:type="MSLayerGroup" transform="translate(10.000000, 0.000000)">
            <g id="Rectangle-75-+-Imported-Layers-2" fill="#0F172C" sketch:type="MSShapeGroup">
                <path d="M0,44.9995286 C0,42.2383652 1.86147451,38.759017 4.15957408,37.2269506 L55.8404259,2.77304939 C58.1376953,1.2415365 61.8614745,1.24098301 64.1595741,2.77304939 L115.840426,37.2269506 C118.137695,38.7584635 120,42.2425656 120,44.9995286 L120,95.0004714 C120,97.7616348 118.138525,101.240983 115.840426,102.773049 L64.1595741,137.226951 C61.8623047,138.758464 58.1385255,138.759017 55.8404259,137.226951 L4.15957408,102.773049 C1.86230475,101.241536 0,97.7574344 0,95.0004714 L0,44.9995286 Z" id="Rectangle-75"></path>
            </g>
            <g id="triumph" transform="translate(26.623377, 46.097561)"></g>
            <g id="Group" transform="translate(25.714286, 47.000787)" sketch:type="MSShapeGroup">
                <path d="M34.2857143,49.9992129 L35.2857143,49.9992129 L35.2857143,32.9992132 L34.2857143,32.9992132 L34.2857143,49.9992129 Z M48.2857143,50.9992132 L48.2857143,49.9992132 L22.2857143,49.9992132 L22.2857143,50.9992132 L48.2857143,50.9992132 Z" id="Line" fill="#F5F5F5"></path>
                <path d="M54.7857138,0.999213214 L16.2857143,0.999213214 L5.28571429,0.999213214 C-6.96947087,0.999213214 9.45152215,12.0609495 15.3340989,15.7892033 C15.6488877,19.3812884 17.9922996,33.9992132 35.2857143,33.9992132 C53.1215667,33.9992132 55.0577649,18.2846893 55.2621756,15.4384591 C59.9408188,12.7151366 79.3117076,0.999213214 66.2857143,0.999213214 L54.7857138,0.999213214 Z" id="Rectangle-22" stroke="#F5F5F5"></path>
                <path d="M15.2857143,13.9992131 L15.2857143,0.999213214 L55.2857143,0.999213214 L55.2857143,13.9992131 C55.2857143,13.9992131 54.8976318,33.9992132 35.2857143,33.9992132 C15.5699011,33.9992132 15.2857143,13.9992131 15.2857143,13.9992131 Z M17.2857143,0.999213214 L15.2857142,0.999213208 C15.2857142,0.999213208 -9.4532928,0.999213214 5.2857139,0.999213214 L17.2857143,0.999213214 Z" id="Rectangle-23" stroke="#F5F5F5"></path>
            </g>
        </g>
    </g>
</svg>