<?xml version="1.0" encoding="UTF-8" standalone="no"?>
<svg width="18px" height="13px" viewBox="0 0 18 13" version="1.1" xmlns="http://www.w3.org/2000/svg" xmlns:xlink="http://www.w3.org/1999/xlink" xmlns:sketch="http://www.bohemiancoding.com/sketch/ns">
    <!-- Generator: Sketch 3.2.2 (9983) - http://www.bohemiancoding.com/sketch -->
    <title>Group 2</title>
    <desc>Created with Sketch.</desc>
    <defs></defs>
    <g id="Page-1" stroke="none" stroke-width="1" fill="none" fill-rule="evenodd" sketch:type="MSPage">
        <g id="Group-2" sketch:type="MSLayerGroup" transform="translate(0.714286, 0.500000)" stroke="#0F172C">
            <path d="M8.20925553,11.7645207 L8.44869215,11.7645207 L8.44869215,7.76452075 L8.20925553,7.76452075 L8.20925553,11.7645207 Z M11.5613682,11.9998149 L11.5613682,11.7645208 L5.3360161,11.7645208 L5.3360161,11.9998149 L11.5613682,11.9998149 Z" id="Line" stroke-width="0.5" stroke-linecap="square" fill="#0F172C" sketch:type="MSShapeGroup"></path>
            <path d="M13.1177061,0.235108992 L3.89939638,0.235108992 L3.89939638,0.235108992 L1.26559356,0.235108992 C-1.66874655,0.235108992 2.26304051,2.83787048 3.6715448,3.71510667 C3.74691678,4.56030316 4.30801541,7.99981487 8.44869215,7.99981487 C12.7192484,7.99981487 13.1828451,4.30227984 13.2317885,3.6325786 C14.352027,2.99179685 18.9901272,0.235108992 15.8712274,0.235108992 L13.1177061,0.235108992 Z" id="Rectangle-22" sketch:type="MSShapeGroup"></path>
            <path d="M3.65995976,0.235108992 L3.65995976,3.29393249 C3.65995976,3.29393249 3.7280045,7.99981487 8.44869215,7.99981487 C13.1445034,7.99981487 13.2374245,3.29393249 13.2374245,3.29393249 L13.2374245,0.235108992 L3.65995976,0.235108992 L1.26559347,0.235108991 C-2.26346447,0.235108991 3.65995974,0.23510899 3.65995974,0.23510899 L4.138833,0.235108992 L3.65995976,0.235108992 L3.65995976,0.235108992 Z" id="Rectangle-23" sketch:type="MSShapeGroup"></path>
        </g>
    </g>
</svg>