<?xml version="1.0" encoding="UTF-8" standalone="no"?>
<svg width="117px" height="115px" viewBox="0 0 117 115" version="1.1" xmlns="http://www.w3.org/2000/svg" xmlns:xlink="http://www.w3.org/1999/xlink" xmlns:sketch="http://www.bohemiancoding.com/sketch/ns">
    <!-- Generator: Sketch 3.2.2 (9983) - http://www.bohemiancoding.com/sketch -->
    <title>Rectangle 75 + Imported Layers 2 + Imported Layers 3</title>
    <desc>Created with Sketch.</desc>
    <defs></defs>
    <g id="Page-1" stroke="none" stroke-width="1" fill="none" fill-rule="evenodd" sketch:type="MSPage">
        <g id="Rectangle-75-+-Imported-Layers-2-+-Imported-Layers-3" sketch:type="MSLayerGroup" transform="translate(8.000000, -1.000000)">
            <g id="Rectangle-75-+-Imported-Layers-2" fill="#0F172C" sketch:type="MSShapeGroup">
                <path d="M0,38.4197792 C0,35.6632113 1.86880464,32.179142 4.15558718,30.6502646 L45.8444128,2.77830686 C48.1394802,1.24389035 51.8688046,1.24942939 54.1555872,2.77830686 L95.8444128,30.6502646 C98.1394802,32.1846811 100,35.6641559 100,38.4197792 L100,78.5802208 C100,81.3367887 98.1311954,84.820858 95.8444128,86.3497354 L54.1555872,114.221693 C51.8605198,115.75611 48.1311954,115.750571 45.8444128,114.221693 L4.15558718,86.3497354 C1.86051976,84.8153189 0,81.3358441 0,78.5802208 L0,38.4197792 Z" id="Rectangle-75"></path>
            </g>
            <g id="triumph" transform="translate(22.186147, 38.524390)"></g>
            <g id="Group" transform="translate(21.428571, 39.279229)" sketch:type="MSShapeGroup">
                <path d="M28.5714286,41.7850565 L29.4047619,41.7850565 L29.4047619,27.5779139 L28.5714286,27.5779139 L28.5714286,41.7850565 Z M40.2380952,42.620771 L40.2380952,41.7850568 L18.5714286,41.7850568 L18.5714286,42.620771 L40.2380952,42.620771 Z" id="Line" fill="#F5F5F5"></path>
                <path d="M45.6547615,0.835056757 L13.5714286,0.835056757 L13.5714286,0.835056757 L4.40476191,0.835056757 C-5.80789239,0.835056757 7.87626846,10.0795078 12.7784157,13.1952628 C13.0407398,16.1972196 14.993583,28.4136282 29.4047619,28.4136282 C44.2679723,28.4136282 45.8814708,15.2807761 46.051813,12.9021408 C49.9506823,10.6262213 66.0930896,0.835056757 55.2380952,0.835056757 L45.6547615,0.835056757 Z" id="Rectangle-22" stroke="#F5F5F5"></path>
                <path d="M12.7380952,11.6993424 L12.7380952,0.835056757 L46.0714286,0.835056757 L46.0714286,11.6993424 C46.0714286,11.6993424 45.7480265,28.4136282 29.4047619,28.4136282 C12.9749176,28.4136282 12.7380952,11.6993424 12.7380952,11.6993424 Z M14.4047619,0.835056757 L12.7380952,0.835056752 C12.7380952,0.835056752 -7.877744,0.835056757 4.40476158,0.835056757 L14.4047619,0.835056757 Z" id="Rectangle-23" stroke="#F5F5F5"></path>
            </g>
        </g>
    </g>
</svg>